<?xml version="1.0" encoding="UTF-8"?>
<svg width="55px" height="58px" viewBox="0 0 55 58" version="1.1" xmlns="http://www.w3.org/2000/svg" xmlns:xlink="http://www.w3.org/1999/xlink">
    <!-- Generator: Sketch 49.3 (51167) - http://www.bohemiancoding.com/sketch -->
    <title>bitter</title>
    <desc>Created with Sketch.</desc>
    <defs></defs>
    <g id="Page-1" stroke="none" stroke-width="1" fill="none" fill-rule="evenodd">
        <g id="bitter" fill="#6E8A33" fill-rule="nonzero">
            <path d="M54.6918519,0.644444444 C54.1762963,0.15037037 53.7788889,0.590740741 53.5425926,0.837777778 L45.2937037,9.59148148 C44.5214397,9.12303019 43.7091158,8.72405698 42.8662963,8.39925926 C41.9729345,8.08748378 41.0573895,7.84333844 40.1274074,7.66888889 C38.3029414,7.34174044 36.4451061,7.24073191 34.5959259,7.36814815 C27.892537,7.88157576 21.6503505,10.9776387 17.1851852,16.0037037 C13.0413715,20.6753768 10.4516031,26.5192456 9.77407407,32.727037 C9.33196532,36.7108669 10.2600981,40.7264619 12.4055556,44.1122222 L12.1585185,44.37 C8.34375612,48.2471915 4.75746714,52.3427335 1.41777778,56.6359259 L0.880740741,57.5703704 L1.78296296,57.1085185 C3.35111111,56.5177778 11.8792593,47.1196296 13.6944444,45.1540741 C18.3687199,47.7220885 23.8625739,48.3582189 29,46.9262963 C32.5122222,45.9703704 36.0674074,43.7040741 39.8803704,40.1059259 C42.2218519,37.8825926 47.8392593,32.0396296 49.3644444,26.0677778 C50.7177778,20.5148148 50.4814815,15.1551852 46.4966667,10.6225926 L54.6059259,1.96555556 C55.2074074,1.2137037 55.1,1.07407407 54.6918519,0.644444444 Z M46.7222222,12.3088889 C48.4514815,14.5644444 49.3859259,19.677037 48.7307407,23.78 C48.3164962,26.246676 47.4537281,28.616558 46.1851852,30.7722222 C41.4162963,38.0222222 33.5003704,45.6588889 26.5081481,46.3892593 C21.0196296,46.9692593 15.7674074,45.7340741 13.4044444,43.3281481 C12.3074377,42.1892641 11.5939122,40.7359254 11.3637037,39.1714815 C11.31,38.9351852 11.2455556,38.6881481 11.1918519,38.4733333 C10.6614594,36.4840803 10.5553357,34.4055206 10.8803704,32.3725926 C11.5317761,27.1167214 13.6163292,22.1412907 16.9059259,17.9907407 C20.2266897,13.8411482 24.7168061,10.7841273 29.7948148,9.21555556 C34.7023276,7.75404837 39.976641,8.15564584 44.6062963,10.3433333 C44.6062963,10.3433333 42.6622222,12.4914815 42.382963,12.7492593 C41.326674,12.0551041 40.1381794,11.5870201 38.8922222,11.3744444 C37.888578,11.2771067 36.9010731,11.6785314 36.25,12.4485185 C35.3981814,13.851754 35.5051502,15.6359937 36.5185185,16.9274074 C37.6218329,18.3719557 39.1751821,19.4075218 40.932963,19.8703704 C41.7384941,20.1140534 42.5936146,20.143668 43.4140741,19.9562963 C44.3569595,19.6803809 45.1380093,19.0164887 45.5622222,18.1303704 C45.8311747,17.3243282 45.7452844,16.4420014 45.3259259,15.702963 C45.045087,15.2019454 44.6820002,14.7517178 44.2518519,14.3711111 L43.7792593,13.877037 L45.7340741,11.3422222 C45.9059259,11.4711111 46.5503704,12.0833333 46.7222222,12.3088889 Z" id="Shape"></path>
        </g>
    </g>
</svg>