<?xml version="1.0" encoding="UTF-8"?>
<svg width="52px" height="54px" viewBox="0 0 52 54" version="1.1" xmlns="http://www.w3.org/2000/svg" xmlns:xlink="http://www.w3.org/1999/xlink">
    <!-- Generator: Sketch 49.2 (51160) - http://www.bohemiancoding.com/sketch -->
    <title>bitter</title>
    <desc>Created with Sketch.</desc>
    <defs></defs>
    <g id="Page-1" stroke="none" stroke-width="1" fill="none" fill-rule="evenodd">
        <g id="bitter" fill="#000000" fill-rule="nonzero">
            <path d="M50.92,0.6 C50.44,0.14 50.07,0.55 49.85,0.78 L42.17,8.93 C41.4509956,8.49385569 40.6946941,8.12239788 39.91,7.82 C39.0782493,7.52972627 38.2258454,7.30241855 37.36,7.14 C35.6613593,6.83541351 33.9316505,6.74137109 32.21,6.86 C25.9689138,7.33801881 20.1572228,10.2205602 16,14.9 C12.1419666,19.2494887 9.73080287,24.6903321 9.1,30.47 C8.6883815,34.179083 9.55250515,37.9177404 11.55,41.07 L11.32,41.31 C7.76832466,44.919799 4.42936596,48.7328898 1.32,52.73 L0.82,53.6 L1.66,53.17 C3.12,52.62 11.06,43.87 12.75,42.04 C17.1019116,44.43091 22.2168792,45.0231694 27,43.69 C30.27,42.8 33.58,40.69 37.13,37.34 C39.31,35.27 44.54,29.83 45.96,24.27 C47.22,19.1 47,14.11 43.29,9.89 L50.84,1.83 C51.4,1.13 51.3,1 50.92,0.6 Z M43.5,11.46 C45.11,13.56 45.98,18.32 45.37,22.14 C44.984324,24.4365604 44.1810572,26.6430023 43,28.65 C38.56,35.4 31.19,42.51 24.68,43.19 C19.57,43.73 14.68,42.58 12.48,40.34 C11.4586489,39.2796597 10.7943321,37.9265512 10.58,36.47 C10.53,36.25 10.47,36.02 10.42,35.82 C9.9261863,33.9679369 9.82738152,32.032726 10.13,30.14 C10.7364812,25.2466027 12.677272,20.6143052 15.74,16.75 C18.8317455,12.8865862 23.0121987,10.0403943 27.74,8.58 C32.3090636,7.21928642 37.2196312,7.5931875 41.53,9.63 C41.53,9.63 39.72,11.63 39.46,11.87 C38.4765586,11.2237176 37.3700291,10.7879152 36.21,10.59 C35.2755726,10.4993752 34.3561715,10.8731155 33.75,11.59 C32.9569275,12.8964606 33.0565191,14.5576493 34,15.76 C35.0272238,17.1049243 36.4734454,18.069072 38.11,18.5 C38.8599773,18.7268773 39.6561239,18.7544495 40.42,18.58 C41.2978589,18.3231133 42.0250431,17.7050067 42.42,16.88 C42.670404,16.129547 42.5904372,15.3080703 42.2,14.62 C41.9385293,14.1535354 41.600483,13.734358 41.2,13.38 L40.76,12.92 L42.58,10.56 C42.74,10.68 43.34,11.25 43.5,11.46 Z" id="Shape"></path>
        </g>
    </g>
</svg>