<?xml version="1.0" encoding="UTF-8"?>
<svg width="60px" height="60px" viewBox="0 0 60 60" version="1.1" xmlns="http://www.w3.org/2000/svg" xmlns:xlink="http://www.w3.org/1999/xlink">
    <!-- Generator: Sketch 49.3 (51167) - http://www.bohemiancoding.com/sketch -->
    <title>chemicaltesting</title>
    <desc>Created with Sketch.</desc>
    <defs></defs>
    <g id="Page-1" stroke="none" stroke-width="1" fill="none" fill-rule="evenodd">
        <g id="chemicaltesting" fill="#000000" fill-rule="nonzero">
            <g id="Group">
                <path d="M57.0944882,15.453831 L45.484252,15.453831 C43.8779528,15.453831 42.5787402,16.7504912 42.5787402,18.3536346 C42.5787402,19.6149312 43.3818898,20.6876228 44.515748,21.0884086 L44.515748,53.1277014 C44.515748,56.8526523 47.5511811,59.8939096 51.2834646,59.8939096 C55.015748,59.8939096 58.0511811,56.8644401 58.0511811,53.1277014 L58.0511811,21.0884086 C59.1732283,20.6876228 59.988189,19.6149312 59.988189,18.3536346 C60,16.7504912 58.7007874,15.453831 57.0944882,15.453831 Z M56.1259843,53.1159136 C56.1259843,55.7799607 53.9527559,57.9489194 51.2834646,57.9489194 C48.6141732,57.9489194 46.4409449,55.7799607 46.4409449,53.1159136 L46.4409449,44.4282908 L56.1141732,44.4282908 L56.1141732,53.1159136 L56.1259843,53.1159136 Z M57.0944882,19.3202358 L56.1259843,19.3202358 L56.1259843,23.1866405 L54.1889764,23.1866405 L54.1889764,25.108055 L56.1259843,25.108055 L56.1259843,28.0078585 L54.1889764,28.0078585 L54.1889764,29.9410609 L56.1259843,29.9410609 L56.1259843,32.8408644 L54.1889764,32.8408644 L54.1889764,34.7740668 L56.1259843,34.7740668 L56.1259843,37.6738703 L54.1889764,37.6738703 L54.1889764,39.6070727 L56.1259843,39.6070727 L56.1259843,42.5068762 L46.4527559,42.5068762 L46.4527559,19.3202358 L45.484252,19.3202358 C44.9527559,19.3202358 44.515748,18.8840864 44.515748,18.3536346 C44.515748,17.8231827 44.9527559,17.3870334 45.484252,17.3870334 L57.0944882,17.3870334 C57.6259843,17.3870334 58.0629921,17.8231827 58.0629921,18.3536346 C58.0629921,18.8840864 57.6259843,19.3202358 57.0944882,19.3202358 Z" id="Shape"></path>
                <path d="M27.1062992,35.3870334 L27.1062992,22.043222 C28.2283465,21.6424361 29.0433071,20.5697446 29.0433071,19.3084479 C29.0433071,17.7053045 27.7440945,16.4086444 26.1377953,16.4086444 L16.4645669,16.4086444 C14.8582677,16.4086444 13.5590551,17.7053045 13.5590551,19.3084479 C13.5590551,20.5697446 14.3622047,21.6424361 15.496063,22.043222 L15.496063,35.3752456 L1.84251969,49.1316306 C0.0118110236,50.9705305 -0.496062992,53.6227898 0.507874016,56.0275049 C1.5,58.4086444 3.70866142,59.8821218 6.28346457,59.8821218 L36.3188976,59.8821218 C38.8818898,59.8821218 41.1023622,58.4086444 42.0944882,56.0275049 C43.0984252,53.6227898 42.5905512,50.9823183 40.7480315,49.1316306 L27.1062992,35.3870334 Z M17.4212598,36.1768173 L17.4212598,32.8408644 L19.3582677,32.8408644 L19.3582677,30.9076621 L17.4212598,30.9076621 L17.4212598,28.9744597 L19.3582677,28.9744597 L19.3582677,27.0412574 L17.4212598,27.0412574 L17.4212598,25.108055 L19.3582677,25.108055 L19.3582677,23.1748527 L17.4212598,23.1748527 L17.4212598,20.2750491 L16.4527559,20.2750491 C15.9212598,20.2750491 15.484252,19.8388998 15.484252,19.3084479 C15.484252,18.7779961 15.9212598,18.3418468 16.4527559,18.3418468 L26.1259843,18.3418468 C26.6574803,18.3418468 27.0944882,18.7779961 27.0944882,19.3084479 C27.0944882,19.8388998 26.6574803,20.2750491 26.1259843,20.2750491 L25.1574803,20.2750491 L25.1574803,36.1768173 L35.2677165,46.3614931 L7.32283465,46.3614931 L17.4212598,36.1768173 Z M40.2992126,55.2848723 C39.7559055,56.5697446 38.4330709,57.9607073 36.3070866,57.9607073 L6.28346457,57.9607073 C4.16929134,57.9607073 2.83464567,56.5815324 2.29133858,55.2848723 C1.7480315,53.9764244 1.7007874,52.0314342 3.22440945,50.4872299 L5.40944882,48.2946955 L37.1929134,48.2946955 L39.3779528,50.4872299 C40.8897638,52.0196464 40.8425197,53.9646365 40.2992126,55.2848723 Z" id="Shape"></path>
                <path d="M24.2007874,12.5540275 C26.3385827,12.5540275 28.0748031,10.8212181 28.0748031,8.68762279 C28.0748031,6.5540275 26.3267717,4.83300589 24.2007874,4.83300589 C22.0748031,4.83300589 20.3267717,6.56581532 20.3267717,8.69941061 C20.3267717,10.8330059 22.0629921,12.5540275 24.2007874,12.5540275 Z M24.2007874,6.76620825 C25.2637795,6.76620825 26.1377953,7.62671906 26.1377953,8.69941061 C26.1377953,9.77210216 25.2637795,10.632613 24.2007874,10.632613 C23.1377953,10.632613 22.2637795,9.77210216 22.2637795,8.69941061 C22.2637795,7.62671906 23.1259843,6.76620825 24.2007874,6.76620825 Z" id="Shape"></path>
                <path d="M17.4212598,5.79960707 C19.0275591,5.79960707 20.3267717,4.50294695 20.3267717,2.89980354 C20.3267717,1.29666012 19.0275591,0 17.4212598,0 C15.8149606,0 14.515748,1.29666012 14.515748,2.89980354 C14.515748,4.50294695 15.8267717,5.79960707 17.4212598,5.79960707 Z M17.4212598,1.93320236 C17.9527559,1.93320236 18.3897638,2.36935167 18.3897638,2.89980354 C18.3897638,3.4302554 17.9527559,3.86640472 17.4212598,3.86640472 C16.8897638,3.86640472 16.4527559,3.4302554 16.4527559,2.89980354 C16.4527559,2.36935167 16.8897638,1.93320236 17.4212598,1.93320236 Z" id="Shape"></path>
            </g>
        </g>
    </g>
</svg>