<?xml version="1.0" encoding="UTF-8"?>
<svg width="1105px" height="372px" viewBox="0 0 1105 372" version="1.1" xmlns="http://www.w3.org/2000/svg" xmlns:xlink="http://www.w3.org/1999/xlink">
    <!-- Generator: Sketch 49.3 (51167) - http://www.bohemiancoding.com/sketch -->
    <title>EVOO Production Process</title>
    <desc>Created with Sketch.</desc>
    <defs></defs>
    <g id="EVOO-Production-Process" stroke="none" stroke-width="1" fill="none" fill-rule="evenodd">
        <g id="olive" transform="translate(271.000000, 62.000000)" fill="#394F49" fill-rule="nonzero">
            <path d="M19.411,4.588 C14.244,-0.579 6.716,-1.457 2.629,2.628 C-1.458,6.714 -0.578,14.243 4.589,19.41 C7.567,22.389 11.329,23.942 14.765,23.942 C17.29,23.942 19.641,23.102 21.371,21.37 C25.458,17.284 24.578,9.755 19.411,4.588 Z M20.664,20.663 C16.968,24.36 10.074,23.481 5.296,18.703 C0.519,13.926 -0.36,7.032 3.336,3.335 C4.877,1.795 6.972,1.049 9.239,1.049 C12.411,1.049 15.918,2.509 18.704,5.295 C23.481,10.072 24.36,16.966 20.664,20.663 Z M18.05,6.163 C17.855,5.968 17.538,5.968 17.343,6.163 C17.148,6.358 17.148,6.675 17.343,6.87 C19.555,9.082 20.891,11.877 21.01,14.539 C21.022,14.808 21.243,15.017 21.509,15.017 L21.532,15.017 C21.808,15.005 22.021,14.771 22.009,14.495 C21.879,11.586 20.436,8.55 18.05,6.163 Z M6.898,2.532 C5.955,2.766 4.984,3.346 4.165,4.164 C3.346,4.982 2.766,5.953 2.533,6.897 C2.278,7.93 2.459,8.822 3.044,9.406 C3.455,9.818 4.019,10.03 4.677,10.03 C4.953,10.03 5.247,9.992 5.552,9.917 C6.495,9.683 7.466,9.103 8.285,8.285 C9.104,7.467 9.684,6.496 9.917,5.552 C10.173,4.519 9.992,3.627 9.407,3.043 C8.823,2.459 7.933,2.277 6.898,2.532 Z M8.947,5.312 C8.757,6.082 8.271,6.887 7.579,7.579 C6.887,8.271 6.082,8.757 5.312,8.947 C4.918,9.044 4.193,9.142 3.75,8.7 C3.309,8.258 3.406,7.532 3.503,7.138 C3.693,6.368 4.179,5.563 4.871,4.871 C5.563,4.179 6.368,3.693 7.138,3.503 C7.306,3.462 7.533,3.42 7.773,3.42 C8.098,3.42 8.446,3.496 8.7,3.75 C9.142,4.192 9.045,4.918 8.947,5.312 Z" id="Shape"></path>
        </g>
        <g id="olive-copy" transform="translate(365.000000, 74.000000) scale(-1, -1) translate(-365.000000, -74.000000) translate(353.000000, 62.000000)" fill="#394F49" fill-rule="nonzero">
            <path d="M19.411,4.588 C14.244,-0.579 6.716,-1.457 2.629,2.628 C-1.458,6.714 -0.578,14.243 4.589,19.41 C7.567,22.389 11.329,23.942 14.765,23.942 C17.29,23.942 19.641,23.102 21.371,21.37 C25.458,17.284 24.578,9.755 19.411,4.588 Z M20.664,20.663 C16.968,24.36 10.074,23.481 5.296,18.703 C0.519,13.926 -0.36,7.032 3.336,3.335 C4.877,1.795 6.972,1.049 9.239,1.049 C12.411,1.049 15.918,2.509 18.704,5.295 C23.481,10.072 24.36,16.966 20.664,20.663 Z M18.05,6.163 C17.855,5.968 17.538,5.968 17.343,6.163 C17.148,6.358 17.148,6.675 17.343,6.87 C19.555,9.082 20.891,11.877 21.01,14.539 C21.022,14.808 21.243,15.017 21.509,15.017 L21.532,15.017 C21.808,15.005 22.021,14.771 22.009,14.495 C21.879,11.586 20.436,8.55 18.05,6.163 Z M6.898,2.532 C5.955,2.766 4.984,3.346 4.165,4.164 C3.346,4.982 2.766,5.953 2.533,6.897 C2.278,7.93 2.459,8.822 3.044,9.406 C3.455,9.818 4.019,10.03 4.677,10.03 C4.953,10.03 5.247,9.992 5.552,9.917 C6.495,9.683 7.466,9.103 8.285,8.285 C9.104,7.467 9.684,6.496 9.917,5.552 C10.173,4.519 9.992,3.627 9.407,3.043 C8.823,2.459 7.933,2.277 6.898,2.532 Z M8.947,5.312 C8.757,6.082 8.271,6.887 7.579,7.579 C6.887,8.271 6.082,8.757 5.312,8.947 C4.918,9.044 4.193,9.142 3.75,8.7 C3.309,8.258 3.406,7.532 3.503,7.138 C3.693,6.368 4.179,5.563 4.871,4.871 C5.563,4.179 6.368,3.693 7.138,3.503 C7.306,3.462 7.533,3.42 7.773,3.42 C8.098,3.42 8.446,3.496 8.7,3.75 C9.142,4.192 9.045,4.918 8.947,5.312 Z" id="Shape"></path>
        </g>
        <g id="refinery" transform="translate(493.000000, 256.000000)" fill="#394F49" fill-rule="nonzero">
            <path d="M89.5,26.26 L87.85,25.29 C83.06,23.05 78.03,21.91 73,21.86 L73,17.38 C73,15.51 71.49,14 69.62,14 L65.38,14 C63.51,14 62,15.51 62,17.38 L62,23.52 C60.45,24.01 58.91,24.6 57.39,25.31 L55.55,26.23 C55.21,26.4 55,26.74 55,27.12 L55,31.849 L55.042,31.757 L62,34.953 L62,64.125 C62,65.159 61.159,66 60.125,66 L55,66 L55,69 C55,69.55 55.45,70 56,70 L58,70 L58,72 L53,72 L53,64 L55,64 L60,64 L60,36.236 L55,33.94 L55,34.01 L53,33.12 L53,4.51 C53,1.89 50.75,0 48.13,0 L24.66,0 C22.05,0 20,1.89 20,4.51 L20,4.6 C14,4.72 8.77,5.85 3.44,8.02 L0.89,8.94 C0.52,9.1 0,9.46 0,9.87 L0,48.71 C0,48.95 0.34,49.18 0.49,49.36 L7,56.6 L7,78 L6,78 C5.45,78 5,78.45 5,79 C5,79.55 5.45,80 6,80 L10,80 C10.55,80 11,79.55 11,79 C11,78.45 10.55,78 10,78 L9,78 L9,72 L33,72 L33,78 L32,78 C31.45,78 31,78.45 31,79 C31,79.55 31.45,80 32,80 L36,80 C36.55,80 37,79.55 37,79 C37,78.45 36.55,78 36,78 L35,78 L35,56.42 L40.93,49.36 C41.08,49.18 41,48.95 41,48.71 L41,9.87 C41,9.46 40.92,9.1 40.55,8.94 L38.39,8.02 C33.06,5.85 28,4.72 22,4.6 L22,4.51 C22,3 23.15,2 24.66,2 L48.13,2 C49.64,2 51,3 51,4.51 L51,18 L49.16,18 C48.7,17.06 47.74,16.4 46.62,16.4 C45.07,16.4 43.8,17.67 43.8,19.22 C43.8,20.78 45.07,22.04 46.62,22.04 C47.91,22.04 48.98,21.17 49.32,20 L51,20 L51,33.12 L43.47,35.9 C43.1,36.05 43,36.42 43,36.82 L43,62.92 C43,63.47 43.04,64 43.59,64 L47,64 L47,78 L46,78 C45.45,78 45,78.45 45,79 C45,79.55 45.45,80 46,80 L50,80 C50.55,80 51,79.55 51,79 C51,78.45 50.55,78 50,78 L49,78 L49,64 L51,64 L51,73 C51,73.55 51.45,74 52,74 L58,74 L58,78 L57,78 C56.45,78 56,78.45 56,79 C56,79.55 56.45,80 57,80 L61,80 C61.55,80 62,79.55 62,79 C62,78.45 61.55,78 61,78 L60,78 L60,74 L63,74 C63.55,74 64,73.55 64,73 L64,70 L85,70 L85,78 L84,78 C83.45,78 83,78.45 83,79 C83,79.55 83.45,80 84,80 L88,80 C88.55,80 89,79.55 89,79 C89,78.45 88.55,78 88,78 L87,78 L87,70 L89,70 C89.55,70 90,69.55 90,69 L90,27.12 C90,26.77 89.81,26.44 89.5,26.26 Z M6,39 C6,39.553 5.553,40 5,40 C4.447,40 4,39.553 4,39 L4,13 C4,12.447 4.447,12 5,12 C5.553,12 6,12.447 6,13 L6,39 Z M9,13 C9,12.447 9.447,12 10,12 C10.553,12 11,12.447 11,13 L11,21 C11,21.553 10.553,22 10,22 C9.447,22 9,21.553 9,21 L9,13 Z M9,70 L9,58.91 L18.59,70 L9,70 Z M33,58.73 L33,70 L23.25,70 L33,58.73 Z M46.62,20.04 C46.17,20.04 45.8,19.67 45.8,19.22 C45.8,18.77 46.17,18.4 46.62,18.4 C47.08,18.4 47.45,18.77 47.45,19.22 C47.45,19.67 47.08,20.04 46.62,20.04 Z M62,72 L60,72 L60,70 L62,70 L62,72 Z M71,21.89 C68.65,22 66.31,22.36 64,22.95 L64,17.38 C64,16.62 64.62,16 65.38,16 L69.62,16 C70.38,16 71,16.62 71,17.38 L71,21.89 Z" id="Shape"></path>
        </g>
        <g id="machine" transform="translate(501.000000, 51.000000)" fill="#394F49" fill-rule="nonzero">
            <g id="Group">
                <path d="M23.8709677,60.8709677 L28.6451613,60.8709677 L28.6451613,53.7096774 L23.8709677,53.7096774 L23.8709677,51.3225806 L19.0967742,51.3225806 L19.0967742,48.9354839 L23.8709677,48.9354839 L23.8709677,46.5483871 L28.6451613,46.5483871 L28.6451613,39.3870968 L23.8709677,39.3870968 L23.8709677,37 L19.0967742,37 L19.0967742,32.2258065 L21.483871,32.2258065 L21.483871,25.0645161 L0,25.0645161 L0,31.0322581 L0,32.2258065 L0,74 L19.0967742,74 L19.0967742,63.2580645 L23.8709677,63.2580645 L23.8709677,60.8709677 Z M26.2580645,56.0967742 L26.2580645,58.483871 L23.8709677,58.483871 L23.8709677,56.0967742 L26.2580645,56.0967742 Z M26.2580645,41.7741935 L26.2580645,44.1612903 L23.8709677,44.1612903 L23.8709677,41.7741935 L26.2580645,41.7741935 Z M21.483871,39.3870968 L21.483871,46.5483871 L19.0967742,46.5483871 L19.0967742,39.3870968 L21.483871,39.3870968 Z M2.38709677,27.4516129 L19.0967742,27.4516129 L19.0967742,29.8387097 L2.38709677,29.8387097 L2.38709677,27.4516129 Z M2.38709677,71.6129032 L2.38709677,32.2258065 L16.7096774,32.2258065 L16.7096774,71.6129032 L2.38709677,71.6129032 Z M21.483871,60.8709677 L19.0967742,60.8709677 L19.0967742,53.7096774 L21.483871,53.7096774 L21.483871,60.8709677 Z" id="Shape"></path>
                <path d="M7.16129032,8.35483871 C7.16129032,5.06422581 9.83841935,2.38709677 13.1290323,2.38709677 L47.7419355,2.38709677 C51.0325484,2.38709677 53.7096774,5.06422581 53.7096774,8.35483871 L53.7096774,14.3225806 L56.0967742,14.3225806 L56.0967742,8.35483871 C56.0967742,3.74774194 52.3478387,0 47.7419355,0 L13.1290323,0 C8.52312903,0 4.77419355,3.74774194 4.77419355,8.35483871 L4.77419355,22.6774194 L7.16129032,22.6774194 L7.16129032,8.35483871 Z" id="Shape"></path>
                <path d="M48.9354839,14.3225806 L48.9354839,9.5483871 C48.9354839,8.23190323 47.864871,7.16129032 46.5483871,7.16129032 L14.3225806,7.16129032 C13.0060968,7.16129032 11.9354839,8.23190323 11.9354839,9.5483871 L11.9354839,22.6774194 L14.3225806,22.6774194 L14.3225806,9.5483871 L46.5483871,9.5483871 L46.5483871,14.3225806 L48.9354839,14.3225806 Z" id="Shape"></path>
                <path d="M40.2464516,23.8709677 L44.0658065,28.6451613 L40.5806452,28.6451613 L40.5806452,34.1939677 L31.0322581,46.1294516 L31.0322581,64.4516129 L33.4193548,64.4516129 L33.4193548,47.7419355 L69.2258065,47.7419355 L69.2258065,64.4516129 L71.6129032,64.4516129 L71.6129032,46.1294516 L62.0645161,34.1939677 L62.0645161,28.6451613 L58.5793548,28.6451613 L62.3987097,23.8709677 L56.6696774,16.7096774 L45.9754839,16.7096774 L40.2464516,23.8709677 Z M60.296871,35.8064516 L67.9355806,45.3548387 L34.7095806,45.3548387 L42.3482903,35.8064516 L60.296871,35.8064516 Z M59.6774194,31.0322581 L59.6774194,33.4193548 L42.9677419,33.4193548 L42.9677419,31.0322581 L45.9754839,31.0322581 L46.5483871,31.0322581 L56.0967742,31.0322581 L56.6696774,31.0322581 L59.6774194,31.0322581 Z M55.523871,19.0967742 L58.3883871,22.6774194 L50.1290323,22.6774194 L50.1290323,25.0645161 L58.3883871,25.0645161 L55.523871,28.6451613 L47.1212903,28.6451613 L43.3019355,23.8709677 L47.1212903,19.0967742 L55.523871,19.0967742 Z" id="Shape"></path>
                <rect id="Rectangle-path" x="45.3548387" y="22.6774194" width="2.38709677" height="2.38709677"></rect>
                <path d="M28.6451613,66.8387097 L28.6451613,74 L74,74 L74,66.8387097 L28.6451613,66.8387097 Z M71.6129032,71.6129032 L31.0322581,71.6129032 L31.0322581,69.2258065 L71.6129032,69.2258065 L71.6129032,71.6129032 Z" id="Shape"></path>
                <rect id="Rectangle-path" x="35.8064516" y="50.1290323" width="2.38709677" height="2.38709677"></rect>
                <rect id="Rectangle-path" x="40.5806452" y="50.1290323" width="13.1290323" height="2.38709677"></rect>
            </g>
        </g>
        <text id="Mill" font-family="Avenir-Heavy, Avenir" font-size="16" font-weight="600" fill="#000000">
            <tspan x="519" y="35">Mill</tspan>
        </text>
        <text id="Olive-grove" font-family="Avenir-Heavy, Avenir" font-size="16" font-weight="600" fill="#000000">
            <tspan x="48" y="20">Olive grove</tspan>
        </text>
        <g id="olivetree2" transform="translate(52.000000, 35.000000)" fill="#394F49" fill-rule="nonzero">
            <g id="Group">
                <path d="M81,37.4 L78.5,34.9 L80.8,32.9 C81.1,32.7 81.1,32.2 80.9,32 C80.7,31.7 80.2,31.7 80,31.9 L77.5,34.1 L73,32.6 L73.4,28.7 L77.9,28.7 C78.3,28.7 78.6,28.4 78.6,28 C78.6,27.6 78.3,27.3 77.9,27.3 L73.6,27.3 L73.9,25 C73.9,24.6 73.7,24.3 73.3,24.3 C72.9,24.3 72.6,24.5 72.6,24.9 L71.8,32.1 L69.2,31.3 L67.1,27.6 C66.9,27.3 66.5,27.2 66.2,27.4 C65.9,27.6 65.8,28 66,28.3 L67.9,31.6 L48,41.2 L54.1,26 L57.8,24.7 C57.8,24.7 57.9,24.7 57.9,24.6 L60.5,23.7 C60.5,23.7 60.5,23.7 60.5,23.7 C60.5,23.7 60.6,23.7 60.6,23.7 L62.9,22.9 C63.2,22.8 63.4,22.4 63.3,22 C63.2,21.7 62.8,21.5 62.4,21.6 L60.7,22.2 L59.5,18.6 C59.4,18.2 59,18.1 58.7,18.2 C58.3,18.3 58.2,18.7 58.3,19 L59.5,22.7 L54,24.7 L53.5,22 C53.5,22 53.5,22 53.5,22 L52.5,17.5 L55.8,16.6 C56.2,16.5 56.4,16.1 56.3,15.8 C56.2,15.5 55.8,15.2 55.5,15.3 L52.3,16.2 L51.9,15 L53.3,9.2 L56.2,9.2 C56.6,9.2 56.9,8.9 56.9,8.5 C56.9,8.1 56.6,7.8 56.2,7.8 L53.1,7.8 L51,4.1 C50.8,3.8 50.4,3.7 50.1,3.8 C49.8,4 49.7,4.4 49.8,4.7 L52,8.6 L50.5,14.8 C50.5,14.9 50.5,15 50.5,15.1 L52,22.1 L41.2,39.5 L31.5,16.6 L32.4,10.2 C32.5,9.8 32.2,9.5 31.8,9.4 C31.4,9.3 31.1,9.6 31,10 L30.7,11.8 L27.2,9.5 C26.9,9.3 26.5,9.4 26.3,9.7 C26.1,10 26.2,10.4 26.5,10.6 L30.5,13.2 L30,16.4 L29,18.8 L19.3,14.5 L19.5,10.1 C19.5,9.7 19.2,9.4 18.9,9.4 C18.5,9.4 18.2,9.7 18.2,10 L18,14.3 L12.4,14.1 C12,14.1 11.7,14.4 11.7,14.7 C11.7,15.1 12,15.4 12.3,15.4 L18.4,15.6 L28.7,20.1 L34.6,42.1 L16,31.7 L16.1,29.1 C16.1,29 16.1,28.9 16.1,28.8 L16.1,25.2 C16.1,25.2 16.1,25.2 16.1,25.1 C16.1,25 16.1,24.9 16.1,24.8 L16.1,22.1 C16.1,21.7 15.8,21.4 15.4,21.4 C15.4,21.4 15.4,21.4 15.4,21.4 C15,21.4 14.7,21.7 14.7,22.1 L14.7,24.2 L11.4,23.6 C11,23.5 10.7,23.8 10.6,24.2 C10.5,24.6 10.8,24.9 11.2,25 L14.8,25.6 L14.8,31.6 L12.6,32.5 C12.6,32.5 12.6,32.5 12.6,32.5 L9.6,33.6 L8,29.6 C7.9,29.3 7.5,29.1 7.1,29.2 C6.8,29.3 6.6,29.7 6.7,30.1 L8.3,34.1 L5,35.3 C4.7,35.4 4.5,35.8 4.6,36.2 C4.7,36.5 5.1,36.7 5.5,36.6 L9.2,35.2 C9.3,35.2 9.3,35.2 9.4,35.2 C9.5,35.2 9.5,35.1 9.6,35.1 L12.7,33.9 L35.2,51.1 L35.2,82.9 C35.2,83.3 35.5,83.6 35.9,83.6 L46.9,83.6 C46.9,83.6 46.9,83.6 46.9,83.6 C47.1,83.6 47.2,83.5 47.4,83.4 C47.5,83.3 47.6,83.1 47.6,82.9 L47.6,50.6 L72.4,33.8 L77.3,35.5 L80.2,38.4 C80.3,38.5 80.5,38.6 80.7,38.6 C80.9,38.6 81,38.5 81.2,38.4 C81.2,38.1 81.2,37.7 81,37.4 Z M46.3,49.7 C46.2,49.8 46,50 46,50.3 L46,82.3 L36.4,82.3 L36.4,50.8 C36.4,50.6 36.3,50.4 36.1,50.3 L14.1,33.3 L15.3,32.8 L35.4,44.1 C35.5,44.2 35.6,44.2 35.7,44.2 C35.8,44.2 36,44.2 36.1,44.1 C36.3,43.9 36.4,43.7 36.3,43.4 L30,19.8 L30.8,18.3 L40.5,41.2 C40.6,41.4 40.8,41.6 41.1,41.6 C41.1,41.6 41.1,41.6 41.2,41.6 C41.4,41.6 41.6,41.5 41.8,41.3 L52.7,23.9 L53.1,25.5 L46.3,42.4 C46.2,42.7 46.3,43 46.5,43.1 C46.6,43.2 46.8,43.3 47,43.3 C47.1,43.3 47.2,43.3 47.3,43.2 L68.8,32.7 L70.9,33.3 L46.3,49.7 Z" id="Shape"></path>
                <path d="M17,13 C17.3,12.7 16.1,10.5 14.8,9.2 C13.5,7.9 12.6,7.7 12.2,8.2 C11.7,8.7 11.9,9.5 13.2,10.8 C14.5,12.1 16.7,13.3 17,13 Z" id="Shape"></path>
                <path d="M13.6,23.1 C14,22.9 13.6,20.4 12.8,18.7 C12,17 11.2,16.6 10.6,16.9 C10,17.2 9.9,18 10.7,19.7 C11.5,21.5 13.2,23.3 13.6,23.1 Z" id="Shape"></path>
                <path d="M68.6,28.5 C69.1,28.6 70,26.3 70.2,24.4 C70.4,22.5 70,21.8 69.4,21.7 C68.8,21.6 68.2,22.2 68,24.1 C67.8,26 68.2,28.5 68.6,28.5 Z" id="Shape"></path>
                <path d="M6.2,33.1 C6.5,32.8 5.1,30.7 3.7,29.4 C2.3,28.2 1.4,28.1 1,28.6 C0.6,29.1 0.8,29.9 2.2,31.1 C3.7,32.4 6,33.4 6.2,33.1 Z" id="Shape"></path>
                <path d="M12.5,35.3 C12.2,35.1 10.7,36.4 9.8,37.6 C8.9,38.9 9,39.5 9.4,39.8 C9.8,40.1 10.5,39.9 11.3,38.6 C12.2,37.4 12.8,35.5 12.5,35.3 Z" id="Shape"></path>
                <path d="M29.2,8.8 C29.7,8.8 30.4,6.4 30.4,4.5 C30.4,2.6 29.9,1.9 29.2,1.9 C28.5,1.9 28,2.6 28,4.5 C28,6.4 28.8,8.8 29.2,8.8 Z" id="Shape"></path>
                <path d="M37.7,10.7 C39,9.4 39.2,8.5 38.7,8.1 C38.2,7.7 37.4,7.8 36.1,9.1 C34.8,10.4 33.6,12.7 33.9,12.9 C34.1,13.3 36.3,12.1 37.7,10.7 Z" id="Shape"></path>
                <path d="M49.2,18.4 C49.5,18.1 48.3,15.9 47,14.6 C45.7,13.3 44.8,13.1 44.4,13.6 C43.9,14.1 44.1,14.9 45.4,16.2 C46.7,17.5 48.9,18.7 49.2,18.4 Z" id="Shape"></path>
                <path d="M65,17.8 C66.1,16.7 66.2,16 65.9,15.6 C65.5,15.2 64.8,15.3 63.7,16.4 C62.6,17.5 61.6,19.3 61.8,19.6 C62,19.9 63.9,18.9 65,17.8 Z" id="Shape"></path>
                <path d="M72.6,35.7 C72.3,36 73.2,37.8 74.2,39 C75.2,40.2 75.9,40.3 76.3,40 C76.7,39.7 76.7,38.9 75.6,37.7 C74.5,36.5 72.9,35.4 72.6,35.7 Z" id="Shape"></path>
                <path d="M54,6.2 C54.4,6.3 55.4,4.4 55.7,2.7 C56,1.1 55.7,0.4 55.1,0.3 C54.6,0.2 54,0.7 53.7,2.3 C53.4,4 53.6,6.1 54,6.2 Z" id="Shape"></path>
                <path d="M75.5,26.1 C75.8,26.2 77.1,24.7 77.7,23.4 C78.3,22 78.2,21.4 77.7,21.2 C77.2,21 76.6,21.3 76,22.7 C75.5,24 75.2,25.9 75.5,26.1 Z" id="Shape"></path>
                <path d="M44.4,56.1 C44,56.1 43.7,56.4 43.7,56.8 L43.7,69.9 C43.7,70.3 44,70.6 44.4,70.6 C44.8,70.6 45.1,70.3 45.1,69.9 L45.1,56.8 C45.1,56.4 44.8,56.1 44.4,56.1 Z" id="Shape"></path>
                <path d="M44.4,52.5 C44,52.5 43.7,52.8 43.7,53.2 L43.7,54.7 C43.7,55.1 44,55.4 44.4,55.4 C44.8,55.4 45.1,55.1 45.1,54.7 L45.1,53.2 C45.1,52.8 44.8,52.5 44.4,52.5 Z" id="Shape"></path>
            </g>
        </g>
        <g id="olivetree2-copy" transform="translate(97.000000, 73.000000)" fill="#394F49" fill-rule="nonzero">
            <g id="Group">
                <path d="M81,37.4 L78.5,34.9 L80.8,32.9 C81.1,32.7 81.1,32.2 80.9,32 C80.7,31.7 80.2,31.7 80,31.9 L77.5,34.1 L73,32.6 L73.4,28.7 L77.9,28.7 C78.3,28.7 78.6,28.4 78.6,28 C78.6,27.6 78.3,27.3 77.9,27.3 L73.6,27.3 L73.9,25 C73.9,24.6 73.7,24.3 73.3,24.3 C72.9,24.3 72.6,24.5 72.6,24.9 L71.8,32.1 L69.2,31.3 L67.1,27.6 C66.9,27.3 66.5,27.2 66.2,27.4 C65.9,27.6 65.8,28 66,28.3 L67.9,31.6 L48,41.2 L54.1,26 L57.8,24.7 C57.8,24.7 57.9,24.7 57.9,24.6 L60.5,23.7 C60.5,23.7 60.5,23.7 60.5,23.7 C60.5,23.7 60.6,23.7 60.6,23.7 L62.9,22.9 C63.2,22.8 63.4,22.4 63.3,22 C63.2,21.7 62.8,21.5 62.4,21.6 L60.7,22.2 L59.5,18.6 C59.4,18.2 59,18.1 58.7,18.2 C58.3,18.3 58.2,18.7 58.3,19 L59.5,22.7 L54,24.7 L53.5,22 C53.5,22 53.5,22 53.5,22 L52.5,17.5 L55.8,16.6 C56.2,16.5 56.4,16.1 56.3,15.8 C56.2,15.5 55.8,15.2 55.5,15.3 L52.3,16.2 L51.9,15 L53.3,9.2 L56.2,9.2 C56.6,9.2 56.9,8.9 56.9,8.5 C56.9,8.1 56.6,7.8 56.2,7.8 L53.1,7.8 L51,4.1 C50.8,3.8 50.4,3.7 50.1,3.8 C49.8,4 49.7,4.4 49.8,4.7 L52,8.6 L50.5,14.8 C50.5,14.9 50.5,15 50.5,15.1 L52,22.1 L41.2,39.5 L31.5,16.6 L32.4,10.2 C32.5,9.8 32.2,9.5 31.8,9.4 C31.4,9.3 31.1,9.6 31,10 L30.7,11.8 L27.2,9.5 C26.9,9.3 26.5,9.4 26.3,9.7 C26.1,10 26.2,10.4 26.5,10.6 L30.5,13.2 L30,16.4 L29,18.8 L19.3,14.5 L19.5,10.1 C19.5,9.7 19.2,9.4 18.9,9.4 C18.5,9.4 18.2,9.7 18.2,10 L18,14.3 L12.4,14.1 C12,14.1 11.7,14.4 11.7,14.7 C11.7,15.1 12,15.4 12.3,15.4 L18.4,15.6 L28.7,20.1 L34.6,42.1 L16,31.7 L16.1,29.1 C16.1,29 16.1,28.9 16.1,28.8 L16.1,25.2 C16.1,25.2 16.1,25.2 16.1,25.1 C16.1,25 16.1,24.9 16.1,24.8 L16.1,22.1 C16.1,21.7 15.8,21.4 15.4,21.4 C15.4,21.4 15.4,21.4 15.4,21.4 C15,21.4 14.7,21.7 14.7,22.1 L14.7,24.2 L11.4,23.6 C11,23.5 10.7,23.8 10.6,24.2 C10.5,24.6 10.8,24.9 11.2,25 L14.8,25.6 L14.8,31.6 L12.6,32.5 C12.6,32.5 12.6,32.5 12.6,32.5 L9.6,33.6 L8,29.6 C7.9,29.3 7.5,29.1 7.1,29.2 C6.8,29.3 6.6,29.7 6.7,30.1 L8.3,34.1 L5,35.3 C4.7,35.4 4.5,35.8 4.6,36.2 C4.7,36.5 5.1,36.7 5.5,36.6 L9.2,35.2 C9.3,35.2 9.3,35.2 9.4,35.2 C9.5,35.2 9.5,35.1 9.6,35.1 L12.7,33.9 L35.2,51.1 L35.2,82.9 C35.2,83.3 35.5,83.6 35.9,83.6 L46.9,83.6 C46.9,83.6 46.9,83.6 46.9,83.6 C47.1,83.6 47.2,83.5 47.4,83.4 C47.5,83.3 47.6,83.1 47.6,82.9 L47.6,50.6 L72.4,33.8 L77.3,35.5 L80.2,38.4 C80.3,38.5 80.5,38.6 80.7,38.6 C80.9,38.6 81,38.5 81.2,38.4 C81.2,38.1 81.2,37.7 81,37.4 Z M46.3,49.7 C46.2,49.8 46,50 46,50.3 L46,82.3 L36.4,82.3 L36.4,50.8 C36.4,50.6 36.3,50.4 36.1,50.3 L14.1,33.3 L15.3,32.8 L35.4,44.1 C35.5,44.2 35.6,44.2 35.7,44.2 C35.8,44.2 36,44.2 36.1,44.1 C36.3,43.9 36.4,43.7 36.3,43.4 L30,19.8 L30.8,18.3 L40.5,41.2 C40.6,41.4 40.8,41.6 41.1,41.6 C41.1,41.6 41.1,41.6 41.2,41.6 C41.4,41.6 41.6,41.5 41.8,41.3 L52.7,23.9 L53.1,25.5 L46.3,42.4 C46.2,42.7 46.3,43 46.5,43.1 C46.6,43.2 46.8,43.3 47,43.3 C47.1,43.3 47.2,43.3 47.3,43.2 L68.8,32.7 L70.9,33.3 L46.3,49.7 Z" id="Shape"></path>
                <path d="M17,13 C17.3,12.7 16.1,10.5 14.8,9.2 C13.5,7.9 12.6,7.7 12.2,8.2 C11.7,8.7 11.9,9.5 13.2,10.8 C14.5,12.1 16.7,13.3 17,13 Z" id="Shape"></path>
                <path d="M13.6,23.1 C14,22.9 13.6,20.4 12.8,18.7 C12,17 11.2,16.6 10.6,16.9 C10,17.2 9.9,18 10.7,19.7 C11.5,21.5 13.2,23.3 13.6,23.1 Z" id="Shape"></path>
                <path d="M68.6,28.5 C69.1,28.6 70,26.3 70.2,24.4 C70.4,22.5 70,21.8 69.4,21.7 C68.8,21.6 68.2,22.2 68,24.1 C67.8,26 68.2,28.5 68.6,28.5 Z" id="Shape"></path>
                <path d="M6.2,33.1 C6.5,32.8 5.1,30.7 3.7,29.4 C2.3,28.2 1.4,28.1 1,28.6 C0.6,29.1 0.8,29.9 2.2,31.1 C3.7,32.4 6,33.4 6.2,33.1 Z" id="Shape"></path>
                <path d="M12.5,35.3 C12.2,35.1 10.7,36.4 9.8,37.6 C8.9,38.9 9,39.5 9.4,39.8 C9.8,40.1 10.5,39.9 11.3,38.6 C12.2,37.4 12.8,35.5 12.5,35.3 Z" id="Shape"></path>
                <path d="M29.2,8.8 C29.7,8.8 30.4,6.4 30.4,4.5 C30.4,2.6 29.9,1.9 29.2,1.9 C28.5,1.9 28,2.6 28,4.5 C28,6.4 28.8,8.8 29.2,8.8 Z" id="Shape"></path>
                <path d="M37.7,10.7 C39,9.4 39.2,8.5 38.7,8.1 C38.2,7.7 37.4,7.8 36.1,9.1 C34.8,10.4 33.6,12.7 33.9,12.9 C34.1,13.3 36.3,12.1 37.7,10.7 Z" id="Shape"></path>
                <path d="M49.2,18.4 C49.5,18.1 48.3,15.9 47,14.6 C45.7,13.3 44.8,13.1 44.4,13.6 C43.9,14.1 44.1,14.9 45.4,16.2 C46.7,17.5 48.9,18.7 49.2,18.4 Z" id="Shape"></path>
                <path d="M65,17.8 C66.1,16.7 66.2,16 65.9,15.6 C65.5,15.2 64.8,15.3 63.7,16.4 C62.6,17.5 61.6,19.3 61.8,19.6 C62,19.9 63.9,18.9 65,17.8 Z" id="Shape"></path>
                <path d="M72.6,35.7 C72.3,36 73.2,37.8 74.2,39 C75.2,40.2 75.9,40.3 76.3,40 C76.7,39.7 76.7,38.9 75.6,37.7 C74.5,36.5 72.9,35.4 72.6,35.7 Z" id="Shape"></path>
                <path d="M54,6.2 C54.4,6.3 55.4,4.4 55.7,2.7 C56,1.1 55.7,0.4 55.1,0.3 C54.6,0.2 54,0.7 53.7,2.3 C53.4,4 53.6,6.1 54,6.2 Z" id="Shape"></path>
                <path d="M75.5,26.1 C75.8,26.2 77.1,24.7 77.7,23.4 C78.3,22 78.2,21.4 77.7,21.2 C77.2,21 76.6,21.3 76,22.7 C75.5,24 75.2,25.9 75.5,26.1 Z" id="Shape"></path>
                <path d="M44.4,56.1 C44,56.1 43.7,56.4 43.7,56.8 L43.7,69.9 C43.7,70.3 44,70.6 44.4,70.6 C44.8,70.6 45.1,70.3 45.1,69.9 L45.1,56.8 C45.1,56.4 44.8,56.1 44.4,56.1 Z" id="Shape"></path>
                <path d="M44.4,52.5 C44,52.5 43.7,52.8 43.7,53.2 L43.7,54.7 C43.7,55.1 44,55.4 44.4,55.4 C44.8,55.4 45.1,55.1 45.1,54.7 L45.1,53.2 C45.1,52.8 44.8,52.5 44.4,52.5 Z" id="Shape"></path>
            </g>
        </g>
        <g id="olivetree2-copy-2" transform="translate(11.000000, 62.000000)" fill="#394F49" fill-rule="nonzero">
            <g id="Group">
                <path d="M81,37.4 L78.5,34.9 L80.8,32.9 C81.1,32.7 81.1,32.2 80.9,32 C80.7,31.7 80.2,31.7 80,31.9 L77.5,34.1 L73,32.6 L73.4,28.7 L77.9,28.7 C78.3,28.7 78.6,28.4 78.6,28 C78.6,27.6 78.3,27.3 77.9,27.3 L73.6,27.3 L73.9,25 C73.9,24.6 73.7,24.3 73.3,24.3 C72.9,24.3 72.6,24.5 72.6,24.9 L71.8,32.1 L69.2,31.3 L67.1,27.6 C66.9,27.3 66.5,27.2 66.2,27.4 C65.9,27.6 65.8,28 66,28.3 L67.9,31.6 L48,41.2 L54.1,26 L57.8,24.7 C57.8,24.7 57.9,24.7 57.9,24.6 L60.5,23.7 C60.5,23.7 60.5,23.7 60.5,23.7 C60.5,23.7 60.6,23.7 60.6,23.7 L62.9,22.9 C63.2,22.8 63.4,22.4 63.3,22 C63.2,21.7 62.8,21.5 62.4,21.6 L60.7,22.2 L59.5,18.6 C59.4,18.2 59,18.1 58.7,18.2 C58.3,18.3 58.2,18.7 58.3,19 L59.5,22.7 L54,24.7 L53.5,22 C53.5,22 53.5,22 53.5,22 L52.5,17.5 L55.8,16.6 C56.2,16.5 56.4,16.1 56.3,15.8 C56.2,15.5 55.8,15.2 55.5,15.3 L52.3,16.2 L51.9,15 L53.3,9.2 L56.2,9.2 C56.6,9.2 56.9,8.9 56.9,8.5 C56.9,8.1 56.6,7.8 56.2,7.8 L53.1,7.8 L51,4.1 C50.8,3.8 50.4,3.7 50.1,3.8 C49.8,4 49.7,4.4 49.8,4.7 L52,8.6 L50.5,14.8 C50.5,14.9 50.5,15 50.5,15.1 L52,22.1 L41.2,39.5 L31.5,16.6 L32.4,10.2 C32.5,9.8 32.2,9.5 31.8,9.4 C31.4,9.3 31.1,9.6 31,10 L30.7,11.8 L27.2,9.5 C26.9,9.3 26.5,9.4 26.3,9.7 C26.1,10 26.2,10.4 26.5,10.6 L30.5,13.2 L30,16.4 L29,18.8 L19.3,14.5 L19.5,10.1 C19.5,9.7 19.2,9.4 18.9,9.4 C18.5,9.4 18.2,9.7 18.2,10 L18,14.3 L12.4,14.1 C12,14.1 11.7,14.4 11.7,14.7 C11.7,15.1 12,15.4 12.3,15.4 L18.4,15.6 L28.7,20.1 L34.6,42.1 L16,31.7 L16.1,29.1 C16.1,29 16.1,28.9 16.1,28.8 L16.1,25.2 C16.1,25.2 16.1,25.2 16.1,25.1 C16.1,25 16.1,24.9 16.1,24.8 L16.1,22.1 C16.1,21.7 15.8,21.4 15.4,21.4 C15.4,21.4 15.4,21.4 15.4,21.4 C15,21.4 14.7,21.7 14.7,22.1 L14.7,24.2 L11.4,23.6 C11,23.5 10.7,23.8 10.6,24.2 C10.5,24.6 10.8,24.9 11.2,25 L14.8,25.6 L14.8,31.6 L12.6,32.5 C12.6,32.5 12.6,32.5 12.6,32.5 L9.6,33.6 L8,29.6 C7.9,29.3 7.5,29.1 7.1,29.2 C6.8,29.3 6.6,29.7 6.7,30.1 L8.3,34.1 L5,35.3 C4.7,35.4 4.5,35.8 4.6,36.2 C4.7,36.5 5.1,36.7 5.5,36.6 L9.2,35.2 C9.3,35.2 9.3,35.2 9.4,35.2 C9.5,35.2 9.5,35.1 9.6,35.1 L12.7,33.9 L35.2,51.1 L35.2,82.9 C35.2,83.3 35.5,83.6 35.9,83.6 L46.9,83.6 C46.9,83.6 46.9,83.6 46.9,83.6 C47.1,83.6 47.2,83.5 47.4,83.4 C47.5,83.3 47.6,83.1 47.6,82.9 L47.6,50.6 L72.4,33.8 L77.3,35.5 L80.2,38.4 C80.3,38.5 80.5,38.6 80.7,38.6 C80.9,38.6 81,38.5 81.2,38.4 C81.2,38.1 81.2,37.7 81,37.4 Z M46.3,49.7 C46.2,49.8 46,50 46,50.3 L46,82.3 L36.4,82.3 L36.4,50.8 C36.4,50.6 36.3,50.4 36.1,50.3 L14.1,33.3 L15.3,32.8 L35.4,44.1 C35.5,44.2 35.6,44.2 35.7,44.2 C35.8,44.2 36,44.2 36.1,44.1 C36.3,43.9 36.4,43.7 36.3,43.4 L30,19.8 L30.8,18.3 L40.5,41.2 C40.6,41.4 40.8,41.6 41.1,41.6 C41.1,41.6 41.1,41.6 41.2,41.6 C41.4,41.6 41.6,41.5 41.8,41.3 L52.7,23.9 L53.1,25.5 L46.3,42.4 C46.2,42.7 46.3,43 46.5,43.1 C46.6,43.2 46.8,43.3 47,43.3 C47.1,43.3 47.2,43.3 47.3,43.2 L68.8,32.7 L70.9,33.3 L46.3,49.7 Z" id="Shape"></path>
                <path d="M17,13 C17.3,12.7 16.1,10.5 14.8,9.2 C13.5,7.9 12.6,7.7 12.2,8.2 C11.7,8.7 11.9,9.5 13.2,10.8 C14.5,12.1 16.7,13.3 17,13 Z" id="Shape"></path>
                <path d="M13.6,23.1 C14,22.9 13.6,20.4 12.8,18.7 C12,17 11.2,16.6 10.6,16.9 C10,17.2 9.9,18 10.7,19.7 C11.5,21.5 13.2,23.3 13.6,23.1 Z" id="Shape"></path>
                <path d="M68.6,28.5 C69.1,28.6 70,26.3 70.2,24.4 C70.4,22.5 70,21.8 69.4,21.7 C68.8,21.6 68.2,22.2 68,24.1 C67.8,26 68.2,28.5 68.6,28.5 Z" id="Shape"></path>
                <path d="M6.2,33.1 C6.5,32.8 5.1,30.7 3.7,29.4 C2.3,28.2 1.4,28.1 1,28.6 C0.6,29.1 0.8,29.9 2.2,31.1 C3.7,32.4 6,33.4 6.2,33.1 Z" id="Shape"></path>
                <path d="M12.5,35.3 C12.2,35.1 10.7,36.4 9.8,37.6 C8.9,38.9 9,39.5 9.4,39.8 C9.8,40.1 10.5,39.9 11.3,38.6 C12.2,37.4 12.8,35.5 12.5,35.3 Z" id="Shape"></path>
                <path d="M29.2,8.8 C29.7,8.8 30.4,6.4 30.4,4.5 C30.4,2.6 29.9,1.9 29.2,1.9 C28.5,1.9 28,2.6 28,4.5 C28,6.4 28.8,8.8 29.2,8.8 Z" id="Shape"></path>
                <path d="M37.7,10.7 C39,9.4 39.2,8.5 38.7,8.1 C38.2,7.7 37.4,7.8 36.1,9.1 C34.8,10.4 33.6,12.7 33.9,12.9 C34.1,13.3 36.3,12.1 37.7,10.7 Z" id="Shape"></path>
                <path d="M49.2,18.4 C49.5,18.1 48.3,15.9 47,14.6 C45.7,13.3 44.8,13.1 44.4,13.6 C43.9,14.1 44.1,14.9 45.4,16.2 C46.7,17.5 48.9,18.7 49.2,18.4 Z" id="Shape"></path>
                <path d="M65,17.8 C66.1,16.7 66.2,16 65.9,15.6 C65.5,15.2 64.8,15.3 63.7,16.4 C62.6,17.5 61.6,19.3 61.8,19.6 C62,19.9 63.9,18.9 65,17.8 Z" id="Shape"></path>
                <path d="M72.6,35.7 C72.3,36 73.2,37.8 74.2,39 C75.2,40.2 75.9,40.3 76.3,40 C76.7,39.7 76.7,38.9 75.6,37.7 C74.5,36.5 72.9,35.4 72.6,35.7 Z" id="Shape"></path>
                <path d="M54,6.2 C54.4,6.3 55.4,4.4 55.7,2.7 C56,1.1 55.7,0.4 55.1,0.3 C54.6,0.2 54,0.7 53.7,2.3 C53.4,4 53.6,6.1 54,6.2 Z" id="Shape"></path>
                <path d="M75.5,26.1 C75.8,26.2 77.1,24.7 77.7,23.4 C78.3,22 78.2,21.4 77.7,21.2 C77.2,21 76.6,21.3 76,22.7 C75.5,24 75.2,25.9 75.5,26.1 Z" id="Shape"></path>
                <path d="M44.4,56.1 C44,56.1 43.7,56.4 43.7,56.8 L43.7,69.9 C43.7,70.3 44,70.6 44.4,70.6 C44.8,70.6 45.1,70.3 45.1,69.9 L45.1,56.8 C45.1,56.4 44.8,56.1 44.4,56.1 Z" id="Shape"></path>
                <path d="M44.4,52.5 C44,52.5 43.7,52.8 43.7,53.2 L43.7,54.7 C43.7,55.1 44,55.4 44.4,55.4 C44.8,55.4 45.1,55.1 45.1,54.7 L45.1,53.2 C45.1,52.8 44.8,52.5 44.4,52.5 Z" id="Shape"></path>
            </g>
        </g>
        <text id="Olives" font-family="Avenir-Heavy, Avenir" font-size="16" font-weight="600" fill="#000000">
            <tspan x="302" y="58">Olives</tspan>
        </text>
        <path d="M179.5,76.5 L255.5,76.5" id="Line" stroke="#E3D26F" stroke-linecap="square"></path>
        <path id="Line-decoration-1" d="M255.5,76.5 L244.7,73.5 L244.7,79.5 L255.5,76.5 Z" stroke="#E3D26F" stroke-linecap="square"></path>
        <path d="M406.5,75.5 L482.5,75.5" id="Line" stroke="#E3D26F" stroke-linecap="square"></path>
        <path id="Line-decoration-1" d="M482.5,75.5 L471.7,72.5 L471.7,78.5 L482.5,75.5 Z" stroke="#E3D26F" stroke-linecap="square"></path>
        <path d="M614.495192,76.5 L718.5,76.5" id="Line-Copy" stroke="#E3D26F" stroke-linecap="square"></path>
        <path id="Line-Copy-decoration-1" d="M718.5,76.5 L707.7,73.5 L707.7,79.5 L718.5,76.5 Z" stroke="#E3D26F" stroke-linecap="square"></path>
        <path d="M594.5,259.5 L728.320776,125.679224" id="Line-3" stroke="#443742" stroke-linecap="square"></path>
        <path id="Line-3-decoration-1" d="M728.320776,125.679224 L718.562702,131.194657 L722.805343,135.437298 L728.320776,125.679224 Z" stroke="#443742" stroke-linecap="square"></path>
        <g id="droplet" transform="translate(525.000000, 151.000000)" fill="#443742" fill-rule="nonzero">
            <path d="M9.91935484,0.000724406478 C9.77844476,0.0188924675 9.64733968,0.0840487773 9.54637097,0.186089094 C7.2425629,2.49133938 4.88216452,5.63011684 3.07459677,8.89822942 C1.26702903,12.166342 0,15.5535599 0,18.4548089 C0,24.6870593 4.50980323,29 10,29 C15.4901968,29 20,24.6870593 20,18.4548089 C20,15.5535602 18.7329706,12.166342 16.9254032,8.89822942 C15.1178358,5.63011684 12.757439,2.49133938 10.453629,0.186089094 C10.3271018,0.0608018979 10.1559203,-0.00617075581 9.97983871,0.000724406478 C9.9596885,-0.000241468826 9.93950504,-0.000241468826 9.91935484,0.000724406478 Z M10,1.62781444 C12.0611629,3.78521918 14.181901,6.6097908 15.8064516,9.54700583 C17.5502577,12.6998371 18.7096774,15.9568123 18.7096774,18.4548089 C18.7096774,24.0513366 14.8428742,27.6818511 10,27.6818511 C5.15712581,27.6818511 1.29032258,24.0513366 1.29032258,18.4548089 C1.29032258,15.9568126 2.44974194,12.6998371 4.19354839,9.54700583 C5.81809935,6.6097908 7.93883806,3.78521918 10,1.62781444 Z M4.80846774,15.4889739 C4.59799095,15.4999997 4.40605088,15.6153405 4.29435484,15.797915 C3.67333677,16.8176577 3.22580645,18.3378139 3.22580645,20.102495 C3.22580645,21.2009523 3.4871871,22.3027679 4.04233871,23.1816084 C4.59749032,24.0604489 5.51771387,24.7160161 6.65322581,24.7160161 C7.32618677,24.7160161 7.93095226,24.4997359 8.36693548,24.0775377 C8.80291871,23.6553396 9.03225806,23.0500222 9.03225806,22.4092555 C9.03225806,21.7780461 8.7492229,21.2493735 8.40725806,20.7615694 C8.06529323,20.2737654 7.64331,19.809599 7.22782258,19.3198441 C6.39684774,18.3403342 5.62206903,17.2945403 5.48387097,16.075962 C5.44686406,15.7282184 5.15040168,15.470565 4.80846774,15.4889739 Z M4.77822581,18.0428873 C5.18942484,18.862279 5.73521097,19.5677747 6.25,20.1745813 C6.68054613,20.6820864 7.08684258,21.1355826 7.35887097,21.5236243 C7.63089935,21.9116659 7.74193548,22.2166219 7.74193548,22.4092555 C7.74193548,22.7571005 7.63937484,22.9756262 7.47983871,23.1301182 C7.32030258,23.2846102 7.07201935,23.3978672 6.65322581,23.3978672 C5.97726645,23.3978672 5.50255484,23.0648227 5.12096774,22.4607457 C4.73938065,21.8566687 4.51612903,20.981261 4.51612903,20.102495 C4.51612903,19.3519163 4.6228429,18.6514105 4.77822581,18.0428873 Z" id="Shape"></path>
        </g>
        <g id="droplet-copy" transform="translate(545.000000, 180.000000)" fill="#443742" fill-rule="nonzero">
            <path d="M9.91935484,0.000699426944 C9.77844476,0.0182410031 9.64733968,0.0811505436 9.54637097,0.179672229 C7.2425629,2.40543113 4.88216452,5.43597488 3.07459677,8.59139392 C1.26702903,11.746813 0,15.0172302 0,17.8184362 C0,23.8357814 4.50980323,28 10,28 C15.4901968,28 20,23.8357814 20,17.8184362 C20,15.0172305 18.7329706,11.746813 16.9254032,8.59139392 C15.1178358,5.43597488 12.757439,2.40543113 10.453629,0.179672229 C10.3271018,0.0587052807 10.1559203,-0.00595797113 9.97983871,0.000699426944 C9.9596885,-0.000233142315 9.93950504,-0.000233142315 9.91935484,0.000699426944 Z M10,1.57168291 C12.0611629,3.65469438 14.181901,6.38186698 15.8064516,9.21779873 C17.5502577,12.2619116 18.7096774,15.4065774 18.7096774,17.8184362 C18.7096774,23.2219801 14.8428742,26.7273045 10,26.7273045 C5.15712581,26.7273045 1.29032258,23.2219801 1.29032258,17.8184362 C1.29032258,15.4065777 2.44974194,12.2619116 4.19354839,9.21779873 C5.81809935,6.38186698 7.93883806,3.65469438 10,1.57168291 Z M4.80846774,14.9548713 C4.59799095,14.965517 4.40605088,15.0768805 4.29435484,15.2531593 C3.67333677,16.2377385 3.22580645,17.7054755 3.22580645,19.4093055 C3.22580645,20.469885 3.4871871,21.5337069 4.04233871,22.3822426 C4.59749032,23.2307783 5.51771387,23.8637397 6.65322581,23.8637397 C7.32618677,23.8637397 7.93095226,23.6549174 8.36693548,23.2472778 C8.80291871,22.8396382 9.03225806,22.2551939 9.03225806,21.6365226 C9.03225806,21.027079 8.7492229,20.5166365 8.40725806,20.0456532 C8.06529323,19.57467 7.64331,19.1265094 7.22782258,18.6536426 C6.39684774,17.7079089 5.62206903,16.6981768 5.48387097,15.5216185 C5.44686406,15.185866 5.15040168,14.9370972 4.80846774,14.9548713 Z M4.77822581,17.4207188 C5.18942484,18.2118556 5.73521097,18.8930239 6.25,19.478906 C6.68054613,19.968911 7.08684258,20.4067695 7.35887097,20.7814303 C7.63089935,21.1560912 7.74193548,21.4505315 7.74193548,21.6365226 C7.74193548,21.9723729 7.63937484,22.1833633 7.47983871,22.3325279 C7.32030258,22.4816926 7.07201935,22.5910442 6.65322581,22.5910442 C5.97726645,22.5910442 5.50255484,22.269484 5.12096774,21.6862373 C4.73938065,21.1029905 4.51612903,20.2577693 4.51612903,19.4093055 C4.51612903,18.6846088 4.6228429,18.0082584 4.77822581,17.4207188 Z" id="Shape"></path>
        </g>
        <g id="droplet-copy-2" transform="translate(522.000000, 204.000000)" fill="#443742" fill-rule="nonzero">
            <path d="M9.4233871,0.000674447411 C9.28952252,0.0175895387 9.16497269,0.0782523099 9.06905242,0.173255364 C6.88043476,2.31952287 4.63805629,5.24183292 2.92086694,8.28455842 C1.20367758,11.3272839 0,14.4809006 0,17.1820634 C0,22.9845035 4.28431306,27 9.5,27 C14.7156869,27 19,22.9845035 19,17.1820634 C19,14.4809009 17.7963221,11.3272839 16.0791331,8.28455842 C14.361944,5.24183292 12.1195671,2.31952287 9.93094758,0.173255364 C9.81074669,0.0566086636 9.64812432,-0.00574518645 9.48084677,0.000674447411 C9.46170408,-0.000224815804 9.44252979,-0.000224815804 9.4233871,0.000674447411 Z M9.5,1.51555138 C11.4581048,3.52416958 13.4728059,6.15394316 15.016129,8.88859163 C16.6727449,11.8239862 17.7741935,14.8563425 17.7741935,17.1820634 C17.7741935,22.3926237 14.1007305,25.7727579 9.5,25.7727579 C4.89926952,25.7727579 1.22580645,22.3926237 1.22580645,17.1820634 C1.22580645,14.8563428 2.32725484,11.8239862 3.98387097,8.88859163 C5.52719439,6.15394316 7.54189616,3.52416958 9.5,1.51555138 Z M4.56804435,14.4207688 C4.3680914,14.4310342 4.18574834,14.5384205 4.0796371,14.7084036 C3.48966994,15.6578193 3.06451613,17.0731371 3.06451613,18.716116 C3.06451613,19.7388176 3.31282774,20.764646 3.84022177,21.5828768 C4.36761581,22.4011076 5.24182818,23.0114633 6.32056452,23.0114633 C6.95987744,23.0114633 7.53440465,22.8100989 7.94858871,22.4170179 C8.36277277,22.0239369 8.58064516,21.4603655 8.58064516,20.8637896 C8.58064516,20.2761119 8.31176176,19.7838995 7.98689516,19.3297371 C7.66202856,18.8755747 7.2611445,18.4434198 6.86643145,17.987441 C6.07700535,17.0754836 5.34096558,16.1018134 5.20967742,14.967275 C5.17452086,14.6435137 4.8928816,14.4036295 4.56804435,14.4207688 Z M4.53931452,16.7985503 C4.9299536,17.5614322 5.44845042,18.218273 5.9375,18.7832308 C6.34651882,19.2557356 6.73250045,19.6779563 6.99092742,20.0392364 C7.24935439,20.4005165 7.35483871,20.6844411 7.35483871,20.8637896 C7.35483871,21.1876453 7.2574061,21.3911003 7.10584677,21.5349377 C6.95428745,21.678775 6.71841839,21.7842212 6.32056452,21.7842212 C5.67840313,21.7842212 5.2274271,21.4741453 4.86491935,20.9117288 C4.50241161,20.3493123 4.29032258,19.5342775 4.29032258,18.716116 C4.29032258,18.0173014 4.39170076,17.3651063 4.53931452,16.7985503 Z" id="Shape"></path>
        </g>
        <text id="Refinery" font-family="Avenir-Heavy, Avenir" font-size="16" font-weight="600" fill="#000000">
            <tspan x="507" y="361">Refinery</tspan>
        </text>
        <text id="Final-consumers" font-family="Avenir-Heavy, Avenir" font-size="16" font-weight="600" fill="#000000">
            <tspan x="1024.86" y="127">Final </tspan>
            <tspan x="1002.812" y="149">consumers</tspan>
        </text>
        <g id="oobottle" transform="translate(755.000000, 56.000000)" fill="#E3D26F" fill-rule="nonzero">
            <g id="Group" transform="translate(0.966000, 0.354000)">
                <path d="M9.476,0.646 C12.355,0.646 14.664,1.376 14.664,2.97 L14.664,6.124 C14.643,6.827 14.176,7.399 13.53,7.663 C13.533,8.166 13.53,7.698 13.569,9.068 C13.581,9.361 14.12,10.257 16.021,13.157 C16.149,13.353 16.197,13.426 16.278,13.549 C18.048,16.267 18.8,17.673 18.8,18.771 C18.8,19.641 18.831,25.626 18.883,34.965 C18.901,38.236 18.921,41.693 18.94,45.12 C18.951,47.059 18.951,47.059 18.959,48.422 C18.965,49.442 18.965,49.442 18.966,49.674 C18.966,50.85 18.112,52.224 16.719,52.466 C16.651,52.485 16.651,52.485 16.344,52.567 C15.935,52.678 15.935,52.678 15.354,52.834 C14.33,53.111 13.303,53.387 12.343,53.645 L12.304,53.655 C9.659,54.366 8.089,54.783 7.861,54.832 C7.078,54.999 6.099,54.809 5.37,54.308 C5.054,54.09 4.755,53.884 4.369,53.613 C3.781,53.2 3.212,52.793 2.691,52.41 C0.47,50.778 0.034,50.413 0.034,49.668 C0.035,49.442 0.035,49.442 0.041,48.422 C0.049,47.059 0.049,47.059 0.06,45.12 C0.079,41.693 0.099,38.236 0.117,34.965 C0.119,34.564 0.119,34.564 0.121,34.163 C0.171,25.271 0.2,19.614 0.2,18.771 C0.2,17.673 0.952,16.267 2.722,13.549 C2.803,13.426 2.851,13.353 2.979,13.157 C4.88,10.257 5.419,9.361 5.431,9.068 C5.443,8.617 5.456,8.166 5.469,7.715 C5.469,7.713 5.469,7.712 5.469,7.71 C4.735,7.513 4.456,6.84 4.335,6.179 L4.335,2.97 C4.336,1.377 6.611,0.646 9.476,0.646 Z M11.545,8.26 C10.179,8.466 10.869,8.403 9.476,8.448 C8.093,8.407 8.766,8.466 7.454,8.278 L7.429,9.149 C7.393,10.04 7.157,10.432 4.651,14.253 C4.525,14.447 4.477,14.519 4.398,14.641 C2.934,16.889 2.2,18.26 2.2,18.771 C2.2,19.62 2.171,25.27 2.121,34.174 C2.119,34.575 2.119,34.575 2.117,34.976 C2.099,38.247 2.079,41.705 2.06,45.131 C2.049,47.07 2.049,47.07 2.041,48.433 C2.037,49.132 2.039,48.829 2.036,49.343 C2.194,49.494 2.087,49.394 2.365,49.634 C2.732,49.941 3.248,50.337 3.876,50.799 C4.384,51.172 4.941,51.571 5.518,51.976 C5.898,52.242 6.191,52.446 6.503,52.66 C6.777,52.848 7.194,52.929 7.442,52.876 C7.615,52.839 9.283,52.396 11.785,51.724 L11.824,51.713 C12.784,51.456 13.81,51.18 14.833,50.903 C15.414,50.747 15.414,50.747 15.823,50.637 C16.13,50.554 16.13,50.554 16.285,50.516 C16.672,50.448 16.966,49.974 16.966,49.679 C16.965,49.454 16.965,49.454 16.959,48.433 C16.951,47.07 16.951,47.07 16.94,45.131 L16.934,44.097 C15.438,44.506 13.941,44.916 12.444,45.325 C8.463,46.414 8.463,46.414 7.135,46.777 L6.908,46.839 L6.716,46.704 C6.318,46.424 5.92,46.145 5.522,45.865 C4.861,45.401 4.201,44.937 3.54,44.473 L3.329,44.324 L3.327,44.066 C3.325,43.438 3.325,43.438 3.313,40.923 C3.299,37.779 3.299,37.779 3.282,34.002 L3.281,33.968 C3.253,27.649 3.236,23.909 3.236,23.868 L3.236,23.069 L3.954,23.419 C4.371,23.622 4.371,23.622 5.621,24.229 C6.127,24.476 6.633,24.722 7.139,24.968 C7.597,24.877 8.052,24.762 8.506,24.652 C8.96,24.541 9.31,24.289 10.522,23.277 C11.642,22.342 12.288,21.912 13.068,21.72 L13.875,21.668 L14.814,21.863 C15.046,21.932 15.275,22.012 15.589,22.129 C16.401,22.426 15.992,22.291 16.816,22.534 C16.81,21.28 16.802,20.025 16.8,18.771 C16.8,18.26 16.066,16.889 14.602,14.641 C14.523,14.519 14.475,14.447 14.348,14.253 C11.843,10.432 11.607,10.04 11.571,9.15 L11.545,8.26 Z M13.831,22.669 L13.307,22.691 C12.728,22.834 12.165,23.208 11.163,24.044 C9.79,25.19 9.419,25.457 8.746,25.623 C8.218,25.753 7.809,25.848 7.503,25.913 C7.315,25.953 7.201,25.975 7.146,25.983 L6.991,26.008 L6.849,25.939 C6.433,25.737 6.433,25.737 5.183,25.129 C4.593,24.842 4.908,24.995 4.239,24.669 C4.253,27.767 4.267,30.866 4.281,33.964 C4.282,33.981 4.282,33.981 4.282,33.998 C4.299,37.774 4.299,37.774 4.313,40.918 C4.317,41.88 4.322,42.841 4.326,43.803 C4.654,44.033 4.982,44.263 5.309,44.493 C5.906,44.912 6.502,45.331 7.099,45.75 C8.793,45.287 10.486,44.824 12.18,44.36 C13.763,43.927 15.346,43.495 16.928,43.062 C16.902,38.322 16.917,41.017 16.883,34.976 C16.862,31.163 16.841,27.35 16.821,23.537 C15.768,23.297 16.296,23.451 15.24,23.066 C14.945,22.956 14.733,22.882 14.527,22.82 L13.831,22.669 Z M6.335,3.984 L6.335,5.927 C6.584,6.063 6.425,5.985 6.828,6.131 C7.487,6.33 8.433,6.448 9.476,6.448 C10.505,6.448 11.46,6.321 12.136,6.107 C12.56,5.948 12.388,6.033 12.664,5.879 L12.664,3.984 C11.698,4.498 10.567,4.508 9.5,4.55 C8.414,4.56 7.335,4.414 6.335,3.984 Z M9.476,2.646 C8.449,2.646 7.506,2.773 6.844,2.986 L6.643,3.06 C8.528,3.571 7.576,3.41 9.5,3.55 C11.42,3.41 10.471,3.571 12.345,3.064 L12.136,2.987 C11.46,2.774 10.505,2.646 9.476,2.646 Z" id="Shape"></path>
            </g>
        </g>
        <g id="oobottle-copy" transform="translate(788.000000, 56.000000)" fill="#E3D26F" fill-rule="nonzero">
            <g id="Group" transform="translate(0.966000, 0.354000)">
                <path d="M9.476,0.646 C12.355,0.646 14.664,1.376 14.664,2.97 L14.664,6.124 C14.643,6.827 14.176,7.399 13.53,7.663 C13.533,8.166 13.53,7.698 13.569,9.068 C13.581,9.361 14.12,10.257 16.021,13.157 C16.149,13.353 16.197,13.426 16.278,13.549 C18.048,16.267 18.8,17.673 18.8,18.771 C18.8,19.641 18.831,25.626 18.883,34.965 C18.901,38.236 18.921,41.693 18.94,45.12 C18.951,47.059 18.951,47.059 18.959,48.422 C18.965,49.442 18.965,49.442 18.966,49.674 C18.966,50.85 18.112,52.224 16.719,52.466 C16.651,52.485 16.651,52.485 16.344,52.567 C15.935,52.678 15.935,52.678 15.354,52.834 C14.33,53.111 13.303,53.387 12.343,53.645 L12.304,53.655 C9.659,54.366 8.089,54.783 7.861,54.832 C7.078,54.999 6.099,54.809 5.37,54.308 C5.054,54.09 4.755,53.884 4.369,53.613 C3.781,53.2 3.212,52.793 2.691,52.41 C0.47,50.778 0.034,50.413 0.034,49.668 C0.035,49.442 0.035,49.442 0.041,48.422 C0.049,47.059 0.049,47.059 0.06,45.12 C0.079,41.693 0.099,38.236 0.117,34.965 C0.119,34.564 0.119,34.564 0.121,34.163 C0.171,25.271 0.2,19.614 0.2,18.771 C0.2,17.673 0.952,16.267 2.722,13.549 C2.803,13.426 2.851,13.353 2.979,13.157 C4.88,10.257 5.419,9.361 5.431,9.068 C5.443,8.617 5.456,8.166 5.469,7.715 C5.469,7.713 5.469,7.712 5.469,7.71 C4.735,7.513 4.456,6.84 4.335,6.179 L4.335,2.97 C4.336,1.377 6.611,0.646 9.476,0.646 Z M11.545,8.26 C10.179,8.466 10.869,8.403 9.476,8.448 C8.093,8.407 8.766,8.466 7.454,8.278 L7.429,9.149 C7.393,10.04 7.157,10.432 4.651,14.253 C4.525,14.447 4.477,14.519 4.398,14.641 C2.934,16.889 2.2,18.26 2.2,18.771 C2.2,19.62 2.171,25.27 2.121,34.174 C2.119,34.575 2.119,34.575 2.117,34.976 C2.099,38.247 2.079,41.705 2.06,45.131 C2.049,47.07 2.049,47.07 2.041,48.433 C2.037,49.132 2.039,48.829 2.036,49.343 C2.194,49.494 2.087,49.394 2.365,49.634 C2.732,49.941 3.248,50.337 3.876,50.799 C4.384,51.172 4.941,51.571 5.518,51.976 C5.898,52.242 6.191,52.446 6.503,52.66 C6.777,52.848 7.194,52.929 7.442,52.876 C7.615,52.839 9.283,52.396 11.785,51.724 L11.824,51.713 C12.784,51.456 13.81,51.18 14.833,50.903 C15.414,50.747 15.414,50.747 15.823,50.637 C16.13,50.554 16.13,50.554 16.285,50.516 C16.672,50.448 16.966,49.974 16.966,49.679 C16.965,49.454 16.965,49.454 16.959,48.433 C16.951,47.07 16.951,47.07 16.94,45.131 L16.934,44.097 C15.438,44.506 13.941,44.916 12.444,45.325 C8.463,46.414 8.463,46.414 7.135,46.777 L6.908,46.839 L6.716,46.704 C6.318,46.424 5.92,46.145 5.522,45.865 C4.861,45.401 4.201,44.937 3.54,44.473 L3.329,44.324 L3.327,44.066 C3.325,43.438 3.325,43.438 3.313,40.923 C3.299,37.779 3.299,37.779 3.282,34.002 L3.281,33.968 C3.253,27.649 3.236,23.909 3.236,23.868 L3.236,23.069 L3.954,23.419 C4.371,23.622 4.371,23.622 5.621,24.229 C6.127,24.476 6.633,24.722 7.139,24.968 C7.597,24.877 8.052,24.762 8.506,24.652 C8.96,24.541 9.31,24.289 10.522,23.277 C11.642,22.342 12.288,21.912 13.068,21.72 L13.875,21.668 L14.814,21.863 C15.046,21.932 15.275,22.012 15.589,22.129 C16.401,22.426 15.992,22.291 16.816,22.534 C16.81,21.28 16.802,20.025 16.8,18.771 C16.8,18.26 16.066,16.889 14.602,14.641 C14.523,14.519 14.475,14.447 14.348,14.253 C11.843,10.432 11.607,10.04 11.571,9.15 L11.545,8.26 Z M13.831,22.669 L13.307,22.691 C12.728,22.834 12.165,23.208 11.163,24.044 C9.79,25.19 9.419,25.457 8.746,25.623 C8.218,25.753 7.809,25.848 7.503,25.913 C7.315,25.953 7.201,25.975 7.146,25.983 L6.991,26.008 L6.849,25.939 C6.433,25.737 6.433,25.737 5.183,25.129 C4.593,24.842 4.908,24.995 4.239,24.669 C4.253,27.767 4.267,30.866 4.281,33.964 C4.282,33.981 4.282,33.981 4.282,33.998 C4.299,37.774 4.299,37.774 4.313,40.918 C4.317,41.88 4.322,42.841 4.326,43.803 C4.654,44.033 4.982,44.263 5.309,44.493 C5.906,44.912 6.502,45.331 7.099,45.75 C8.793,45.287 10.486,44.824 12.18,44.36 C13.763,43.927 15.346,43.495 16.928,43.062 C16.902,38.322 16.917,41.017 16.883,34.976 C16.862,31.163 16.841,27.35 16.821,23.537 C15.768,23.297 16.296,23.451 15.24,23.066 C14.945,22.956 14.733,22.882 14.527,22.82 L13.831,22.669 Z M6.335,3.984 L6.335,5.927 C6.584,6.063 6.425,5.985 6.828,6.131 C7.487,6.33 8.433,6.448 9.476,6.448 C10.505,6.448 11.46,6.321 12.136,6.107 C12.56,5.948 12.388,6.033 12.664,5.879 L12.664,3.984 C11.698,4.498 10.567,4.508 9.5,4.55 C8.414,4.56 7.335,4.414 6.335,3.984 Z M9.476,2.646 C8.449,2.646 7.506,2.773 6.844,2.986 L6.643,3.06 C8.528,3.571 7.576,3.41 9.5,3.55 C11.42,3.41 10.471,3.571 12.345,3.064 L12.136,2.987 C11.46,2.774 10.505,2.646 9.476,2.646 Z" id="Shape"></path>
            </g>
        </g>
        <g id="oobottle-copy-2" transform="translate(821.000000, 56.000000)" fill="#443742" fill-rule="nonzero">
            <g id="Group" transform="translate(0.966000, 0.354000)">
                <path d="M9.476,0.646 C12.355,0.646 14.664,1.376 14.664,2.97 L14.664,6.124 C14.643,6.827 14.176,7.399 13.53,7.663 C13.533,8.166 13.53,7.698 13.569,9.068 C13.581,9.361 14.12,10.257 16.021,13.157 C16.149,13.353 16.197,13.426 16.278,13.549 C18.048,16.267 18.8,17.673 18.8,18.771 C18.8,19.641 18.831,25.626 18.883,34.965 C18.901,38.236 18.921,41.693 18.94,45.12 C18.951,47.059 18.951,47.059 18.959,48.422 C18.965,49.442 18.965,49.442 18.966,49.674 C18.966,50.85 18.112,52.224 16.719,52.466 C16.651,52.485 16.651,52.485 16.344,52.567 C15.935,52.678 15.935,52.678 15.354,52.834 C14.33,53.111 13.303,53.387 12.343,53.645 L12.304,53.655 C9.659,54.366 8.089,54.783 7.861,54.832 C7.078,54.999 6.099,54.809 5.37,54.308 C5.054,54.09 4.755,53.884 4.369,53.613 C3.781,53.2 3.212,52.793 2.691,52.41 C0.47,50.778 0.034,50.413 0.034,49.668 C0.035,49.442 0.035,49.442 0.041,48.422 C0.049,47.059 0.049,47.059 0.06,45.12 C0.079,41.693 0.099,38.236 0.117,34.965 C0.119,34.564 0.119,34.564 0.121,34.163 C0.171,25.271 0.2,19.614 0.2,18.771 C0.2,17.673 0.952,16.267 2.722,13.549 C2.803,13.426 2.851,13.353 2.979,13.157 C4.88,10.257 5.419,9.361 5.431,9.068 C5.443,8.617 5.456,8.166 5.469,7.715 C5.469,7.713 5.469,7.712 5.469,7.71 C4.735,7.513 4.456,6.84 4.335,6.179 L4.335,2.97 C4.336,1.377 6.611,0.646 9.476,0.646 Z M11.545,8.26 C10.179,8.466 10.869,8.403 9.476,8.448 C8.093,8.407 8.766,8.466 7.454,8.278 L7.429,9.149 C7.393,10.04 7.157,10.432 4.651,14.253 C4.525,14.447 4.477,14.519 4.398,14.641 C2.934,16.889 2.2,18.26 2.2,18.771 C2.2,19.62 2.171,25.27 2.121,34.174 C2.119,34.575 2.119,34.575 2.117,34.976 C2.099,38.247 2.079,41.705 2.06,45.131 C2.049,47.07 2.049,47.07 2.041,48.433 C2.037,49.132 2.039,48.829 2.036,49.343 C2.194,49.494 2.087,49.394 2.365,49.634 C2.732,49.941 3.248,50.337 3.876,50.799 C4.384,51.172 4.941,51.571 5.518,51.976 C5.898,52.242 6.191,52.446 6.503,52.66 C6.777,52.848 7.194,52.929 7.442,52.876 C7.615,52.839 9.283,52.396 11.785,51.724 L11.824,51.713 C12.784,51.456 13.81,51.18 14.833,50.903 C15.414,50.747 15.414,50.747 15.823,50.637 C16.13,50.554 16.13,50.554 16.285,50.516 C16.672,50.448 16.966,49.974 16.966,49.679 C16.965,49.454 16.965,49.454 16.959,48.433 C16.951,47.07 16.951,47.07 16.94,45.131 L16.934,44.097 C15.438,44.506 13.941,44.916 12.444,45.325 C8.463,46.414 8.463,46.414 7.135,46.777 L6.908,46.839 L6.716,46.704 C6.318,46.424 5.92,46.145 5.522,45.865 C4.861,45.401 4.201,44.937 3.54,44.473 L3.329,44.324 L3.327,44.066 C3.325,43.438 3.325,43.438 3.313,40.923 C3.299,37.779 3.299,37.779 3.282,34.002 L3.281,33.968 C3.253,27.649 3.236,23.909 3.236,23.868 L3.236,23.069 L3.954,23.419 C4.371,23.622 4.371,23.622 5.621,24.229 C6.127,24.476 6.633,24.722 7.139,24.968 C7.597,24.877 8.052,24.762 8.506,24.652 C8.96,24.541 9.31,24.289 10.522,23.277 C11.642,22.342 12.288,21.912 13.068,21.72 L13.875,21.668 L14.814,21.863 C15.046,21.932 15.275,22.012 15.589,22.129 C16.401,22.426 15.992,22.291 16.816,22.534 C16.81,21.28 16.802,20.025 16.8,18.771 C16.8,18.26 16.066,16.889 14.602,14.641 C14.523,14.519 14.475,14.447 14.348,14.253 C11.843,10.432 11.607,10.04 11.571,9.15 L11.545,8.26 Z M13.831,22.669 L13.307,22.691 C12.728,22.834 12.165,23.208 11.163,24.044 C9.79,25.19 9.419,25.457 8.746,25.623 C8.218,25.753 7.809,25.848 7.503,25.913 C7.315,25.953 7.201,25.975 7.146,25.983 L6.991,26.008 L6.849,25.939 C6.433,25.737 6.433,25.737 5.183,25.129 C4.593,24.842 4.908,24.995 4.239,24.669 C4.253,27.767 4.267,30.866 4.281,33.964 C4.282,33.981 4.282,33.981 4.282,33.998 C4.299,37.774 4.299,37.774 4.313,40.918 C4.317,41.88 4.322,42.841 4.326,43.803 C4.654,44.033 4.982,44.263 5.309,44.493 C5.906,44.912 6.502,45.331 7.099,45.75 C8.793,45.287 10.486,44.824 12.18,44.36 C13.763,43.927 15.346,43.495 16.928,43.062 C16.902,38.322 16.917,41.017 16.883,34.976 C16.862,31.163 16.841,27.35 16.821,23.537 C15.768,23.297 16.296,23.451 15.24,23.066 C14.945,22.956 14.733,22.882 14.527,22.82 L13.831,22.669 Z M6.335,3.984 L6.335,5.927 C6.584,6.063 6.425,5.985 6.828,6.131 C7.487,6.33 8.433,6.448 9.476,6.448 C10.505,6.448 11.46,6.321 12.136,6.107 C12.56,5.948 12.388,6.033 12.664,5.879 L12.664,3.984 C11.698,4.498 10.567,4.508 9.5,4.55 C8.414,4.56 7.335,4.414 6.335,3.984 Z M9.476,2.646 C8.449,2.646 7.506,2.773 6.844,2.986 L6.643,3.06 C8.528,3.571 7.576,3.41 9.5,3.55 C11.42,3.41 10.471,3.571 12.345,3.064 L12.136,2.987 C11.46,2.774 10.505,2.646 9.476,2.646 Z" id="Shape"></path>
            </g>
        </g>
        <text id="Bottler" font-family="Helvetica-Bold, Helvetica" font-size="16" font-weight="bold" fill="#000000">
            <tspan x="775" y="36">Bottler</tspan>
        </text>
        <text id="Extra-virgin-&amp;-virgi" font-family="Avenir-Book, Avenir" font-size="14" font-weight="normal" fill="#000000">
            <tspan x="615" y="70">Extra virgin &amp;</tspan>
            <tspan x="615" y="89">virgin olive oil</tspan>
        </text>
        <text id="Pomace-and-lampante" font-family="Avenir-Book, Avenir" font-size="14" font-weight="normal" fill="#000000">
            <tspan x="424" y="183">Pomace and </tspan>
            <tspan x="424" y="202">lampante oil</tspan>
        </text>
        <path d="" id="Path-2" stroke="#979797"></path>
        <path d="M910,27 C910,58.647625 910,90.2952499 910,121.942875 L910,121.942875 C910,127.463828 912.282207,132.739205 916.306022,136.519396 L938,156.8999 L938,176" id="Path-3" stroke="#443742" transform="translate(924.000000, 101.500000) rotate(270.000000) translate(-924.000000, -101.500000) "></path>
        <path d="M910.798256,-22 C910.532448,9.60652819 910.26664,41.2130564 910.000832,72.8195846 L910.000832,72.8195846 C909.953891,78.401332 912.241742,83.7487221 916.311381,87.5692128 L938,107.93003 L938,127" id="Path-3-Copy" stroke="#E3D26F" transform="translate(924.000000, 52.500000) scale(-1, 1) rotate(90.000000) translate(-924.000000, -52.500000) "></path>
        <text id="Extra-Virgin-Olive-O" font-family="Avenir-Book, Avenir" font-size="10" font-weight="normal" fill="#000000">
            <tspan x="855" y="36">Extra Virgin Olive Oil</tspan>
        </text>
        <path d="M998.5,76.5 L849.5,76.5" id="Line-2" stroke="#E3D26F" stroke-linecap="square"></path>
        <text id="Virgin-Olive-Oil" font-family="Avenir-Book, Avenir" font-size="10" font-weight="normal" fill="#000000">
            <tspan x="866" y="72">Virgin Olive Oil</tspan>
        </text>
        <text id="Olive-Oil" font-family="Avenir-Book, Avenir" font-size="10" font-weight="normal" fill="#000000">
            <tspan x="878" y="112">Olive Oil</tspan>
        </text>
        <g id="chef" transform="translate(1013.000000, 35.000000)" fill="#394F49" fill-rule="nonzero">
            <g id="Group">
                <path d="M2.38374178,50.4325269 C2.4276689,50.4325269 2.47215207,50.4311828 2.51691326,50.4287634 C3.74298058,50.3594086 4.67851722,49.3413978 4.60651009,48.1561828 C4.49780434,46.3685484 4.44859484,44.7405914 4.44915088,43.2583333 C4.43942019,36.7478495 5.4211081,33.0905914 6.38555879,31.1825269 L6.38555879,71.5053763 C6.38555879,73.3413978 7.92495443,74.8287634 9.8227176,74.8287634 C11.7210368,74.8287634 13.2604324,73.3413978 13.2604324,71.5053763 L13.2604324,47.2389785 L14.5490542,47.2389785 L14.5490542,71.5053763 C14.5490542,73.3413978 16.0884499,74.8287634 17.986213,74.8287634 C19.8845322,74.8287634 21.4239279,73.3413978 21.4239279,71.5053763 L21.4239279,31.1951613 C21.5885156,31.5217742 21.7544934,31.8965054 21.917969,32.3336022 C22.7014288,34.4336022 23.3606138,37.8795699 23.3586677,43.2580645 C23.3586677,44.7403226 23.3091801,46.3693548 23.2018645,48.1569892 C23.1301354,49.3427419 24.0662281,50.3602151 25.2928514,50.4295699 C25.3362225,50.4319892 25.3801496,50.4333333 25.4232427,50.4333333 C26.592872,50.4333333 27.5740039,49.5510753 27.6429528,48.4072581 C27.7547168,46.544086 27.8069845,44.8325269 27.8069845,43.2583333 C27.7950296,35.1448925 26.4555302,30.6545699 24.6281061,27.9543011 C23.714811,26.6139785 22.6461029,25.7543011 21.6594106,25.2782258 C20.7274883,24.8239247 19.9070518,24.7147849 19.4032799,24.7051075 C19.3604649,24.7026882 19.3179279,24.6989247 19.2751128,24.6989247 L17.5433275,24.6989247 L18.0048403,22.961828 L14.5090194,24.0680108 L14.5090194,26.344086 L13.3969402,26.344086 L13.3969402,24.0989247 L9.80325621,22.9615591 L10.2647691,24.6986559 L8.5338178,24.6986559 C8.49211483,24.6986559 8.45180196,24.7024194 8.41065503,24.7045699 C7.90716117,24.7137097 7.08366652,24.8217742 6.1484079,25.2776882 C4.65293939,25.9943548 3.04014653,27.563172 1.91249821,30.3424731 C0.770392869,33.1327957 0.00389227722,37.1666667 0,43.2580645 C0,44.8322581 0.0525457424,46.5443548 0.166255841,48.4083333 C0.235204752,49.5508065 1.21522455,50.4325269 2.38374178,50.4325269 Z M11.0198709,41.3083333 C11.5189164,41.3083333 11.9234352,41.6994624 11.9234352,42.1819892 C11.9234352,42.6645161 11.5189164,43.0556452 11.0198709,43.0556452 C10.5208253,43.0556452 10.1163065,42.6645161 10.1163065,42.1819892 C10.1163065,41.6994624 10.5208253,41.3083333 11.0198709,41.3083333 Z M10.1163065,36.0663978 C10.1163065,35.583871 10.5208253,35.1927419 11.0198709,35.1927419 C11.5189164,35.1927419 11.9234352,35.583871 11.9234352,36.0663978 C11.9234352,36.5489247 11.5189164,36.9400538 11.0198709,36.9400538 C10.5208253,36.9400538 10.1163065,36.5489247 10.1163065,36.0663978 Z M10.1163065,29.9508065 C10.1163065,29.4682796 10.5208253,29.0771505 11.0198709,29.0771505 C11.5189164,29.0771505 11.9234352,29.4682796 11.9234352,29.9508065 C11.9234352,30.4333333 11.5189164,30.8244624 11.0198709,30.8244624 C10.5208253,30.8244624 10.1163065,30.4333333 10.1163065,29.9508065 Z M16.7887817,41.3083333 C17.2878273,41.3083333 17.6923461,41.6994624 17.6923461,42.1819892 C17.6923461,42.6645161 17.2878273,43.0556452 16.7887817,43.0556452 C16.2897362,43.0556452 15.8852174,42.6645161 15.8852174,42.1819892 C15.8852174,41.6994624 16.2897362,41.3083333 16.7887817,41.3083333 Z M16.7887817,36.9400538 C16.2897362,36.9400538 15.8852174,36.5489247 15.8852174,36.0663978 C15.8852174,35.583871 16.2897362,35.1927419 16.7887817,35.1927419 C17.2878273,35.1927419 17.6923461,35.583871 17.6923461,36.0663978 C17.6923461,36.5489247 17.2878273,36.9400538 16.7887817,36.9400538 Z M15.8852174,29.9508065 C15.8852174,29.4682796 16.2897362,29.0771505 16.7887817,29.0771505 C17.2878273,29.0771505 17.6923461,29.4682796 17.6923461,29.9508065 C17.6923461,30.4333333 17.2878273,30.8244624 16.7887817,30.8244624 C16.2897362,30.8244624 15.8852174,30.4333333 15.8852174,29.9508065 Z" id="Shape"></path>
                <path d="M8.33419958,14.3669355 C7.89715245,15.1924731 7.64888077,16.1271505 7.64888077,17.1182796 C7.64888077,20.4591398 10.4496522,23.1666667 13.9043263,23.1666667 C17.3590003,23.1666667 20.1597718,20.4591398 20.1597718,17.1182796 C20.1597718,16.1268817 19.9115001,15.1924731 19.474453,14.3669355 C18.5447548,14.0577957 16.0220031,13.2892473 13.9043263,13.2892473 C11.7866495,13.2892473 9.26361978,14.0575269 8.33419958,14.3669355 Z" id="Shape"></path>
                <path d="M7.46316354,8.99301075 C8.14459008,9.32258065 8.26247047,10.5311828 8.21409503,11.6395161 C8.1673877,12.7102151 7.96526731,13.6873656 7.96526731,13.6873656 C7.96526731,13.6873656 8.01475483,13.6693548 8.10483325,13.6379032 C8.75651166,13.411828 11.5756324,12.4825269 13.9040483,12.4825269 C16.2324641,12.4825269 19.0518629,13.411828 19.7032633,13.6379032 C19.7933417,13.669086 19.8428293,13.6873656 19.8428293,13.6873656 C19.8428293,13.6873656 19.6407089,12.7102151 19.5940015,11.6395161 C19.5456261,10.5311828 19.6635065,9.32231183 20.344933,8.99301075 C21.1898352,8.58467742 23.2327247,7.62930108 23.5780253,6.24892473 C23.7665227,5.49623656 23.447634,4.6172043 22.155954,3.63091398 C21.8362312,3.94704301 21.1953956,4.44543011 20.1191809,4.74919355 C20.4183302,4.45994624 21.0319199,3.68870968 21.4609045,3.13682796 C20.2112055,2.27688172 19.2181188,1.64516129 18.3698803,1.1844086 C18.1071516,1.56962366 17.6514772,2.0811828 16.8874788,2.54677419 C17.0748641,2.22096774 17.3995912,1.4405914 17.649253,0.816935484 C16.2538716,0.157795699 15.2254764,0 13.9043263,0 C12.5831762,0 11.554781,0.157795699 10.1596776,0.816935484 C10.4093394,1.4405914 10.7340665,2.22096774 10.9214519,2.54677419 C10.1568974,2.0811828 9.70122294,1.56935484 9.43849423,1.18413978 C8.59025582,1.64489247 7.59716909,2.27634409 6.34719206,3.13655914 C6.77617662,3.68844086 7.39032236,4.45967742 7.68947166,4.74892473 C6.61270097,4.44543011 5.97242137,3.94677419 5.65214256,3.63064516 C4.36046256,4.61693548 4.04157385,5.49596774 4.23007128,6.24865591 C4.57537187,7.62930108 6.61826137,8.58467742 7.46316354,8.99301075 Z" id="Shape"></path>
            </g>
        </g>
        <g id="consumer" transform="translate(1043.000000, 44.000000)" fill="#394F49" fill-rule="nonzero">
            <g id="Group">
                <path d="M26.3640479,14.8776597 C25.4220168,14.3982437 24.5926167,14.2862017 24.0891221,14.2777563 C24.0503703,14.2757857 24.0124549,14.2718445 23.9731455,14.2718445 L13.2020968,14.2718445 C13.1661329,14.2718445 13.1318418,14.2755042 13.0964354,14.2774748 C12.5926621,14.2839496 11.7590802,14.394584 10.8100793,14.8779412 C9.30991071,15.6284538 7.69376552,17.2713613 6.56243601,20.1816387 C5.417167,23.103458 4.64854318,27.3283992 4.64464013,33.7074748 C4.64519771,35.3554496 4.69733142,37.1484034 4.8113565,39.1004118 C4.81191408,39.1040714 4.81247166,39.1074496 4.81247166,39.1111092 C4.84285976,39.5936218 5.02267926,40.0299664 5.30258435,40.3798866 L3.73216071,45.5543697 L0,45.5543697 L1.95152946,54.8442857 L12.2667566,54.8442857 L14.2182861,45.5543697 L10.4855678,45.5543697 L8.87444085,40.2425084 C9.14570344,39.8441681 9.29429847,39.3565882 9.26446795,38.8366345 C9.26000731,38.7583739 9.25694062,38.6843361 9.25247998,38.6066387 C9.15295198,36.8266345 9.10555769,35.1944244 9.10611527,33.7077563 C9.09635762,26.8909286 10.0807648,23.0612311 11.0478871,21.0624916 L11.0478871,44.522063 L11.105039,44.710395 L14.2182861,44.710395 L15.2506452,44.710395 L15.0365345,45.7297521 L13.0844475,55.0193866 L12.9439374,55.6888235 L12.2659203,55.6888235 L11.0473295,55.6888235 L11.0473295,63.2896639 C11.0473295,65.212395 12.5909893,66.7700042 14.4940093,66.7700042 C16.3975869,66.7700042 17.9412467,65.212395 17.9412467,63.2896639 L17.9412467,37.8772395 L19.233438,37.8772395 L19.233438,63.2896639 C19.233438,65.212395 20.7770978,66.7700042 22.6801179,66.7700042 C24.5836955,66.7700042 26.1273553,65.212395 26.1273553,63.2896639 L26.1273553,21.0734706 C26.2923989,21.4160714 26.4593941,21.8085 26.6238801,22.2668025 C27.4095101,24.4662605 28.0702422,28.0744076 28.0674543,33.7071933 C28.0680119,35.2594538 28.0183873,36.9648571 27.9102168,38.8371975 C27.838289,40.0789496 28.7769747,41.1441933 30.0072746,41.216542 C30.051881,41.2190756 30.0959298,41.2204832 30.1399786,41.2204832 C31.3117327,41.2207647 32.294746,40.2965588 32.3638859,39.0995672 C32.4759594,37.1481218 32.5283719,35.3557311 32.5283719,33.7074748 C32.5174991,25.2108613 31.1737317,20.5081933 29.3406879,17.6803992 C28.4251418,16.2764958 27.3534733,15.3765 26.3640479,14.8776597 Z M4.84397492,52.897063 L3.58942027,52.897063 L3.58942027,47.4779454 L4.84397492,47.4779454 L4.84397492,52.897063 Z M7.73642038,52.897063 L6.48186572,52.897063 L6.48186572,47.4779454 L7.73642038,47.4779454 L7.73642038,52.897063 Z M9.37431118,47.4779454 L10.6288658,47.4779454 L10.6288658,52.897063 L9.37431118,52.897063 L9.37431118,47.4779454 Z M4.97138192,45.5540882 L6.32295547,41.0999958 C6.54793893,41.1768487 6.7868619,41.2207647 7.0358213,41.2207647 C7.07987011,41.2207647 7.12391892,41.2196387 7.16824651,41.2168235 C7.42083018,41.2019034 7.66003194,41.1430672 7.88166993,41.0515756 L9.24746176,45.5540882 L4.97138192,45.5540882 Z" id="Shape"></path>
                <ellipse id="Oval" cx="18.5874818" cy="6.33403361" rx="6.27277328" ry="6.33403361"></ellipse>
            </g>
        </g>
        <g id="olivedark2" transform="translate(322.663412, 82.778188) scale(-1, -1) rotate(40.000000) translate(-322.663412, -82.778188) translate(309.163412, 68.278188)" fill="#241023" fill-rule="nonzero">
            <path d="M17.6313708,0.603871399 C10.5736265,-1.62543514 3.36245297,2.48527795 0.861091681,10.1711212 C-1.72860765,18.1224671 1.72122521,26.3438933 8.55115037,28.4816472 C15.3810755,30.6194011 23.0385886,25.9547946 25.6282879,17.9897158 C28.1296492,10.3038725 24.6891151,2.82860031 17.6313708,0.603871399 Z M9.69954486,24.9706039 C9.50122684,24.925355 9.34568433,24.7740175 9.29737828,24.5793096 C9.24907223,24.3846018 9.31623457,24.1797042 9.47103144,24.0495319 C9.62582831,23.9193596 9.84188048,23.8860954 10.0296502,23.9635249 C14.5674357,25.3963236 19.6910419,22.1874039 21.4438546,16.7995316 C21.5350106,16.5214345 21.8378826,16.3687486 22.120338,16.4584981 C22.4027934,16.5482476 22.5578721,16.8464463 22.4667161,17.1245435 C20.532578,23.0617315 14.8045536,26.5819302 9.69954486,24.9706039 Z M16.5387688,3.95927529 C17.9335799,4.41703844 18.9378439,5.46531605 18.6867779,6.24809104 C18.4357119,7.03086602 16.9851083,7.31467918 15.5902972,6.87522655 C14.1954861,6.43577393 13.1912221,5.36918579 13.4422881,4.5864108 C13.6933541,3.80363582 15.1439576,3.5244003 16.5387688,3.95927529 Z" id="Shape"></path>
        </g>
    </g>
</svg>