<?xml version="1.0" encoding="UTF-8"?>
<svg width="64px" height="60px" viewBox="0 0 64 60" version="1.1" xmlns="http://www.w3.org/2000/svg" xmlns:xlink="http://www.w3.org/1999/xlink">
    <!-- Generator: Sketch 49.2 (51160) - http://www.bohemiancoding.com/sketch -->
    <title>fruity</title>
    <desc>Created with Sketch.</desc>
    <defs></defs>
    <g id="Page-1" stroke="none" stroke-width="1" fill="none" fill-rule="evenodd" stroke-linecap="round">
        <g id="fruity" transform="translate(1.000000, 1.000000)" stroke="#000000" stroke-width="2">
            <g id="Group">
                <path d="M62,1 C62,1 8.608,22.579 1,29" id="Shape"></path>
                <path d="M54.452,34.478 C57.478,45.991 56.833,50.643 54.703,51.297 C52.572,51.951 49.762,48.359 46.736,36.846 C44.385,27.899 43.34,14.342 43.601,11.066 C43.637,10.621 44.334,10.407 44.58,10.765 C46.396,13.405 52.101,25.532 54.452,34.478 Z" id="Shape"></path>
                <path d="M52,41 L43,9" id="Shape"></path>
                <path d="M15.41,9.156 C3.702,7.748 -0.264,5.32 0.014,2.946 C0.292,0.572 4.708,-0.849 16.416,0.559 C25.514,1.653 38.27,5.819 41.142,7.338 C41.532,7.544 41.441,8.321 41.014,8.429 C37.871,9.224 24.508,10.25 15.41,9.156 Z" id="Shape"></path>
                <path d="M11,4 L43,9" id="Shape"></path>
                <path d="M22.108,43.416 C19.904,50.947 13.593,55.822 8.012,54.305 C2.431,52.788 -0.307,45.452 1.897,37.921 C4.101,30.39 10.412,25.515 15.993,27.032 C21.574,28.55 24.312,35.885 22.108,43.416 Z" id="Shape"></path>
                <path d="M12,50 C11.34,50.288 10.695,50.301 10.096,50.301 C9.774,50.301 9.47,50.261 9.167,50.179 C7.896,49.833 7.457,48.805 7,48" id="Shape"></path>
                <path d="M31,39 C30.34,39.288 29.784,39.721 29.185,39.721 C28.863,39.721 28.559,39.681 28.256,39.599 C26.985,39.253 26.457,37.805 26,37" id="Shape"></path>
                <path d="M26.49,43.603 C26.211,43.527 25.945,43.426 25.681,43.322 C24.803,53.836 26.378,57.811 28.774,57.993 C31.288,58.184 33.748,54.146 34.926,42.436 C34.961,42.091 34.986,41.73 35.014,41.374 C32.416,43.465 29.358,44.383 26.49,43.603 Z" id="Shape"></path>
                <path d="M30,44 L30,47" id="Shape"></path>
                <path d="M34.471,16.33 C28.89,14.813 22.579,19.688 20.375,27.219 C20.154,27.973 19.996,28.724 19.872,29.469 C22.302,32.148 23.384,36.503 22.61,41.166 C23.667,42.331 24.968,43.189 26.49,43.603 C32.071,45.12 38.382,40.245 40.586,32.714 C42.79,25.183 40.052,17.848 34.471,16.33 Z" id="Shape"></path>
                <path d="M14,31 C14.453,24.75 18,20 18,20" id="Shape"></path>
                <path d="M33,14 L32,19" id="Shape"></path>
            </g>
        </g>
    </g>
</svg>