<?xml version="1.0" encoding="UTF-8"?>
<svg width="63px" height="95px" viewBox="0 0 63 95" version="1.1" xmlns="http://www.w3.org/2000/svg" xmlns:xlink="http://www.w3.org/1999/xlink">
    <!-- Generator: Sketch 49.2 (51160) - http://www.bohemiancoding.com/sketch -->
    <title>fusty</title>
    <desc>Created with Sketch.</desc>
    <defs></defs>
    <g id="Page-1" stroke="none" stroke-width="1" fill="none" fill-rule="evenodd">
        <g id="fusty">
            <rect id="Rectangle-path" fill="#000000" fill-rule="nonzero" x="19.593" y="43.646" width="19.176" height="3"></rect>
            <rect id="Rectangle-path" fill="#000000" fill-rule="nonzero" x="19.593" y="38.698" width="19.176" height="3"></rect>
            <g id="Group" transform="translate(0.000000, 33.000000)">
                <path d="M28.978,42.869 L37.609,36.847 C37.687,36.226 37.72,35.614 37.72,35.039 L37.72,6.605 C37.733,5.302 37.473,4.405 36.926,3.852 C35.786,2.701 33.152,2.701 29.816,2.701 C29.334,2.701 28.859,2.697 28.396,2.692 C27.958,2.688 27.529,2.684 27.111,2.684 C22.536,2.684 20.912,3.276 20.912,6.605 L20.912,29.796 L7.658,39.04 C3,41.745 1.531,46.042 3.845,50.032 C5.481,52.853 8.02,54.471 10.811,54.471 C12.223,54.471 13.637,54.067 15.015,53.268 L23.817,48.448 C24.696,46.293 26.438,44.341 28.978,42.869 Z" id="Shape"></path>
                <path d="M33.379,43.199 L33.476,43.149 C35.105,42.413 36.131,41.218 36.768,39.87 L30.051,44.555 C29.126,45.092 28.333,45.694 27.664,46.342 L33.288,43.262 C33.297,43.251 33.336,43.226 33.379,43.199 Z" id="Shape"></path>
                <path d="M60.741,7.959 C59.014,6.215 56.012,6.215 52.21,6.215 C51.734,6.215 51.266,6.211 50.808,6.207 C50.364,6.203 49.929,6.199 49.505,6.199 C46.24,6.199 41.306,6.199 41.306,12.12 L41.306,34.268 L39.702,35.387 C39.704,35.269 39.72,35.159 39.72,35.039 L39.72,6.615 C39.739,4.761 39.289,3.397 38.347,2.445 C36.62,0.701 33.618,0.701 29.816,0.701 C29.34,0.701 28.872,0.697 28.414,0.693 C27.969,0.689 27.534,0.685 27.111,0.685 C23.846,0.685 18.912,0.685 18.912,6.606 L18.912,28.754 L6.584,37.356 C1.033,40.575 -0.764,46.073 2.114,51.038 C4.117,54.492 7.287,56.474 10.811,56.474 C12.58,56.474 14.332,55.979 15.997,55.013 L23.187,51.075 C23.045,52.882 23.466,54.751 24.509,56.552 C26.512,60.006 29.682,61.988 33.206,61.988 C34.975,61.988 36.727,61.493 38.392,60.527 L56.674,50.515 C56.708,50.494 56.739,50.474 56.769,50.453 C60.218,48.857 62.117,45.346 62.117,40.554 L62.117,12.129 C62.133,10.275 61.684,8.911 60.741,7.959 Z M15.013,53.27 C13.636,54.069 12.221,54.473 10.809,54.473 C8.017,54.473 5.478,52.855 3.843,50.034 C1.53,46.044 2.999,41.747 7.656,39.042 L20.91,29.798 L20.91,6.605 C20.91,3.276 22.535,2.684 27.109,2.684 C27.526,2.684 27.955,2.688 28.394,2.692 C28.858,2.696 29.332,2.701 29.814,2.701 C33.149,2.701 35.784,2.701 36.924,3.852 C37.471,4.405 37.731,5.302 37.718,6.605 L37.718,35.039 C37.718,35.613 37.685,36.226 37.607,36.847 L28.976,42.869 C26.437,44.341 24.694,46.293 23.814,48.449 L15.013,53.27 Z M60.114,40.553 C60.114,43.378 59.378,47.078 55.87,48.663 L55.773,48.713 C55.73,48.739 55.691,48.765 55.682,48.775 L37.407,58.783 C36.03,59.582 34.615,59.986 33.204,59.986 C30.412,59.986 27.873,58.368 26.238,55.547 C25.134,53.643 24.901,51.669 25.456,49.831 C25.832,48.583 26.573,47.398 27.664,46.342 C28.333,45.694 29.126,45.092 30.051,44.555 L36.768,39.87 L39.43,38.014 L43.306,35.311 L43.306,12.119 C43.306,8.79 44.93,8.198 49.505,8.198 C49.922,8.198 50.352,8.202 50.789,8.206 C51.254,8.21 51.727,8.215 52.21,8.215 C55.546,8.215 58.181,8.215 59.32,9.366 C59.867,9.919 60.127,10.816 60.114,12.119 L60.114,40.553 Z" id="Shape" fill="#000000" fill-rule="nonzero"></path>
            </g>
            <rect id="Rectangle-path" fill="#000000" fill-rule="nonzero" x="41.987" y="49.16" width="19.176" height="3"></rect>
            <rect id="Rectangle-path" fill="#000000" fill-rule="nonzero" x="41.987" y="44.5" width="19.176" height="3"></rect>
            <path d="M40.926,28.5 C40.373,28.5 39.926,28.052 39.926,27.5 C39.926,25.897 40.446,25.031 40.864,24.334 C41.228,23.726 41.516,23.246 41.516,22.196 C41.516,21.146 41.228,20.667 40.864,20.058 C40.446,19.362 39.926,18.495 39.926,16.892 C39.926,15.29 40.446,14.424 40.864,13.727 C41.228,13.12 41.516,12.64 41.516,11.592 C41.516,10.545 41.228,10.066 40.864,9.459 C40.446,8.764 39.926,7.898 39.926,6.297 C39.926,4.695 40.446,3.829 40.864,3.133 C41.228,2.527 41.516,2.047 41.516,1 C41.516,0.448 41.963,0 42.516,0 C43.069,0 43.516,0.448 43.516,1 C43.516,2.602 42.996,3.468 42.578,4.164 C42.214,4.771 41.926,5.251 41.926,6.298 C41.926,7.344 42.214,7.824 42.578,8.431 C42.996,9.126 43.516,9.993 43.516,11.594 C43.516,13.196 42.996,14.062 42.578,14.759 C42.214,15.366 41.926,15.846 41.926,16.894 C41.926,17.943 42.214,18.423 42.578,19.032 C42.996,19.728 43.516,20.595 43.516,22.198 C43.516,23.801 42.996,24.668 42.578,25.364 C42.214,25.972 41.926,26.452 41.926,27.501 C41.926,28.052 41.479,28.5 40.926,28.5 Z" id="Shape" fill="#000000" fill-rule="nonzero"></path>
            <path d="M31.386,28.5 C30.834,28.5 30.386,28.052 30.386,27.5 C30.386,25.897 30.906,25.031 31.323,24.334 C31.688,23.726 31.976,23.246 31.976,22.196 C31.976,21.146 31.688,20.667 31.323,20.058 C30.906,19.362 30.386,18.495 30.386,16.892 C30.386,15.29 30.906,14.424 31.324,13.727 C31.688,13.12 31.976,12.64 31.976,11.592 C31.976,10.545 31.688,10.066 31.324,9.459 C30.907,8.764 30.386,7.898 30.386,6.297 C30.386,4.695 30.906,3.829 31.324,3.133 C31.688,2.527 31.976,2.047 31.976,1 C31.976,0.448 32.424,0 32.976,0 C33.528,0 33.976,0.448 33.976,1 C33.976,2.602 33.456,3.468 33.038,4.164 C32.674,4.771 32.386,5.251 32.386,6.298 C32.386,7.344 32.674,7.824 33.038,8.431 C33.455,9.126 33.976,9.993 33.976,11.594 C33.976,13.196 33.456,14.062 33.038,14.759 C32.674,15.366 32.386,15.846 32.386,16.894 C32.386,17.943 32.674,18.423 33.039,19.032 C33.456,19.728 33.976,20.595 33.976,22.198 C33.976,23.801 33.456,24.668 33.038,25.364 C32.674,25.972 32.386,26.452 32.386,27.501 C32.386,28.052 31.938,28.5 31.386,28.5 Z" id="Shape" fill="#000000" fill-rule="nonzero"></path>
            <path d="M50.705,28.5 C50.152,28.5 49.705,28.052 49.705,27.5 C49.705,25.897 50.225,25.031 50.643,24.334 C51.007,23.726 51.295,23.246 51.295,22.196 C51.295,21.146 51.007,20.667 50.643,20.058 C50.225,19.362 49.705,18.495 49.705,16.892 C49.705,15.29 50.225,14.424 50.643,13.727 C51.007,13.12 51.295,12.64 51.295,11.592 C51.295,10.545 51.007,10.066 50.643,9.459 C50.225,8.764 49.705,7.898 49.705,6.297 C49.705,4.695 50.225,3.829 50.643,3.133 C51.007,2.527 51.295,2.047 51.295,1 C51.295,0.448 51.742,0 52.295,0 C52.848,0 53.295,0.448 53.295,1 C53.295,2.602 52.775,3.468 52.357,4.164 C51.993,4.771 51.705,5.251 51.705,6.298 C51.705,7.344 51.993,7.824 52.357,8.431 C52.775,9.126 53.295,9.993 53.295,11.594 C53.295,13.196 52.775,14.062 52.357,14.759 C51.993,15.366 51.705,15.846 51.705,16.894 C51.705,17.943 51.993,18.423 52.357,19.032 C52.775,19.728 53.295,20.595 53.295,22.198 C53.295,23.801 52.775,24.668 52.357,25.364 C51.993,25.972 51.705,26.452 51.705,27.501 C51.705,28.052 51.258,28.5 50.705,28.5 Z" id="Shape" fill="#000000" fill-rule="nonzero"></path>
        </g>
    </g>
</svg>