<?xml version="1.0" encoding="UTF-8"?>
<svg width="50px" height="75px" viewBox="0 0 50 75" version="1.1" xmlns="http://www.w3.org/2000/svg" xmlns:xlink="http://www.w3.org/1999/xlink">
    <!-- Generator: Sketch 49.2 (51160) - http://www.bohemiancoding.com/sketch -->
    <title>fusty</title>
    <desc>Created with Sketch.</desc>
    <defs></defs>
    <g id="Page-1" stroke="none" stroke-width="1" fill="none" fill-rule="evenodd">
        <g id="fusty">
            <rect id="Rectangle-path" fill="#E3D26F" fill-rule="nonzero" x="15.4681579" y="34.4573684" width="15.1389474" height="2.36842105"></rect>
            <rect id="Rectangle-path" fill="#E3D26F" fill-rule="nonzero" x="15.4681579" y="30.5510526" width="15.1389474" height="2.36842105"></rect>
            <g id="Group" transform="translate(0.000000, 26.052632)">
                <path d="M22.8773684,33.8439474 L29.6913158,29.0897368 C29.7528947,28.5994737 29.7789474,28.1163158 29.7789474,27.6623684 L29.7789474,5.21447368 C29.7892105,4.18578947 29.5839474,3.47763158 29.1521053,3.04105263 C28.2521053,2.13236842 26.1726316,2.13236842 23.5389474,2.13236842 C23.1584211,2.13236842 22.7834211,2.12921053 22.4178947,2.12526316 C22.0721053,2.12210526 21.7334211,2.11894737 21.4034211,2.11894737 C17.7915789,2.11894737 16.5094737,2.58631579 16.5094737,5.21447368 L16.5094737,23.5231579 L6.04578947,30.8210526 C2.36842105,32.9565789 1.20868421,36.3489474 3.03552632,39.4989474 C4.32710526,41.7260526 6.33157895,43.0034211 8.535,43.0034211 C9.64973684,43.0034211 10.7660526,42.6844737 11.8539474,42.0536842 L18.8028947,38.2484211 C19.4968421,36.5471053 20.8721053,35.0060526 22.8773684,33.8439474 Z" id="Shape"></path>
                <path d="M26.3518421,34.1044737 L26.4284211,34.065 C27.7144737,33.4839474 28.5244737,32.5405263 29.0273684,31.4763158 L23.7244737,35.175 C22.9942105,35.5989474 22.3681579,36.0742105 21.84,36.5857895 L26.28,34.1542105 C26.2871053,34.1455263 26.3178947,34.1257895 26.3518421,34.1044737 Z" id="Shape"></path>
                <path d="M47.9534211,6.28342105 C46.59,4.90657895 44.22,4.90657895 41.2184211,4.90657895 C40.8426316,4.90657895 40.4731579,4.90342105 40.1115789,4.90026316 C39.7610526,4.89710526 39.4176316,4.89394737 39.0828947,4.89394737 C36.5052632,4.89394737 32.61,4.89394737 32.61,9.56842105 L32.61,27.0536842 L31.3436842,27.9371053 C31.3452632,27.8439474 31.3578947,27.7571053 31.3578947,27.6623684 L31.3578947,5.22236842 C31.3728947,3.75868421 31.0176316,2.68184211 30.2739474,1.93026316 C28.9105263,0.553421053 26.5405263,0.553421053 23.5389474,0.553421053 C23.1631579,0.553421053 22.7936842,0.550263158 22.4321053,0.547105263 C22.0807895,0.543947368 21.7373684,0.540789474 21.4034211,0.540789474 C18.8257895,0.540789474 14.9305263,0.540789474 14.9305263,5.21526316 L14.9305263,22.7005263 L5.19789474,29.4915789 C0.815526316,32.0328947 -0.603157895,36.3734211 1.66894737,40.2931579 C3.25026316,43.02 5.75289474,44.5847368 8.535,44.5847368 C9.93157895,44.5847368 11.3147368,44.1939474 12.6292105,43.4313158 L18.3055263,40.3223684 C18.1934211,41.7489474 18.5257895,43.2244737 19.3492105,44.6463158 C20.9305263,47.3731579 23.4331579,48.9378947 26.2152632,48.9378947 C27.6118421,48.9378947 28.995,48.5471053 30.3094737,47.7844737 L44.7426316,39.8802632 C44.7694737,39.8636842 44.7939474,39.8478947 44.8176316,39.8313158 C47.5405263,38.5713158 49.0397368,35.7994737 49.0397368,32.0163158 L49.0397368,9.57552632 C49.0523684,8.11184211 48.6978947,7.035 47.9534211,6.28342105 Z M11.8523684,42.0552632 C10.7652632,42.6860526 9.64815789,43.005 8.53342105,43.005 C6.32921053,43.005 4.32473684,41.7276316 3.03394737,39.5005263 C1.20789474,36.3505263 2.36763158,32.9581579 6.04421053,30.8226316 L16.5078947,23.5247368 L16.5078947,5.21447368 C16.5078947,2.58631579 17.7907895,2.11894737 21.4018421,2.11894737 C21.7310526,2.11894737 22.0697368,2.12210526 22.4163158,2.12526316 C22.7826316,2.12842105 23.1568421,2.13236842 23.5373684,2.13236842 C26.1702632,2.13236842 28.2505263,2.13236842 29.1505263,3.04105263 C29.5823684,3.47763158 29.7876316,4.18578947 29.7773684,5.21447368 L29.7773684,27.6623684 C29.7773684,28.1155263 29.7513158,28.5994737 29.6897368,29.0897368 L22.8757895,33.8439474 C20.8713158,35.0060526 19.4952632,36.5471053 18.8005263,38.2492105 L11.8523684,42.0552632 Z M47.4584211,32.0155263 C47.4584211,34.2457895 46.8773684,37.1668421 44.1078947,38.4181579 L44.0313158,38.4576316 C43.9973684,38.4781579 43.9665789,38.4986842 43.9594737,38.5065789 L29.5318421,46.4076316 C28.4447368,47.0384211 27.3276316,47.3573684 26.2136842,47.3573684 C24.0094737,47.3573684 22.005,46.08 20.7142105,43.8528947 C19.8426316,42.3497368 19.6586842,40.7913158 20.0968421,39.3402632 C20.3936842,38.355 20.9786842,37.4194737 21.84,36.5857895 C22.3681579,36.0742105 22.9942105,35.5989474 23.7244737,35.175 L29.0273684,31.4763158 L31.1289474,30.0110526 L34.1889474,27.8771053 L34.1889474,9.56763158 C34.1889474,6.93947368 35.4710526,6.47210526 39.0828947,6.47210526 C39.4121053,6.47210526 39.7515789,6.47526316 40.0965789,6.47842105 C40.4636842,6.48157895 40.8371053,6.48552632 41.2184211,6.48552632 C43.8521053,6.48552632 45.9323684,6.48552632 46.8315789,7.39421053 C47.2634211,7.83078947 47.4686842,8.53894737 47.4584211,9.56763158 L47.4584211,32.0155263 Z" id="Shape" fill="#E3D26F" fill-rule="nonzero"></path>
            </g>
            <rect id="Rectangle-path" fill="#E3D26F" fill-rule="nonzero" x="33.1476316" y="38.8105263" width="15.1389474" height="2.36842105"></rect>
            <rect id="Rectangle-path" fill="#E3D26F" fill-rule="nonzero" x="33.1476316" y="35.1315789" width="15.1389474" height="2.36842105"></rect>
            <path d="M32.31,22.5 C31.8734211,22.5 31.5205263,22.1463158 31.5205263,21.7105263 C31.5205263,20.445 31.9310526,19.7613158 32.2610526,19.2110526 C32.5484211,18.7310526 32.7757895,18.3521053 32.7757895,17.5231579 C32.7757895,16.6942105 32.5484211,16.3160526 32.2610526,15.8352632 C31.9310526,15.2857895 31.5205263,14.6013158 31.5205263,13.3357895 C31.5205263,12.0710526 31.9310526,11.3873684 32.2610526,10.8371053 C32.5484211,10.3578947 32.7757895,9.97894737 32.7757895,9.15157895 C32.7757895,8.325 32.5484211,7.94684211 32.2610526,7.46763158 C31.9310526,6.91894737 31.5205263,6.23526316 31.5205263,4.97131579 C31.5205263,3.70657895 31.9310526,3.02289474 32.2610526,2.47342105 C32.5484211,1.995 32.7757895,1.61605263 32.7757895,0.789473684 C32.7757895,0.353684211 33.1286842,0 33.5652632,0 C34.0018421,0 34.3547368,0.353684211 34.3547368,0.789473684 C34.3547368,2.05421053 33.9442105,2.73789474 33.6142105,3.28736842 C33.3268421,3.76657895 33.0994737,4.14552632 33.0994737,4.97210526 C33.0994737,5.79789474 33.3268421,6.17684211 33.6142105,6.65605263 C33.9442105,7.20473684 34.3547368,7.88921053 34.3547368,9.15315789 C34.3547368,10.4178947 33.9442105,11.1015789 33.6142105,11.6518421 C33.3268421,12.1310526 33.0994737,12.51 33.0994737,13.3373684 C33.0994737,14.1655263 33.3268421,14.5444737 33.6142105,15.0252632 C33.9442105,15.5747368 34.3547368,16.2592105 34.3547368,17.5247368 C34.3547368,18.7902632 33.9442105,19.4747368 33.6142105,20.0242105 C33.3268421,20.5042105 33.0994737,20.8831579 33.0994737,21.7113158 C33.0994737,22.1463158 32.7465789,22.5 32.31,22.5 Z" id="Shape" fill="#E3D26F" fill-rule="nonzero"></path>
            <path d="M24.7784211,22.5 C24.3426316,22.5 23.9889474,22.1463158 23.9889474,21.7105263 C23.9889474,20.445 24.3994737,19.7613158 24.7286842,19.2110526 C25.0168421,18.7310526 25.2442105,18.3521053 25.2442105,17.5231579 C25.2442105,16.6942105 25.0168421,16.3160526 24.7286842,15.8352632 C24.3994737,15.2857895 23.9889474,14.6013158 23.9889474,13.3357895 C23.9889474,12.0710526 24.3994737,11.3873684 24.7294737,10.8371053 C25.0168421,10.3578947 25.2442105,9.97894737 25.2442105,9.15157895 C25.2442105,8.325 25.0168421,7.94684211 24.7294737,7.46763158 C24.4002632,6.91894737 23.9889474,6.23526316 23.9889474,4.97131579 C23.9889474,3.70657895 24.3994737,3.02289474 24.7294737,2.47342105 C25.0168421,1.995 25.2442105,1.61605263 25.2442105,0.789473684 C25.2442105,0.353684211 25.5978947,0 26.0336842,0 C26.4694737,0 26.8231579,0.353684211 26.8231579,0.789473684 C26.8231579,2.05421053 26.4126316,2.73789474 26.0826316,3.28736842 C25.7952632,3.76657895 25.5678947,4.14552632 25.5678947,4.97210526 C25.5678947,5.79789474 25.7952632,6.17684211 26.0826316,6.65605263 C26.4118421,7.20473684 26.8231579,7.88921053 26.8231579,9.15315789 C26.8231579,10.4178947 26.4126316,11.1015789 26.0826316,11.6518421 C25.7952632,12.1310526 25.5678947,12.51 25.5678947,13.3373684 C25.5678947,14.1655263 25.7952632,14.5444737 26.0834211,15.0252632 C26.4126316,15.5747368 26.8231579,16.2592105 26.8231579,17.5247368 C26.8231579,18.7902632 26.4126316,19.4747368 26.0826316,20.0242105 C25.7952632,20.5042105 25.5678947,20.8831579 25.5678947,21.7113158 C25.5678947,22.1463158 25.2142105,22.5 24.7784211,22.5 Z" id="Shape" fill="#E3D26F" fill-rule="nonzero"></path>
            <path d="M40.0302632,22.5 C39.5936842,22.5 39.2407895,22.1463158 39.2407895,21.7105263 C39.2407895,20.445 39.6513158,19.7613158 39.9813158,19.2110526 C40.2686842,18.7310526 40.4960526,18.3521053 40.4960526,17.5231579 C40.4960526,16.6942105 40.2686842,16.3160526 39.9813158,15.8352632 C39.6513158,15.2857895 39.2407895,14.6013158 39.2407895,13.3357895 C39.2407895,12.0710526 39.6513158,11.3873684 39.9813158,10.8371053 C40.2686842,10.3578947 40.4960526,9.97894737 40.4960526,9.15157895 C40.4960526,8.325 40.2686842,7.94684211 39.9813158,7.46763158 C39.6513158,6.91894737 39.2407895,6.23526316 39.2407895,4.97131579 C39.2407895,3.70657895 39.6513158,3.02289474 39.9813158,2.47342105 C40.2686842,1.995 40.4960526,1.61605263 40.4960526,0.789473684 C40.4960526,0.353684211 40.8489474,0 41.2855263,0 C41.7221053,0 42.075,0.353684211 42.075,0.789473684 C42.075,2.05421053 41.6644737,2.73789474 41.3344737,3.28736842 C41.0471053,3.76657895 40.8197368,4.14552632 40.8197368,4.97210526 C40.8197368,5.79789474 41.0471053,6.17684211 41.3344737,6.65605263 C41.6644737,7.20473684 42.075,7.88921053 42.075,9.15315789 C42.075,10.4178947 41.6644737,11.1015789 41.3344737,11.6518421 C41.0471053,12.1310526 40.8197368,12.51 40.8197368,13.3373684 C40.8197368,14.1655263 41.0471053,14.5444737 41.3344737,15.0252632 C41.6644737,15.5747368 42.075,16.2592105 42.075,17.5247368 C42.075,18.7902632 41.6644737,19.4747368 41.3344737,20.0242105 C41.0471053,20.5042105 40.8197368,20.8831579 40.8197368,21.7113158 C40.8197368,22.1463158 40.4668421,22.5 40.0302632,22.5 Z" id="Shape" fill="#E3D26F" fill-rule="nonzero"></path>
        </g>
    </g>
</svg>