<?xml version="1.0" encoding="UTF-8"?>
<svg width="85px" height="92px" viewBox="0 0 85 92" version="1.1" xmlns="http://www.w3.org/2000/svg" xmlns:xlink="http://www.w3.org/1999/xlink">
    <!-- Generator: Sketch 49.2 (51160) - http://www.bohemiancoding.com/sketch -->
    <title>noun_437045_cc</title>
    <desc>Created with Sketch.</desc>
    <defs></defs>
    <g id="Page-1" stroke="none" stroke-width="1" fill="none" fill-rule="evenodd">
        <g id="noun_437045_cc" fill="#FFFFFF" fill-rule="nonzero">
            <path d="M79.8,45.6 C72.9,33.8 60.8,27.8 52.3,31.7 C52.1,31 52,30.1 52.3,29.3 C52.5,28.9 52.8,28.6 53.3,28.3 C55,28 56.7,27.8 58.4,27.5 C66.7,26.3 75.3,25 79.4,21.3 C79.8,20.9 79.8,20.3 79.5,19.9 C79.1,19.5 78.5,19.5 78.1,19.8 C75.5,22.1 70.5,23.4 65,24.4 C63.4,17.5 58.3,3.2 42.3,0.7 C41.8,0.6 41.3,0.8 41,1.1 C40.7,1.5 40.5,1.9 40.6,2.4 C43.7,15.6 54.6,22.7 59.3,25.3 C58.8,25.4 58.4,25.4 57.9,25.5 C57.1,25.6 56.3,25.7 55.6,25.9 C41.6,13.6 11,12.7 1.7,19.2 C1.3,19.5 1,19.9 0.9,20.4 C0.8,20.9 0.9,21.4 1.2,21.8 C7.8,31.2 30.5,32.2 37.6,32.3 C34.1,35.5 32.2,39.2 31.4,40.9 C31.1,40.8 30.8,40.8 30.6,40.7 C20.9,38.8 10.7,48.7 7.9,62.7 C6.6,69.4 7.1,76.2 9.4,81.6 C11.8,87.2 15.7,90.8 20.5,91.7 C21.3,91.9 22.2,91.9 23,91.9 C27,91.9 31,90 34.6,86.5 C38.8,82.3 41.8,76.3 43.2,69.6 C44.6,62.9 44,56.1 41.7,50.7 C39.8,46.2 36.9,43 33.4,41.5 C34.6,39 38.4,32.1 45.9,29.8 C47.2,29.4 48.7,29.1 50.3,28.8 C49.9,30.2 50.1,31.7 50.4,32.6 C46.6,35.2 44.3,39.6 44,45.3 C43.6,51.2 45.3,57.7 48.8,63.6 C54.3,73 63.1,78.7 70.7,78.7 C73.1,78.7 75.4,78.1 77.5,76.9 C81.7,74.4 84.2,69.8 84.6,63.7 C85,58 83.3,51.5 79.8,45.6 Z M62.5,24.6 C62.4,24.6 46.9,18 42.9,2.9 C56.5,5.5 61.3,17.3 63.1,24.9 C63,24.9 63,24.9 62.9,24.9 C62.8,24.8 62.7,24.7 62.5,24.6 Z M40,51.6 C42.1,56.7 42.6,63 41.4,69.3 C40.1,75.7 37.3,81.3 33.4,85.2 C29.6,89 25.2,90.6 21.1,89.8 C17,89 13.6,85.8 11.5,80.9 C9.4,75.8 8.9,69.5 10.1,63.2 C12.5,51.3 20.4,42.5 28.3,42.5 C29,42.5 29.7,42.6 30.4,42.7 C34.5,43.5 37.9,46.7 40,51.6 Z M40.3,30.4 C40.2,30.4 40,30.3 39.9,30.3 C39.6,30.3 10.4,30.8 3.1,20.8 C11.8,14.9 39.3,15.6 53.1,26.3 C51.6,26.6 50.1,26.8 48.7,27.1 C33.2,19.6 14.3,20.5 13.5,20.6 C12.9,20.6 12.5,21.1 12.6,21.7 C12.6,22.3 13.1,22.7 13.7,22.6 C13.9,22.6 31.1,21.8 45.7,27.9 C45.6,27.9 45.5,27.9 45.5,28 C43.5,28.6 41.8,29.4 40.3,30.4 Z M82.6,63.8 C82.3,69.2 80.1,73.3 76.5,75.4 C68.9,79.9 57.3,74.2 50.6,62.8 C47.3,57.2 45.7,51.1 46.1,45.6 C46.4,40.2 48.6,36.1 52.2,34 C54,33 55.9,32.5 58,32.5 C64.9,32.5 73,37.9 78.1,46.6 C81.4,52.2 83,58.3 82.6,63.8 Z" id="Shape"></path>
            <path d="M27.1,81.9 C26.1,81.1 24.7,80.6 23.3,80.4 C21.8,80.2 20.4,80.4 19.2,80.9 C17.9,81.5 17,82.4 16.9,83.5 C16.7,84.6 17.3,85.8 18.4,86.7 C19.4,87.5 20.8,88 22.2,88.2 C22.6,88.3 23,88.3 23.4,88.3 C26.1,88.3 28.3,87 28.6,85.1 C28.8,83.9 28.3,82.8 27.1,81.9 Z M22.5,86.1 C21.4,86 20.3,85.5 19.6,85 C19,84.6 18.8,84.1 18.8,83.7 C18.8,83.3 19.3,82.9 19.9,82.6 C20.5,82.4 21.2,82.2 22,82.2 C22.3,82.2 22.6,82.2 23,82.3 C24.1,82.4 25.2,82.9 25.9,83.4 C26.5,83.8 26.7,84.3 26.7,84.7 C26.6,85.7 24.8,86.4 22.5,86.1 Z" id="Shape"></path>
            <path d="M72,65.8 C69,67.3 67.5,70.1 68.6,72 C69.2,73.1 70.5,73.7 72,73.7 C73.1,73.7 74.4,73.4 75.7,72.7 C78.7,71.2 80.2,68.4 79.1,66.5 C78.6,65.5 77.5,64.9 76,64.8 C74.7,64.7 73.3,65.1 72,65.8 Z M77.3,67.4 C77.7,68.2 76.7,69.9 74.7,70.9 C72.7,71.9 70.7,71.8 70.3,71 C69.9,70.2 70.9,68.5 72.9,67.5 C73.8,67 74.8,66.7 75.7,66.7 C75.8,66.7 75.8,66.7 75.9,66.7 C76.6,66.8 77.1,67 77.3,67.4 Z" id="Shape"></path>
        </g>
    </g>
</svg>