<?xml version="1.0" encoding="UTF-8"?>
<svg width="46px" height="67px" viewBox="0 0 46 67" version="1.1" xmlns="http://www.w3.org/2000/svg" xmlns:xlink="http://www.w3.org/1999/xlink">
    <!-- Generator: Sketch 49.2 (51160) - http://www.bohemiancoding.com/sketch -->
    <title>metallic</title>
    <desc>Created with Sketch.</desc>
    <defs></defs>
    <g id="Page-1" stroke="none" stroke-width="1" fill="none" fill-rule="evenodd">
        <g id="metallic" fill="#000000" fill-rule="nonzero">
            <path d="M45.526895,46.3932693 L45.9984077,20.7848934 C45.9985793,20.7750021 45.9961342,20.7654962 45.9960055,20.7556478 C45.9961342,20.7462703 45.9984077,20.7374496 45.9984077,20.7280293 C45.9984077,20.6746763 45.9889277,20.6238498 45.9847239,20.5716102 C46.164501,19.1251721 44.7588422,17.633003 41.6964545,16.0189272 C38.9888595,14.5921861 35.2675464,13.2336134 31.2181647,12.1939593 C27.1677536,11.1539627 23.2515211,10.5517512 20.1904631,10.4976275 C16.5281749,10.4298016 14.5439779,11.143686 14.1503643,12.672166 C13.7745096,14.1298227 15.0241556,15.63047 17.9590994,17.2512684 C15.1888762,17.9788122 13.17714,19.0876196 13.17714,20.7280293 C13.17714,20.740661 13.1800998,20.7524791 13.1803572,20.7650252 C13.1803572,20.7783849 13.1773116,20.7913591 13.1778263,20.8047616 L13.8164618,38.0452053 C13.8559261,39.1064403 14.2550304,40.1382156 14.9399936,40.9487005 L15.933808,42.1277745 C16.7601564,43.1067963 16.8226129,44.5236034 16.0861746,45.5725065 L14.7687529,47.447652 C13.7275814,48.9309146 13.17714,50.6717786 13.17714,52.4818387 L13.17714,61.9644432 C13.17714,62.063099 13.1908668,62.1583292 13.2162612,62.2487637 C13.9321095,65.5119416 22.1612766,67 29.5874307,67 C37.0108395,67 45.2365749,65.5133118 45.9586002,62.2528743 C45.984681,62.1610696 45.9984077,62.0644691 45.9984077,61.9644431 L45.9984077,59.0540968 C45.9984077,57.2796624 45.5715068,55.5052281 44.7643758,53.9233096 C44.2496239,52.9161982 44.2022667,51.7384945 44.6332857,50.6923318 C45.1988264,49.3221136 45.4994416,47.8751617 45.526895,46.3932693 Z M43.4184712,46.3549031 C43.3965084,47.5737134 43.1487412,48.7637492 42.6840918,49.8907547 C42.5668142,50.1752466 42.4808077,50.467403 42.4093001,50.7620003 C42.0506038,51.1724667 40.5781559,51.9761861 37.1336936,52.4585462 C36.5571715,52.5393891 36.1549787,53.0710343 36.2359663,53.6465265 C36.3100906,54.1726908 36.7610132,54.5529268 37.2785104,54.5529268 C37.3272403,54.5529268 37.3766564,54.5495012 37.4260726,54.5426502 C39.0289242,54.3182339 40.9140315,53.9317035 42.3447415,53.2751542 C42.4492791,53.8265819 42.6243805,54.3673476 42.8851881,54.8783539 C43.5426979,56.1663603 43.8899838,57.6098866 43.8899838,59.054098 L43.8899838,61.8404395 C43.57976,62.9051001 38.3938062,64.895344 29.5874306,64.895344 C20.7813982,64.895344 15.5954444,62.9051001 15.2855637,61.8404395 L15.2855637,59.283096 C17.840449,60.4691066 22.1690407,60.920337 25.6437447,60.920337 C26.2261007,60.920337 26.6979566,60.4489815 26.6979566,59.8680084 C26.6979566,59.2870353 26.2261007,58.8156798 25.6437447,58.8156798 C19.8076592,58.8156798 16.1108827,57.6603706 15.2855637,56.8189273 L15.2855637,55.075066 C16.7192765,55.738809 18.617081,56.1292786 20.2295842,56.3554505 C20.2793436,56.3623016 20.3287598,56.3657271 20.3774896,56.3657271 C20.8946436,56.3657271 21.3462527,55.9854912 21.4200337,55.460012 C21.5010214,54.8845198 21.0991717,54.3521895 20.5226496,54.2713466 C17.1874433,53.803802 15.7023411,53.0358795 15.2855637,52.6147939 L15.2855637,52.4818398 C15.2855637,51.1061394 15.7038854,49.7831924 16.4952306,48.6561868 L17.8126523,46.7810413 C19.0971299,44.9511131 18.9876593,42.4799221 17.546354,40.7719434 L16.5525396,39.5928695 C16.1688779,39.1386417 15.9454756,38.5617792 15.9235128,37.967104 L15.3799348,23.2913674 C18.746498,24.9292936 25.2394928,25.4347333 29.5874305,25.4347333 C33.9559583,25.4347333 40.4911627,24.9250973 43.8440421,23.2688444 L43.4184712,46.3549031 Z M15.2975747,20.7280306 C15.4460377,20.437544 16.05426,20.074864 17.0824769,19.713383 C18.0570739,19.3707425 19.4181637,19.0308424 21.1146573,18.7527734 C21.9037719,19.0827822 22.7378416,19.403799 23.6118475,19.713383 C24.6570083,20.0835563 25.7537731,20.4359597 26.8897018,20.7657116 C27.5398763,20.9544152 28.1975147,21.1383672 28.868837,21.3107151 C29.534926,21.4817784 30.2657021,21.6523708 31.0225161,21.8180389 C32.960986,22.2423788 35.1213139,22.6217155 37.1973084,22.8334144 C35.0966916,23.1302382 32.550171,23.3300762 29.5874307,23.3300762 C23.8446869,23.3300762 19.6346598,22.5883164 17.3152306,21.818039 C16.1974897,21.4468379 15.5191325,21.0704985 15.3273445,20.7657117 C15.3196232,20.7534653 15.3037088,20.7400201 15.2975747,20.7280306 Z M16.2038812,13.1993592 C16.8974236,12.4159362 22.3434987,12.0884537 30.6924314,14.2321622 C33.5522214,14.966343 35.9619896,15.7900163 37.9189047,16.5972897 C39.5607917,17.2745636 40.8838328,17.9396338 41.8565423,18.5301557 C42.5940531,18.9779177 43.1259205,19.3792208 43.4632546,19.7133831 C43.699011,19.9469628 43.8477314,20.1503547 43.8824342,20.3056605 C43.8305301,20.3643231 43.7434083,20.4192175 43.6389566,20.4718853 C43.4044871,20.5901524 43.0430455,20.6913774 42.5563905,20.7657117 C41.4883661,20.9289378 39.8323663,20.9611808 37.6851645,20.7657117 C35.8689053,20.6003006 33.7008561,20.2690928 31.2352374,19.7133831 C30.6368812,19.5785022 30.0270717,19.4348432 29.3945703,19.272515 C28.1148542,18.943962 26.9340991,18.5964401 25.8323156,18.2414676 C24.9572373,17.9595449 24.1388676,17.673169 23.3786219,17.3854229 C22.6648326,17.1152328 21.99943,16.8452139 21.3888913,16.5780639 C18.1264795,15.1504234 16.3436792,13.8221669 16.2038812,13.1993592 Z M18.6894466,36.9504012 C18.6894466,41.2700184 23.578217,44.7846316 29.5874307,44.7846316 C35.5969876,44.7846316 40.485758,41.2700184 40.485758,36.9504012 C40.485758,32.630784 35.5969876,29.116856 29.5874307,29.116856 C23.578217,29.116856 18.6894466,32.630784 18.6894466,36.9504012 Z M20.7978703,36.9504012 C20.7978703,33.79136 24.74087,31.2215133 29.5874307,31.2215133 C34.4343347,31.2215133 38.3773342,33.79136 38.3773342,36.9504012 C38.3773342,40.1094424 34.4343346,42.6799743 29.5874307,42.6799743 C24.74087,42.6799743 20.7978703,40.1094424 20.7978703,36.9504012 Z M12.7924487,13.3949581 C12.9599147,13.9516098 12.6435138,14.5380637 12.085866,14.7052305 C11.9849746,14.7357179 11.8827105,14.7501052 11.7825055,14.7501052 C11.3291807,14.7501052 10.9101727,14.4558506 10.7732486,13.99991 L10.2039343,12.1070374 L9.95891243,11.2923562 C9.83091079,10.8665604 9.54779727,10.5270886 9.16173334,10.3356004 C8.89444839,10.2032029 8.59662158,10.1581569 8.29390456,10.1831206 C8.12596678,10.1969513 7.95699945,10.2263254 7.78974796,10.2886704 C6.76848019,10.669934 5.68612849,10.623004 4.74241669,10.1564442 C3.82787417,9.70324405 3.16041248,8.90885858 2.86254273,7.91921752 L2.04820523,5.21166367 C1.88073924,4.65535449 2.19714014,4.06855802 2.75478801,3.9013912 C3.31140641,3.73319675 3.90028257,4.04971748 4.06740538,4.60671173 L4.63672099,6.49932749 L4.88174288,7.31392301 C5.0100877,7.73971874 5.29320123,8.07953319 5.67960833,8.27102136 C5.94624979,8.40299067 6.24373349,8.44803658 6.54657919,8.42307289 C6.71455992,8.4092422 6.88365593,8.37995379 7.05125053,8.31760879 C8.07320467,7.93566008 9.15589947,7.98327522 10.098925,8.45052007 C11.0134662,8.90337763 11.6805847,9.6977631 11.9781112,10.6874042 L12.7924487,13.3949581 Z M12.4386426,4.74407625 C11.9218316,4.20797782 11.6696032,3.49409344 11.7282849,2.73430671 L11.8648658,0.970491757 C11.9101639,0.391574002 12.4156503,-0.0362770686 12.9973199,0.00243164716 C13.5776169,0.047306307 14.0120675,0.553259945 13.9671125,1.13286277 L13.8305317,2.89667771 C13.824655,2.97131188 13.8331913,3.03896644 13.8521084,3.10118298 C13.8560548,3.11424287 13.863819,3.12529029 13.8688378,3.1377507 C13.8904145,3.19114641 13.9166669,3.24205863 13.957847,3.28479237 C14.0717787,3.40297378 14.2498829,3.46771669 14.4530383,3.45572723 C15.2539922,3.42935047 16.0206294,3.72154985 16.5501375,4.27066531 C17.0669484,4.80676375 17.3191769,5.52064812 17.2604951,6.28043486 L17.1239143,8.04425002 C17.0810183,8.59610595 16.6191143,9.0153931 16.0738205,9.0153931 C16.0467102,9.0153931 16.0192568,9.01436546 15.9914602,9.01231013 C15.4111632,8.96743547 14.9767125,8.46148183 15.0216676,7.88187901 L15.1582484,6.11806385 C15.1641251,6.04338689 15.1555888,5.97577513 15.1366717,5.91351579 C15.1327253,5.90054149 15.1250469,5.88953694 15.1200281,5.87707652 C15.0984514,5.82363794 15.0721562,5.77268293 15.0309331,5.7299492 C14.9166582,5.61176778 14.736495,5.5429142 14.5353986,5.55901434 C13.7323857,5.59395494 12.9681507,5.29319171 12.4386426,4.74407625 Z M9.57456434,17.5898853 C9.78218097,18.1328348 9.50970557,18.7408697 8.96578445,18.9484579 L7.31034229,19.5797866 C6.99702995,19.6993383 6.67479526,19.7589428 6.35564912,19.7589428 C5.95002465,19.7589428 5.5492045,19.6623423 5.17858309,19.4705116 C4.5008264,19.1200779 3.99842857,18.4729917 3.80042066,17.6950496 C3.74963183,17.4960252 3.64119074,17.3449585 3.49534439,17.2692539 C3.44245366,17.2419779 3.38608833,17.2312731 3.32869345,17.2257922 C3.31530988,17.2245076 3.30252692,17.2202685 3.28892886,17.2201829 C3.22376985,17.2197546 3.15633732,17.2307593 3.08594499,17.257607 L1.43084609,17.8889357 C0.886924898,18.0978942 0.277458644,17.8245353 0.0698420827,17.2819284 C-0.13811766,16.7389789 0.134014491,16.1306014 0.677935682,15.9230132 L2.33337784,15.291342 C3.04682396,15.0193534 3.80419558,15.0580621 4.4658234,15.4009595 C5.14358009,15.7517357 5.64563474,16.3988219 5.84364265,17.1764215 C5.89443148,17.3754459 6.00287257,17.5265126 6.14871892,17.6022172 C6.20221019,17.6295788 6.25969082,17.6408403 6.31841548,17.6459786 C6.33025477,17.6470491 6.3414077,17.6507743 6.35341862,17.6509028 C6.41904949,17.6515879 6.48703962,17.6405405 6.55743195,17.6138641 L8.2135604,16.9821929 C8.75679516,16.7763174 9.36694778,17.0469358 9.57456434,17.5898853 Z" id="Shape"></path>
        </g>
    </g>
</svg>