<?xml version="1.0" encoding="UTF-8"?>
<svg width="40px" height="58px" viewBox="0 0 40 58" version="1.1" xmlns="http://www.w3.org/2000/svg" xmlns:xlink="http://www.w3.org/1999/xlink">
    <!-- Generator: Sketch 49.2 (51160) - http://www.bohemiancoding.com/sketch -->
    <title>metallic</title>
    <desc>Created with Sketch.</desc>
    <defs></defs>
    <g id="Page-1" stroke="none" stroke-width="1" fill="none" fill-rule="evenodd">
        <g id="metallic" fill="#E3D26F" fill-rule="nonzero">
            <path d="M39.4113419,40.1613376 L39.8195171,17.9928928 C39.8196656,17.9843302 39.817549,17.9761012 39.8174376,17.9675757 C39.817549,17.9594579 39.8195171,17.951822 39.8195171,17.9436671 C39.8195171,17.897481 39.8113105,17.8534819 39.8076714,17.8082595 C39.9632993,16.5561191 38.7464604,15.2643907 36.0954382,13.867131 C33.75155,12.6320417 30.5301148,11.4559639 27.0246799,10.5559648 C23.5183539,9.65566919 20.1281825,9.1343518 17.4783114,9.08749843 C14.3079723,9.02878349 12.5903092,9.64677295 12.2495691,10.9699347 C11.9242023,12.2317868 13.0059854,13.5308546 15.546683,14.9339339 C13.1485794,15.5637479 11.4070764,16.523611 11.4070764,17.9436671 C11.4070764,17.9546021 11.4096387,17.9648327 11.4098614,17.9756935 C11.4098614,17.9872585 11.4072249,17.99849 11.4076705,18.0100921 L11.9605192,32.9346553 C11.9946823,33.8533364 12.3401756,34.746515 12.9331288,35.4481288 L13.7934457,36.4688197 C14.5087921,37.3163312 14.5628589,38.5428209 13.9253451,39.4508265 L12.7848905,41.0740868 C11.8835779,42.3581052 11.4070764,43.8651218 11.4070764,45.4320395 L11.4070764,53.6408613 C11.4070764,53.7262648 11.4189593,53.8087029 11.4409425,53.8869895 C12.0606321,56.71183 19.1843887,58 25.6129997,58 C32.0392342,58 39.1600201,56.7130162 39.7850569,53.8905479 C39.8076343,53.8110752 39.8195171,53.7274509 39.8195171,53.6408612 L39.8195171,51.1214569 C39.8195171,49.5853794 39.4499611,48.0493019 38.7512507,46.6798799 C38.3056445,45.8080522 38.2646488,44.7885475 38.6377697,43.8829141 C39.1273423,42.6967551 39.3875763,41.4441699 39.4113419,40.1613376 Z M37.5861392,40.1281251 C37.5671267,41.1832146 37.3526416,42.2133948 36.9504078,43.1890116 C36.8488839,43.4352881 36.7744305,43.6881996 36.7125284,43.9432241 C36.4020152,44.2985532 35.1273589,44.9943103 32.1455855,45.4118758 C31.6465067,45.4818592 31.2983398,45.9420894 31.3684484,46.4402767 C31.4326157,46.8957622 31.8229667,47.2249217 32.2709493,47.2249217 C32.3131334,47.2249217 32.3559115,47.2219563 32.3986897,47.2160255 C33.7862329,47.0217547 35.4181168,46.6871463 36.6566419,46.1187902 C36.7471371,46.5961455 36.8987175,47.0642711 37.1244912,47.5066348 C37.6936788,48.6216254 37.9943144,49.8712451 37.9943144,51.121458 L37.9943144,53.5335148 C37.7257624,54.4551613 33.2364292,56.178059 25.6129997,56.178059 C17.9898671,56.178059 13.500534,54.4551613 13.2322791,53.5335148 L13.2322791,51.319695 C15.4439708,52.3463908 19.1911098,52.7370082 22.1990626,52.7370082 C22.7031917,52.7370082 23.111664,52.3289691 23.111664,51.8260371 C23.111664,51.3231052 22.7031917,50.9150661 22.1990626,50.9150661 C17.1469289,50.9150661 13.9467343,49.9149476 13.2322791,49.1865341 L13.2322791,47.6769228 C14.4734035,48.2515063 16.116279,48.5895248 17.5121774,48.7853154 C17.5552526,48.7912462 17.5980308,48.7942116 17.6402149,48.7942116 C18.0879005,48.7942116 18.4788456,48.4650521 18.5427158,48.0101597 C18.6128245,47.5119724 18.2649546,47.0511491 17.7658757,46.9811657 C14.8786823,46.5764256 13.5930714,45.9116569 13.232279,45.5471351 L13.232279,45.4320404 C13.232279,44.2411356 13.5944082,43.0958979 14.2794534,42.1202811 L15.419908,40.4970208 C16.5318438,38.9129039 16.4370782,36.7736639 15.1893811,35.2951152 L14.3290642,34.2744243 C13.9969391,33.8812122 13.803546,33.3818387 13.7845335,32.8670452 L13.3139734,20.1626762 C16.2283117,21.5805825 21.8491132,22.0181274 25.6129995,22.0181274 C29.3947102,22.0181274 35.0520513,21.5769499 37.9545439,20.1431787 L37.5861392,40.1281251 Z M13.2426766,17.9436683 C13.3711968,17.6922023 13.8977176,17.3782405 14.7878158,17.0653166 C15.6314968,16.7687024 16.8097537,16.4744606 18.2783601,16.2337442 C18.9614742,16.5194234 19.6835047,16.7973185 20.4401068,17.0653166 C21.3448729,17.3857652 22.294311,17.6908308 23.2776523,17.9762877 C23.84049,18.139643 24.4097889,18.298885 24.9909335,18.4480818 C25.5675479,18.5961664 26.20016,18.7438434 26.8553124,18.8872576 C28.5333908,19.2545965 30.4035255,19.5829776 32.200655,19.7662394 C30.3822107,20.0231913 28.17776,20.1961854 25.6129997,20.1961854 C20.6416692,20.1961854 16.9971681,19.554065 14.9893041,18.8872576 C14.0217075,18.5659194 13.4344729,18.2401331 13.2684475,17.9762877 C13.2617634,17.9656864 13.2479868,17.9540472 13.2426766,17.9436683 Z M14.0272404,11.426311 C14.6276204,10.7481239 19.3421332,10.4646316 26.5695675,12.3203793 C29.0452066,12.9559387 31.1312746,13.6689693 32.8253205,14.367803 C34.2466555,14.9540998 35.3919747,15.5298323 36.2340217,16.0410303 C36.8724639,16.4286452 37.3328864,16.7760419 37.624907,17.0653167 C37.8289946,17.26752 37.9577376,17.4435907 37.9877789,17.5780345 C37.9428469,17.628817 37.8674281,17.6763375 37.7770072,17.7219306 C37.5740336,17.824311 37.2611438,17.9119386 36.8398604,17.9762878 C35.915302,18.117588 34.4817499,18.1454998 32.6229782,17.9762878 C31.0506941,17.833096 29.1738754,17.5463789 27.0394592,17.0653167 C26.5214792,16.9485541 25.9935845,16.8241926 25.4460459,16.6836697 C24.338232,16.3992507 23.3160858,16.0984108 22.362303,15.7911212 C21.6047726,15.5470687 20.8963331,15.2991612 20.23821,15.0500676 C19.6203029,14.8161717 19.0442827,14.582424 18.5157567,14.3511598 C15.6915793,13.1152919 14.1482596,11.9654579 14.0272404,11.426311 Z M16.1789239,31.9869145 C16.1789239,35.7262846 20.4109938,38.7687855 25.6129997,38.7687855 C30.8153027,38.7687855 35.0473726,35.7262846 35.0473726,31.9869145 C35.0473726,28.2475444 30.8153027,25.2056365 25.6129997,25.2056365 C20.4109938,25.2056365 16.1789239,28.2475444 16.1789239,31.9869145 Z M18.0041266,31.9869145 C18.0041266,29.2522221 21.4174695,27.0275786 25.6129997,27.0275786 C29.808827,27.0275786 33.2221699,29.2522221 33.2221699,31.9869145 C33.2221699,34.7216069 29.808827,36.9468434 25.6129997,36.9468434 C21.4174695,36.9468434 18.0041266,34.7216069 18.0041266,31.9869145 Z M11.0740601,11.5956354 C11.2190307,12.0775129 10.9451314,12.5851895 10.4623914,12.7299011 C10.3750526,12.7562931 10.2865255,12.7687478 10.1997809,12.7687478 C9.80735046,12.7687478 9.44462708,12.5140199 9.3260958,12.1193251 L8.83325658,10.4807189 L8.62114807,9.77547251 C8.51034068,9.40687322 8.26525733,9.11300204 7.93105274,8.94723616 C7.69967174,8.83262343 7.44185152,8.7936284 7.17979798,8.81523876 C7.034419,8.82721159 6.88814878,8.85263989 6.74336391,8.90661019 C5.85928135,9.23665925 4.92232019,9.19603328 4.10537565,8.79214571 C3.31368212,8.39982321 2.73587946,7.71214623 2.47802207,6.85544203 L1.77307318,4.51158945 C1.62810263,4.03000837 1.90200191,3.5220353 2.38474186,3.37732373 C2.86659062,3.23172256 3.37636402,3.50572558 3.52103749,3.9878997 L4.01387787,5.6262835 L4.22598638,6.33145574 C4.33709085,6.70005503 4.5821742,6.99422276 4.91667587,7.15998864 C5.14749982,7.27423073 5.40502302,7.31322569 5.66718796,7.29161533 C5.81260411,7.2796425 5.95898573,7.25428836 6.10406762,7.20031806 C6.98874434,6.86967589 7.92600253,6.91089497 8.74235297,7.31537558 C9.53404534,7.70740153 10.1115509,8.39507851 10.3691112,9.25178271 L11.0740601,11.5956354 Z M10.7677801,4.10681228 C10.3203916,3.64272706 10.1020446,3.02473761 10.1528437,2.36701178 L10.2710778,0.840127193 C10.3102911,0.338974509 10.7478764,-0.0314040295 11.2514113,0.00210500799 C11.7537579,0.0409517285 12.1298495,0.478941445 12.0909332,0.980687171 L11.9726991,2.50757175 C11.9676118,2.57218043 11.9750014,2.63074706 11.9913774,2.68460616 C11.9947937,2.69591174 12.001515,2.70547517 12.0058596,2.7162618 C12.0245379,2.76248495 12.0472638,2.80655822 12.0829123,2.8435516 C12.1815398,2.9458579 12.3357195,3.001904 12.5115854,2.99152506 C13.2049485,2.96869145 13.8686046,3.22164017 14.3269847,3.69699385 C14.7743733,4.16107906 14.9927203,4.77906852 14.9419212,5.43679435 L14.823687,6.96367912 C14.7865532,7.44140515 14.386696,7.80437014 13.9146506,7.80437014 C13.891182,7.80437014 13.8674163,7.80348055 13.8433536,7.8017013 C13.3410069,7.76285458 12.9649153,7.32486487 13.0038316,6.82311914 L13.1220658,5.29623438 C13.1271531,5.23158865 13.1197635,5.17305907 13.1033874,5.11916292 C13.0999712,5.10793144 13.0933242,5.09840511 13.0889795,5.08761848 C13.0703012,5.04135822 13.0475382,4.99724791 13.0118526,4.96025453 C12.912928,4.85794823 12.7569659,4.79834364 12.5828824,4.81228107 C11.8877369,4.84252816 11.2261603,4.58216596 10.7677801,4.10681228 Z M8.28842883,15.2270649 C8.46815666,15.6970809 8.23228243,16.2234394 7.76142534,16.4031427 L6.32835601,16.949666 C6.05713041,17.0531585 5.77818097,17.1047564 5.50190521,17.1047564 C5.1507676,17.1047564 4.80378897,17.0211322 4.48295253,16.8550697 C3.89623778,16.5517093 3.46132623,15.9915451 3.28991639,15.3181026 C3.24594994,15.1458129 3.15207557,15.0150387 3.02582052,14.9495033 C2.98003452,14.9258913 2.93124064,14.9166245 2.88155552,14.9118798 C2.86996974,14.9107678 2.85890391,14.9070981 2.84713244,14.907024 C2.79072614,14.9066533 2.73235171,14.9161797 2.67141507,14.939421 L1.23864288,15.4859443 C0.767785732,15.6668338 0.24018808,15.4301948 0.0604603104,14.9604753 C-0.119564541,14.4904593 0.116012545,13.9638042 0.586869695,13.7841009 L2.01993902,13.2372811 C2.6375491,13.0018283 3.29318424,13.0353373 3.86593667,13.3321739 C4.45265142,13.6358309 4.88726589,14.1959951 5.05867572,14.869141 C5.10264218,15.0414308 5.19651655,15.1722049 5.3227716,15.2377403 C5.36907748,15.2614264 5.41883683,15.2711752 5.4696731,15.2756233 C5.47992204,15.27655 5.48957682,15.2797748 5.49997433,15.279886 C5.55678911,15.2804791 5.61564624,15.2709157 5.67658289,15.2478226 L7.11024632,14.7010028 C7.58050924,14.5227822 8.10870106,14.7570489 8.28842883,15.2270649 Z" id="Shape"></path>
        </g>
    </g>
</svg>