<?xml version="1.0" encoding="UTF-8"?>
<svg width="76px" height="67px" viewBox="0 0 76 67" version="1.1" xmlns="http://www.w3.org/2000/svg" xmlns:xlink="http://www.w3.org/1999/xlink">
    <!-- Generator: Sketch 49.2 (51160) - http://www.bohemiancoding.com/sketch -->
    <title>musty</title>
    <desc>Created with Sketch.</desc>
    <defs></defs>
    <g id="Page-1" stroke="none" stroke-width="1" fill="none" fill-rule="evenodd">
        <g id="musty" transform="translate(0.000000, -1.000000)">
            <path d="M42.32,45 C39.3833358,46.7845225 36.6299875,48.854558 34.1,51.18 C36.7028669,48.9436543 39.4486833,46.8792814 42.32,45 Z" id="Shape"></path>
            <path d="M30.26,56.08 C34.01,51.91 30.67,31.66 28.84,28.08 C27.4052277,28.3493093 25.9497316,28.4931859 24.49,28.51 C23.97,28.51 22.59,28.64 20.76,28.7 C21.02,31.61 21.63,39.77 20.64,44.14 C20.248381,45.7407054 19.6816299,47.2934022 18.95,48.77 C17.87,51.11 17.22,52.52 18.67,54.69 C20.0346657,56.8206238 22.2860677,58.2236182 24.8,58.51 C26.9037825,58.6192554 28.9330127,57.7161364 30.26,56.08 Z" id="Shape"></path>
            <path d="M24.45,26.5 L24.5,26.5 C24.58,26.5 31.01,26.65 42.1,21.83 C45.1,20.53 46.71,18.92 46.94,17.05 C47.33,13.78 43.43,10.05 41.94,8.88 C35.85,4.51 30.22,3 25.31,3 C14.31,3 6.89,10.65 6.45,11.11 C2.77,15 0.38,20.59 3.33,24.3 C5.4,26.91 17.33,27.04 24.4,26.51 L24.45,26.5 Z M36.87,9.23 C37.7999877,10.2173438 38.5998158,11.319628 39.25,12.51 C39.9087304,13.7090428 40.3840108,15.0000525 40.66,16.34 C40.9515119,17.6810071 40.9515119,19.0689929 40.66,20.41 C40.12,19.14 39.66,17.96 39.16,16.81 C38.66,15.66 38.09,14.55 37.48,13.46 C36.87,12.37 36.26,11.27 35.62,10.16 C34.98,9.05 34.31,7.95 33.62,6.75 C34.8417223,7.37756501 35.9421713,8.21729217 36.87,9.23 Z M30.48,9.57 C31.1487177,11.1256202 31.6223181,12.7580299 31.89,14.43 C32.1471579,16.0834875 32.2209383,17.7603163 32.11,19.43 C32.052839,20.2646023 31.9527063,21.0957044 31.81,21.92 C31.6410326,22.7420125 31.4239932,23.553406 31.16,24.35 C30.99,23.51 30.92,22.69 30.82,21.88 L30.54,19.46 C30.36,17.86 30.14,16.28 29.9,14.71 C29.66,13.14 29.36,11.59 28.99,10.03 C28.62,8.47 28.21,6.93 27.65,5.35 C28.8785897,6.54284404 29.8427624,7.98058571 30.48,9.57 Z M6.05,16 C5.96,16.59 5.88,17.15 5.78,17.72 C5.68,18.29 5.57,18.87 5.42,19.47 C5.26617631,20.1308686 5.04502068,20.7742304 4.76,21.39 C4.30394763,20.8304195 3.99155284,20.1678679 3.85,19.46 C3.71616881,18.7697606 3.71616881,18.0602394 3.85,17.37 C3.97211891,16.6542292 4.24479587,15.9725368 4.65,15.37 C5.05491483,14.7393974 5.66650449,14.2692157 6.38,14.04 L6.05,16 Z M10.73,17.9 C10.5,18.74 10.26,19.57 10,20.43 C9.73373047,21.3307192 9.39943573,22.2099144 9,23.06 C8.63722624,22.1532381 8.44729247,21.1866109 8.44,20.21 C8.42546689,19.2471404 8.55008686,18.2872298 8.81,17.36 C9.06924648,16.4305485 9.47065576,15.5467735 10,14.74 C10.5309982,13.8944906 11.2762028,13.2044864 12.16,12.74 L10.73,17.9 Z M19.13,14 C18.85,15.29 18.63,16.56 18.43,17.84 C18.23,19.12 18.08,20.39 18,21.69 C17.92,22.99 17.92,24.3 17.84,25.69 C17.1030242,24.4680803 16.6295687,23.1056186 16.45,21.69 C16.2294455,20.2919786 16.2294455,18.8680214 16.45,17.47 C16.6655444,16.088143 17.0692946,14.7423088 17.65,13.47 C18.218907,12.205501 19.0154858,11.0563938 20,10.08 L19.13,14 Z" id="Shape"></path>
            <path d="M48.88,49.8 C52.11,47.21 55.48,45.06 60.78,46.8 C60.4149708,45.4858931 59.3386761,44.4909013 58,44.23 L57,44 L57.24,43 C57.24,42.95 58.49,37.65 56.29,34.5 C55.5566448,33.4553338 54.463413,32.7182036 53.22,32.43 C53.14,34.25 52.58,34.51 52.29,34.65 C51.8116966,34.8652561 51.2500715,34.7616941 50.88,34.39 C50.4639683,33.9616773 50.1255939,33.4642668 49.88,32.92 C49.61,32.4 49.12,31.43 48.77,31.33 C48.6702273,31.3340264 48.573433,31.3651389 48.49,31.42 C48.05,31.68 47.79,31.93 47.74,32.17 C47.61,32.7 48.24,33.75 48.83,34.69 C50.5289628,37.8117344 49.8069982,41.6969887 47.1,44 C46.36,44.6 45.1,45.48 43.59,46.5 C40.23,48.81 35.15,52.3 33.81,54.42 L33.28,54.08 C33.042005,55.1572185 32.5934058,56.1767622 31.96,57.08 C31.8954636,57.5584984 31.9294946,58.0451409 32.06,58.51 C33.2693352,58.2099088 34.5460643,58.593311 35.39,59.51 C35.9727067,60.0901092 36.2629137,60.9019541 36.18,61.72 C36.6435389,62.0232124 37.1861084,62.1832008 37.74,62.18 C38.5675066,62.1990101 39.3560256,61.8288134 39.87,61.18 C40.37,60.52 40.95,59.66 41.61,58.7 C43.68,55.65 46.26,51.89 48.88,49.8 Z" id="Shape"></path>
            <path d="M46.12,42.2 C47.7916533,40.4979632 48.1937784,37.9203413 47.12,35.79 C46.2,34.33 45.47,33.02 45.78,31.73 C46.0367794,30.8583243 46.6457297,30.1333834 47.46,29.73 C48.0076204,29.3753099 48.680114,29.269892 49.31,29.44 C50.1161178,29.7485438 50.7741833,30.3529627 51.15,31.13 L51.1,30.13 L52.27,30.26 L52.79,30.34 C51.8409922,29.8177462 50.8341502,29.4082971 49.79,29.12 C48.3356047,28.6195549 46.7403024,28.7314426 45.37,29.43 C44.1962676,30.268522 43.4618676,31.590442 43.37,33.03 C43.0139495,36.0607273 43.7981453,39.1155261 45.57,41.6 L46.12,42.2 Z" id="Shape"></path>
            <path d="M37.75,64.2 C36.9647138,64.1999722 36.1904753,64.0149771 35.49,63.66 C34.23,63 34,62.08 34.2,61.44 C34.1780363,61.2052021 34.062752,60.9890441 33.88,60.84 C33.5347302,60.502013 33.0360606,60.3725873 32.57,60.5 C31.9301368,60.688804 31.2381398,60.5337664 30.74,60.09 C30.5522513,59.9097042 30.3996586,59.6960744 30.29,59.46 C30.04,61.46 30.12,64.24 31.59,64.61 C34.81,65.42 38.09,65.73 40.71,63.14 C39.8793206,63.8315367 38.830834,64.2070083 37.75,64.2 Z" id="Shape"></path>
            <path d="M70,33.06 C65.75,25.22 54.39,22.69 46.84,25.33 C45.2026613,25.7942749 43.8395195,26.9320439 43.09,28.46 C42.9991614,28.6748024 42.9223339,28.8952641 42.86,29.12 C43.2682986,28.5792816 43.7694193,28.1154063 44.34,27.75 C46.17339,26.7315329 48.3498039,26.528401 50.34,27.19 C54.56,28.29 60.68,32.35 65,40.44 C65.8076143,41.931469 66.4996439,43.4826851 67.07,45.08 C67.3,44.87 67.52,44.66 67.73,44.44 C68.297078,43.8450271 68.812285,43.2026911 69.27,42.52 C69.7432345,41.8308651 70.1484675,41.0974269 70.48,40.33 C70.8216838,39.5535436 71.0895315,38.7466523 71.28,37.92 C71.2378849,39.6656256 70.871665,41.3882158 70.2,43 C69.8667378,43.8156581 69.4653169,44.6017741 69,45.35 C68.6153968,45.9287531 68.1910413,46.480081 67.73,47 C67.9707761,47.8771945 68.1544938,48.7690607 68.28,49.67 L68.65,49.45 C69.203854,49.0891788 69.7227768,48.6773885 70.2,48.22 C70.6913472,47.7594819 71.130646,47.2464077 71.51,46.69 C71.9070703,46.1241441 72.2423199,45.5173422 72.51,44.88 C72.2927438,46.3060419 71.7746098,47.6695524 70.99,48.88 C70.2978155,49.9602055 69.4368853,50.9224216 68.44,51.73 C68.5203622,53.51119 68.0602248,55.2750501 67.12,56.79 C66.8353958,57.1892743 66.4991355,57.5490728 66.12,57.86 C67.7399932,57.741383 69.2484478,56.9907473 70.32,55.77 C74.31,51.38 74.13,40.77 70,33.06 Z M58.45,27 L56.3,26.94 C55.6,26.94 54.9,26.94 54.17,26.94 C53.44,26.94 52.7,26.94 51.84,26.94 C52.3165465,26.2093404 53.0188831,25.6544945 53.84,25.36 C54.6353751,25.0470968 55.4855868,24.8974595 56.34,24.92 C58.0570792,24.9120423 59.6952866,25.6401345 60.84,26.92 C60.0454206,26.9907591 59.2475326,27.0174667 58.45,27 Z M60,32.25 C60.1059054,31.5950577 60.4259283,30.9936959 60.91,30.54 C61.3644908,30.0797819 61.9238069,29.7366432 62.54,29.54 C63.7964917,29.0856155 65.2021271,29.3884872 66.16,30.32 C65.6280707,30.5671776 65.0840507,30.7874557 64.53,30.98 L63.14,31.44 C62.69,31.58 62.22,31.71 61.72,31.85 C61.22,31.99 60.68,32.14 60,32.25 Z M68.7,35.61 C68.2270218,36.1091205 67.6452693,36.4923928 67,36.73 C66.3586155,36.9550059 65.6780887,37.046877 65,37 C64.3128568,36.9764193 63.6439236,36.7729808 63.06,36.41 C64.0557383,35.7405785 65.1393577,35.2122299 66.28,34.84 C66.78,34.65 67.28,34.5 67.78,34.32 C68.28,34.14 68.78,33.95 69.4800217,33.66 C69.4828567,34.3865829 69.2031603,35.0858239 68.7,35.61 Z" id="Shape"></path>
            <path d="M65.46,55.67 C66.89,53.58 67.17,48.58 63.29,41.39 C62.0622056,39.0966493 60.5466178,36.9694497 58.78,35.06 C59.5924737,37.4702468 59.7816823,40.0469247 59.33,42.55 C61.667292,43.5550803 63.1316181,45.9091739 63,48.45 L62.94,49.94 L61.58,49.32 C56.33,46.92 53.4,48.74 50.12,51.32 C48.12,52.95 45.88,55.96 44.12,58.53 C46.3404845,55.8258391 49.0052386,53.5195418 52,51.71 L52.73,51.29 L53.27,51.94 C53.27,51.94 57.1,56.48 62.12,57.09 C63.4170312,57.3263476 64.7302757,56.7680221 65.46,55.67 Z" id="Shape"></path>
            <path d="M4.61,15.42 C4.20479587,16.0225368 3.93211891,16.7042292 3.81,17.42 C3.67616881,18.1102394 3.67616881,18.8197606 3.81,19.51 C3.95155284,20.2178679 4.26394763,20.8804195 4.72,21.44 C5.00502068,20.8242304 5.22617631,20.1808686 5.38,19.52 C5.53,18.92 5.64,18.34 5.74,17.77 C5.84,17.2 5.93,16.64 6.01,16.05 L6.29,14.11 C5.59796695,14.3441104 5.00573795,14.8059081 4.61,15.42 Z" id="Shape" fill="#000000" fill-rule="nonzero"></path>
            <path d="M10,14.74 C9.46527962,15.5523157 9.06042168,16.4430031 8.8,17.38 C8.54008686,18.3072298 8.41546689,19.2671404 8.43,20.23 C8.44047326,21.2072474 8.63380324,22.1738973 9,23.08 C9.39943573,22.2299144 9.73373047,21.3507192 10,20.45 C10.27,19.59 10.5,18.76 10.73,17.92 L12.16,12.75 C11.2774436,13.2117214 10.5323592,13.898165 10,14.74 Z" id="Shape" fill="#000000" fill-rule="nonzero"></path>
            <path d="M16.46,17.57 C16.2394455,18.9680214 16.2394455,20.3919786 16.46,21.79 C16.6395687,23.2056186 17.1130242,24.5680803 17.85,25.79 C17.94,24.37 17.85,23.07 18.01,21.79 C18.17,20.51 18.24,19.22 18.44,17.94 C18.64,16.66 18.86,15.39 19.14,14.1 L20.01,10.1 C19.0219447,11.098047 18.2284144,12.2713866 17.67,13.56 C17.0849807,14.8349659 16.6778431,16.1842403 16.46,17.57 Z" id="Shape" fill="#000000" fill-rule="nonzero"></path>
            <path d="M29.92,14.74 C30.16,16.31 30.38,17.89 30.56,19.49 L30.84,21.91 C30.94,22.72 31.01,23.54 31.18,24.38 C31.4439932,23.583406 31.6610326,22.7720125 31.83,21.95 C31.9727063,21.1257044 32.072839,20.2946023 32.13,19.46 C32.2409383,17.7903163 32.1671579,16.1134875 31.91,14.46 C31.6423181,12.7880299 31.1687177,11.1556202 30.5,9.6 C29.8649747,8.02308155 28.907915,6.59600673 27.69,5.41 C28.25,6.99 28.69,8.54 29.03,10.09 C29.37,11.64 29.65,13.18 29.92,14.74 Z" id="Shape" fill="#000000" fill-rule="nonzero"></path>
            <path d="M37.49,13.46 C38.1,14.56 38.64,15.67 39.17,16.81 C39.7,17.95 40.17,19.14 40.67,20.41 C40.9615119,19.0689929 40.9615119,17.6810071 40.67,16.34 C40.3940108,15.0000525 39.9187304,13.7090428 39.26,12.51 C38.6098158,11.319628 37.8099877,10.2173438 36.88,9.23 C35.9670941,8.22199398 34.8839054,7.38252276 33.68,6.75 C34.33,7.95 34.99,9.06 35.68,10.16 C36.37,11.26 36.89,12.36 37.49,13.46 Z" id="Shape" fill="#000000" fill-rule="nonzero"></path>
            <path d="M71.71,32.11 C67,23.38 54.44,20.54 46.14,23.44 C43.9725292,24.0735479 42.1810142,25.6065313 41.22,27.65 C39.84,30.78 40.99,34.23 41.31,35.08 C41.4195484,37.5219454 42.1306094,39.8990189 43.38,42 C40.0746493,43.9675485 36.9193732,46.1769102 33.94,48.61 C34.13,41.11 32.36,31.49 30.82,27.73 C34.9669298,26.7918337 39.012678,25.4521819 42.9,23.73 C46.58,22.13 48.61,19.98 48.9,17.35 C49.51,12.28 43.34,7.55 43.06,7.35 C22.07,-7.9 5.68,9 5,9.73 C0.73,14.25 -1.93,20.89 1.77,25.54 C3.89,28.21 11.43,28.76 17.29,28.76 L18.77,28.76 C19.01,31.46 19.63,39.6 18.7,43.71 C18.3348091,45.1755729 17.811751,46.5972181 17.14,47.95 C16,50.39 14.94,52.7 17,55.8 C18.7106012,58.4419146 21.5208284,60.1721329 24.65,60.51 L25.24,60.51 C26.2679764,60.511208 27.2865519,60.3142834 28.24,59.93 C28.04,62.28 28.24,65.81 31.12,66.53 C32.5465146,66.9329509 34.0180868,67.1546947 35.5,67.19 C38.9705557,67.2594033 42.1921104,65.3942927 43.86,62.35 C46.0357402,58.9411016 48.9214024,56.0417956 52.32,53.85 C54.5209455,56.1780605 57.3033623,57.8765084 60.38,58.77 C62.0014918,59.4728417 63.7432712,59.8565085 65.51,59.9 C67.9236421,59.9406485 70.2337143,58.920854 71.83,57.11 C76.38,52.08 76.33,40.62 71.71,32.11 Z M43.39,33 C43.4818676,31.560442 44.2162676,30.238522 45.39,29.4 C46.7603024,28.7014426 48.3556047,28.5895549 49.81,29.09 C50.8541502,29.3782971 51.8609922,29.7877462 52.81,30.31 L52.29,30.23 L51.12,30.1 L51.17,31.1 C50.7941833,30.3229627 50.1361178,29.7185438 49.33,29.41 C48.700114,29.239892 48.0276204,29.3453099 47.48,29.7 C46.6657297,30.1033834 46.0567794,30.8283243 45.8,31.7 C45.49,32.99 46.22,34.3 47.14,35.76 C48.2137784,37.8903413 47.8116533,40.4679632 46.14,42.17 L45.61,41.56 C43.8335254,39.0809581 43.0422588,36.0299484 43.39,33 Z M41.61,58.67 C40.95,59.67 40.36,60.48 39.87,61.15 C39.3560256,61.7988134 38.5675066,62.1690101 37.74,62.15 C37.1861084,62.1532008 36.6435389,61.9932124 36.18,61.69 C36.2629137,60.8719541 35.9727067,60.0601092 35.39,59.48 C34.5460643,58.563311 33.2693352,58.1799088 32.06,58.48 C31.9294946,58.0151409 31.8954636,57.5284984 31.96,57.05 C32.5934058,56.1467622 33.042005,55.1272185 33.28,54.05 L33.81,54.39 C35.15,52.27 40.23,48.78 43.59,46.47 C45.07,45.47 46.35,44.57 47.1,43.97 C49.8035747,41.6643279 50.5212944,37.779461 48.82,34.66 C48.23,33.72 47.6,32.66 47.73,32.14 C47.79,31.9 48.04,31.65 48.48,31.39 C48.563433,31.3351389 48.6602273,31.3040264 48.76,31.3 C49.1,31.4 49.6,32.37 49.87,32.89 C50.1155939,33.4342668 50.4539683,33.9316773 50.87,34.36 C51.2400715,34.7316941 51.8016966,34.8352561 52.28,34.62 C52.57,34.48 53.13,34.21 53.21,32.4 C54.453413,32.6882036 55.5466448,33.4253338 56.28,34.47 C58.48,37.62 57.28,42.91 57.23,42.97 L57,44 L58,44.21 C59.3633429,44.4687597 60.456581,45.4880777 60.81,46.83 C55.51,45.04 52.15,47.19 48.91,49.83 C46.26,51.89 43.68,55.65 41.61,58.67 Z M42.32,45 C39.4486833,46.8792814 36.7028669,48.9436543 34.1,51.18 C36.6299875,48.854558 39.3833358,46.7845225 42.32,45 Z M3.32,24.31 C0.32,20.6 2.76,15.01 6.44,11.12 C6.89,10.64 14.3,3 25.31,3 C30.22,3 35.85,4.52 41.9,8.89 C43.44,10.05 47.34,13.79 46.9,17.06 C46.67,18.94 45.05,20.55 42.06,21.84 C31,26.65 24.58,26.51 24.5,26.5 L24.39,26.5 C17.35,27 5.4,26.91 3.32,24.29 L3.32,24.31 Z M24.8,58.52 C22.2860677,58.2336182 20.0346657,56.8306238 18.67,54.7 C17.22,52.53 17.87,51.12 18.95,48.78 C19.6816299,47.3034022 20.248381,45.7507054 20.64,44.15 C21.64,39.78 21.02,31.63 20.76,28.71 C22.59,28.65 23.97,28.55 24.49,28.52 C25.9497316,28.5031859 27.4052277,28.3593093 28.84,28.09 C30.67,31.68 34.01,51.93 30.26,56.09 C28.9330127,57.7261364 26.9037825,58.6292554 24.8,58.52 Z M31.6,64.62 C30.13,64.25 30.05,61.48 30.3,59.47 C30.4096586,59.7060744 30.5622513,59.9197042 30.75,60.1 C31.2481398,60.5437664 31.9401368,60.698804 32.58,60.51 C33.0460606,60.3825873 33.5447302,60.512013 33.89,60.85 C34.072752,60.9990441 34.1880363,61.2152021 34.21,61.45 C34,62.09 34.21,63.01 35.5,63.66 C36.2004753,64.0149771 36.9747138,64.1999722 37.76,64.2 C38.8545421,64.2165358 39.9188088,63.840495 40.76,63.14 C38.1,65.73 34.82,65.42 31.6,64.61 L31.6,64.62 Z M53.27,51.94 L52.73,51.29 L52,51.71 C48.9949371,53.5297056 46.3231119,55.8497969 44.1,58.57 C45.88,56 48.1,53 50.1,51.36 C53.38,48.74 56.31,46.92 61.56,49.36 L62.92,49.98 L63,48.45 C63.1299822,45.906727 61.6612177,43.5519144 59.32,42.55 C59.7716823,40.0469247 59.5824737,37.4702468 58.77,35.06 C60.5366178,36.9694497 62.0522056,39.0966493 63.28,41.39 C67.16,48.59 66.88,53.58 65.45,55.67 C64.7218459,56.7642645 63.4137404,57.3220753 62.12,57.09 C57.1,56.48 53.31,52 53.27,51.94 Z M70.35,55.78 C69.2784478,57.0007473 67.7699932,57.751383 66.15,57.87 C66.5291355,57.5590728 66.8653958,57.1992743 67.15,56.8 C68.0902248,55.2850501 68.5503622,53.52119 68.47,51.74 C69.4597627,50.9308329 70.3138643,49.9687027 71,48.89 C71.7846098,47.6795524 72.3027438,46.3160419 72.52,44.89 C72.2523199,45.5273422 71.9170703,46.1341441 71.52,46.7 C71.140646,47.2564077 70.7013472,47.7694819 70.21,48.23 C69.7327768,48.6873885 69.213854,49.0991788 68.66,49.46 L68.29,49.68 C68.161633,48.7754706 67.9745715,47.8802478 67.73,47 C68.1910413,46.480081 68.6153968,45.9287531 69,45.35 C69.4653169,44.6017741 69.8667378,43.8156581 70.2,43 C70.8876202,41.3946353 71.270797,39.6754261 71.33,37.93 C71.1395315,38.7566523 70.8716838,39.5635436 70.53,40.34 C70.1984675,41.1074269 69.7932345,41.8408651 69.32,42.53 C68.862285,43.2126911 68.347078,43.8550271 67.78,44.45 C67.57,44.67 67.35,44.88 67.12,45.09 C66.533966,43.4877877 65.8251963,41.9331749 65,40.44 C60.64,32.35 54.52,28.29 50.25,27.18 C48.2598039,26.518401 46.08339,26.7215329 44.25,27.74 C43.6794193,28.1054063 43.1782986,28.5692816 42.77,29.11 C42.8323339,28.8852641 42.9091614,28.6648024 43,28.45 C43.7495195,26.9220439 45.1126613,25.7842749 46.75,25.32 C54.29,22.68 65.66,25.21 69.91,33.05 C74.16,40.89 74.31,51.38 70.35,55.78 Z" id="Shape" fill="#000000" fill-rule="nonzero"></path>
            <path d="M56.34,24.95 C55.4855868,24.9274595 54.6353751,25.0770968 53.84,25.39 C53.0188831,25.6844945 52.3165465,26.2393404 51.84,26.97 C52.7,26.92 53.44,26.97 54.17,26.97 C54.9,26.97 55.6,26.97 56.3,26.97 L58.45,27.03 C59.2460567,27.0740882 60.0439433,27.0740882 60.84,27.03 C59.7099466,25.7204275 58.0696966,24.9622675 56.34,24.95 Z" id="Shape" fill="#000000" fill-rule="nonzero"></path>
            <path d="M64.53,31 C65.0840507,30.8074557 65.6280707,30.5871776 66.16,30.34 C65.2021271,29.4084872 63.7964917,29.1056155 62.54,29.56 C61.9238069,29.7566432 61.3644908,30.0997819 60.91,30.56 C60.4297761,31.0084761 60.1100724,31.6022115 60,32.25 C60.68,32.14 61.21,32.01 61.72,31.88 C62.23,31.75 62.72,31.61 63.14,31.47 L64.53,31 Z" id="Shape" fill="#000000" fill-rule="nonzero"></path>
            <path d="M66.3,34.84 C65.1593577,35.2122299 64.0757383,35.7405785 63.08,36.41 C63.6580893,36.7696583 64.3196983,36.9729652 65,37 C65.678772,37.0436733 66.3593178,36.9483969 67,36.72 C67.6550625,36.4894106 68.247388,36.1093636 68.73,35.61 C69.2380702,35.0914895 69.5249023,34.3959218 69.53,33.67 C68.85,33.96 68.34,34.15 67.83,34.33 C67.32,34.51 66.8,34.66 66.3,34.84 Z" id="Shape" fill="#000000" fill-rule="nonzero"></path>
        </g>
    </g>
</svg>