<?xml version="1.0" encoding="UTF-8"?>
<svg width="65px" height="58px" viewBox="0 0 65 58" version="1.1" xmlns="http://www.w3.org/2000/svg" xmlns:xlink="http://www.w3.org/1999/xlink">
    <!-- Generator: Sketch 49.2 (51160) - http://www.bohemiancoding.com/sketch -->
    <title>musty</title>
    <desc>Created with Sketch.</desc>
    <defs></defs>
    <g id="Page-1" stroke="none" stroke-width="1" fill="none" fill-rule="evenodd">
        <g id="musty">
            <path d="M36.0964706,38.3823529 C33.5916688,39.9044456 31.2432246,41.6700642 29.0852941,43.6535294 C31.3053865,41.746058 33.6474063,39.9852694 36.0964706,38.3823529 Z" id="Shape"></path>
            <path d="M25.81,47.8329412 C29.0085294,44.2761765 26.1597059,27.0041176 24.5988235,23.9505882 C23.3750471,24.1802932 22.1335946,24.3030115 20.8885294,24.3173529 C20.445,24.3173529 19.2679412,24.4282353 17.7070588,24.4794118 C17.9288235,26.9614706 18.4491176,33.9214706 17.6047059,37.6488235 C17.2706779,39.0141311 16.7872726,40.3384901 16.1632353,41.5979412 C15.2420588,43.5938235 14.6876471,44.7964706 15.9244118,46.6473529 C17.0883913,48.4646497 19.0087048,49.6613214 21.1529412,49.9055882 C22.9473439,49.9987766 24.6781579,49.2284693 25.81,47.8329412 Z" id="Shape"></path>
            <path d="M20.8544118,22.6029412 L20.8970588,22.6029412 C20.9652941,22.6029412 26.4497059,22.7308824 35.9088235,18.6197059 C38.4676471,17.5108824 39.8408824,16.1376471 40.0370588,14.5426471 C40.3697059,11.7535294 37.0432353,8.57205882 35.7723529,7.57411765 C30.5779412,3.84676471 25.7758824,2.55882353 21.5879412,2.55882353 C12.2055882,2.55882353 5.87676471,9.08382353 5.50147059,9.47617647 C2.36264706,12.7941176 0.324117647,17.5620588 2.84029412,20.7264706 C4.60588235,22.9526471 14.7814706,23.0635294 20.8117647,22.6114706 L20.8544118,22.6029412 Z M31.4479412,7.87264706 C32.241166,8.71479327 32.9233723,9.65497683 33.4779412,10.6702941 C34.0397995,11.6930071 34.4451857,12.7941624 34.6805882,13.9370588 C34.9292307,15.080859 34.9292307,16.2647292 34.6805882,17.4085294 C34.22,16.3252941 33.8276471,15.3188235 33.4011765,14.3379412 C32.9747059,13.3570588 32.4885294,12.4102941 31.9682353,11.4805882 C31.4479412,10.5508824 30.9276471,9.61264706 30.3817647,8.66588235 C29.8358824,7.71911765 29.2644118,6.78088235 28.6758824,5.75735294 C29.7179396,6.29262898 30.6565578,7.00886685 31.4479412,7.87264706 Z M25.9976471,8.16264706 C26.568024,9.48949958 26.9719772,10.881849 27.2002941,12.3079412 C27.4196346,13.7182687 27.482565,15.1485051 27.3879412,16.5726471 C27.3391862,17.2845137 27.2537789,17.9933949 27.1320588,18.6964706 C26.9879396,19.3975989 26.8028177,20.0896698 26.5776471,20.7691176 C26.4326471,20.0526471 26.3729412,19.3532353 26.2876471,18.6623529 L26.0488235,16.5982353 C25.8952941,15.2335294 25.7076471,13.8858824 25.5029412,12.5467647 C25.2982353,11.2076471 25.0423529,9.88558824 24.7267647,8.555 C24.4111765,7.22441176 24.0614706,5.91088235 23.5838235,4.56323529 C24.6317383,5.58066109 25.4541209,6.80697016 25.9976471,8.16264706 Z M5.16029412,13.6470588 C5.08352941,14.1502941 5.01529412,14.6279412 4.93,15.1141176 C4.84470588,15.6002941 4.75088235,16.095 4.62294118,16.6067647 C4.49173862,17.1704467 4.30310587,17.7191965 4.06,18.2444118 C3.67101415,17.7671225 3.40455977,17.202005 3.28382353,16.5982353 C3.1696734,16.0095017 3.1696734,15.4043218 3.28382353,14.8155882 C3.38798378,14.2050778 3.62056118,13.6236343 3.96617647,13.1097059 C4.311545,12.5718389 4.83319501,12.1708016 5.44176471,11.9752941 L5.16029412,13.6470588 Z M9.15205882,15.2676471 C8.95588235,15.9841176 8.75117647,16.6920588 8.52941176,17.4255882 C8.30229952,18.1938487 8.01716577,18.9437505 7.67647059,19.6688235 C7.36704591,18.895409 7.20504357,18.0709328 7.19882353,17.2379412 C7.18642764,16.4166786 7.29272115,15.5979313 7.51441176,14.8070588 C7.73553376,14.0142914 8.07791226,13.2604833 8.52941176,12.5723529 C8.98232197,11.8511832 9.61793766,11.2626501 10.3717647,10.8664706 L9.15205882,15.2676471 Z M16.3167647,11.9411765 C16.0779412,13.0414706 15.8902941,14.1247059 15.7197059,15.2164706 C15.5491176,16.3082353 15.4211765,17.3914706 15.3529412,18.5002941 C15.2847059,19.6091176 15.2847059,20.7264706 15.2164706,21.9120588 C14.5878736,20.8698332 14.1840439,19.7077335 14.0308824,18.5002941 C13.8427623,17.3078641 13.8427623,16.0933123 14.0308824,14.9008824 C14.214729,13.7222396 14.5591043,12.5743222 15.0544118,11.4891176 C15.539656,10.4105744 16.2190908,9.4304535 17.0588235,8.59764706 L16.3167647,11.9411765 Z" id="Shape"></path>
            <path d="M41.6917647,42.4764706 C44.4467647,40.2673529 47.3211765,38.4335294 51.8417647,39.9176471 C51.5304162,38.7967912 50.6124002,37.9481217 49.4705882,37.7255882 L48.6176471,37.5294118 L48.8223529,36.6764706 C48.8223529,36.6338235 49.8885294,32.1132353 48.0120588,29.4264706 C47.38655,28.5354318 46.4540876,27.9067031 45.3935294,27.6608824 C45.3252941,29.2132353 44.8476471,29.435 44.6002941,29.5544118 C44.1923294,29.7380126 43.7132962,29.6496802 43.3976471,29.3326471 C43.0427965,28.967313 42.754183,28.5430511 42.5447059,28.0788235 C42.3144118,27.6352941 41.8964706,26.8079412 41.5979412,26.7226471 C41.5128409,26.7260813 41.4302811,26.7526184 41.3591176,26.7994118 C40.9838235,27.0211765 40.7620588,27.2344118 40.7194118,27.4391176 C40.6085294,27.8911765 41.1458824,28.7867647 41.6491176,29.5885294 C43.098233,32.2511852 42.4824397,35.5650786 40.1735294,37.5294118 C39.5423529,38.0411765 38.4676471,38.7917647 37.1797059,39.6617647 C34.3138235,41.6320588 29.9808824,44.6088235 28.8379412,46.4170588 L28.3858824,46.1270588 C28.1828866,47.0458628 27.8002578,47.9154737 27.26,48.6858824 C27.2049543,49.0940133 27.2339806,49.5090908 27.3452941,49.9055882 C28.3767859,49.6496281 29.4657607,49.9766476 30.1855882,50.7585294 C30.6826028,51.2533284 30.9301323,51.9457844 30.8594118,52.6435294 C31.2547832,52.9021517 31.7175631,53.0386125 32.19,53.0358824 C32.8958144,53.0520969 33.5683748,52.7363408 34.0067647,52.1829412 C34.4332353,51.62 34.9279412,50.8864706 35.4908824,50.0676471 C37.2564706,47.4661765 39.4570588,44.2591176 41.6917647,42.4764706 Z" id="Shape"></path>
            <path d="M39.3376471,35.9941176 C40.763469,34.5423804 41.106458,32.3438205 40.1905882,30.5267647 C39.4058824,29.2814706 38.7832353,28.1641176 39.0476471,27.0638235 C39.2666647,26.3203354 39.7860636,25.7020034 40.4805882,25.3579412 C40.9476762,25.0554114 41.5212737,24.9654961 42.0585294,25.1105882 C42.7461005,25.3737579 43.3073917,25.8892917 43.6279412,26.5520588 L43.5852941,25.6991176 L44.5832353,25.81 L45.0267647,25.8782353 C44.2173169,25.4327835 43.3585399,25.0835475 42.4679412,24.8376471 C41.2274275,24.4107969 39.8667285,24.5062305 38.6979412,25.1020588 C37.6968165,25.8172688 37.0704165,26.9447887 36.9920588,28.1726471 C36.6883687,30.7576791 37.3572415,33.3632429 38.8685294,35.4823529 L39.3376471,35.9941176 Z" id="Shape"></path>
            <path d="M32.1985294,54.7588235 C31.5287265,54.7587998 30.8683465,54.6010099 30.2708824,54.2982353 C29.1961765,53.7352941 29,52.9505882 29.1705882,52.4047059 C29.1518545,52.2044371 29.0535238,52.020067 28.8976471,51.8929412 C28.6031522,51.6046582 28.1778164,51.4942657 27.7802941,51.6029412 C27.2345284,51.7639799 26.6442957,51.6317419 26.2194118,51.2532353 C26.0592732,51.0994536 25.9291206,50.9172399 25.8355882,50.7158824 C25.6223529,52.4217647 25.6905882,54.7929412 26.9444118,55.1085294 C29.6908824,55.7994118 32.4885294,56.0638235 34.7232353,53.8547059 C34.0147146,54.444546 33.1204173,54.7648012 32.1985294,54.7588235 Z" id="Shape"></path>
            <path d="M59.7058824,28.1982353 C56.0808824,21.5111765 46.3914706,19.3532353 39.9517647,21.605 C38.5552111,22.0009992 37.3925313,22.9714492 36.7532353,24.2747059 C36.6757553,24.4579197 36.6102259,24.6459606 36.5570588,24.8376471 C36.9053135,24.3764461 37.33274,23.9807877 37.8194118,23.6691176 C39.3831856,22.8004251 41.2395386,22.6271655 42.9370588,23.1914706 C46.5364706,24.1297059 51.7564706,27.5926471 55.4411765,34.4929412 C56.130024,35.7650765 56.7202845,37.0881726 57.2067647,38.4505882 C57.4029412,38.2714706 57.5905882,38.0923529 57.7697059,37.9047059 C58.25339,37.397229 58.6928313,36.8493542 59.0832353,36.2670588 C59.4868765,35.6792673 59.8325164,35.0536876 60.1152941,34.3991176 C60.4067303,33.736846 60.6351886,33.0486152 60.7976471,32.3435294 C60.7617254,33.8324453 60.4493613,35.3017134 59.8764706,36.6764706 C59.5922176,37.3721789 59.2498291,38.0426897 58.8529412,38.6808824 C58.5248972,39.1745247 58.162947,39.644775 57.7697059,40.0882353 C57.9750737,40.8364306 58.1317741,41.59714 58.2388235,42.3655882 L58.5544118,42.1779412 C59.0268167,41.870182 59.4694273,41.518949 59.8764706,41.1288235 C60.2955609,40.7360287 60.6702569,40.2984066 60.9938235,39.8238235 C61.3325011,39.3411817 61.6184494,38.8236154 61.8467647,38.28 C61.6614579,39.4963299 61.2195201,40.6593241 60.5502941,41.6917647 C59.9599015,42.6131164 59.2255787,43.4338302 58.3752941,44.1226471 C58.4438384,45.6418973 58.0513682,47.1463663 57.2494118,48.4385294 C57.0066611,48.7790869 56.7198509,49.0859738 56.3964706,49.3511765 C57.7782295,49.2500031 59.0648525,48.609755 59.9788235,47.5685294 C63.3820588,43.8241176 63.2285294,34.7744118 59.7058824,28.1982353 Z M49.8544118,23.0294118 L48.0205882,22.9782353 C47.4235294,22.9782353 46.8264706,22.9782353 46.2038235,22.9782353 C45.5811765,22.9782353 44.95,22.9782353 44.2164706,22.9782353 C44.6229367,22.3550257 45.2219885,21.8817747 45.9223529,21.6305882 C46.6007611,21.3637002 47.3259417,21.2360684 48.0547059,21.2552941 C49.5192735,21.2485066 50.916568,21.8695264 51.8929412,22.9611765 C51.2152117,23.0215299 50.5346602,23.0443098 49.8544118,23.0294118 Z M51.1764706,27.5073529 C51.2668017,26.9487257 51.5397624,26.4357995 51.9526471,26.0488235 C52.3403009,25.6562846 52.8173647,25.3636074 53.3429412,25.1958824 C54.4146547,24.8083191 55.613579,25.0666509 56.4305882,25.8611765 C55.9768839,26.0720045 55.5128668,26.2598887 55.0402941,26.4241176 L53.8547059,26.8164706 C53.4708824,26.9358824 53.07,27.0467647 52.6435294,27.1661765 C52.2170588,27.2855882 51.7564706,27.4135294 51.1764706,27.5073529 Z M58.5970588,30.3732353 C58.1936363,30.7989557 57.6974356,31.1258644 57.1470588,31.3285294 C56.5999955,31.5204462 56.0195463,31.5988068 55.4411765,31.5588235 C54.8550838,31.5387106 54.284523,31.3651895 53.7864706,31.0555882 C54.6357768,30.4846111 55.5600404,30.0339608 56.5329412,29.7164706 C56.9594118,29.5544118 57.3858824,29.4264706 57.8123529,29.2729412 C58.2388235,29.1194118 58.6652941,28.9573529 59.2623714,28.71 C59.2647895,29.3297325 59.026225,29.9261439 58.5970588,30.3732353 Z" id="Shape"></path>
            <path d="M55.8335294,47.4832353 C57.0532353,45.7005882 57.2920588,41.4358824 53.9826471,35.3032353 C52.9354106,33.3471421 51.6427034,31.5327659 50.1358824,29.9041176 C50.8288746,31.9599164 50.9902585,34.157671 50.605,36.2926471 C52.5985726,37.1499214 53.8475566,39.1578248 53.7352941,41.325 L53.6841176,42.5958824 L52.5241176,42.0670588 C48.0461765,40.02 45.5470588,41.5723529 42.7494118,43.7729412 C41.0435294,45.1632353 39.1329412,47.7305882 37.6317647,49.9226471 C39.5257074,47.6161569 41.7985858,45.6490209 44.3529412,44.1055882 L44.9755882,43.7473529 L45.4361765,44.3017647 C45.4361765,44.3017647 48.7029412,48.1741176 52.9847059,48.6944118 C54.0909972,48.8960024 55.2111175,48.4197835 55.8335294,47.4832353 Z" id="Shape"></path>
            <path d="M3.93205882,13.1523529 C3.58644354,13.6662814 3.35386613,14.2477249 3.24970588,14.8582353 C3.13555575,15.4469689 3.13555575,16.0521488 3.24970588,16.6408824 C3.37044212,17.244652 3.63689651,17.8097695 4.02588235,18.2870588 C4.26898823,17.7618436 4.45762097,17.2130938 4.58882353,16.6494118 C4.71676471,16.1376471 4.81058824,15.6429412 4.89588235,15.1567647 C4.98117647,14.6705882 5.05794118,14.1929412 5.12617647,13.6897059 L5.365,12.035 C4.77473652,12.2346824 4.26960001,12.6285686 3.93205882,13.1523529 Z" id="Shape" fill="#E3D26F" fill-rule="nonzero"></path>
            <path d="M8.52941176,12.5723529 C8.07332674,13.2652104 7.72800673,14.0249144 7.50588235,14.8241176 C7.28419174,15.6149901 7.17789823,16.4337374 7.19029412,17.255 C7.19922719,18.0885345 7.36412629,18.91303 7.67647059,19.6858824 C8.01716577,18.9608093 8.30229952,18.2109075 8.52941176,17.4426471 C8.75970588,16.7091176 8.95588235,16.0011765 9.15205882,15.2847059 L10.3717647,10.875 C9.61899601,11.2688212 8.98348281,11.8543172 8.52941176,12.5723529 Z" id="Shape" fill="#E3D26F" fill-rule="nonzero"></path>
            <path d="M14.0394118,14.9861765 C13.8512917,16.1786064 13.8512917,17.3931583 14.0394118,18.5855882 C14.1925733,19.7930277 14.596403,20.9551273 15.225,21.9973529 C15.3017647,20.7861765 15.225,19.6773529 15.3614706,18.5855882 C15.4979412,17.4938235 15.5576471,16.3935294 15.7282353,15.3017647 C15.8988235,14.21 16.0864706,13.1267647 16.3252941,12.0264706 L17.0673529,8.61470588 C16.2245999,9.46598127 15.5477652,10.4667709 15.0714706,11.5658824 C14.5724836,12.6533533 14.2252191,13.8042049 14.0394118,14.9861765 Z" id="Shape" fill="#E3D26F" fill-rule="nonzero"></path>
            <path d="M25.52,12.5723529 C25.7247059,13.9114706 25.9123529,15.2591176 26.0658824,16.6238235 L26.3047059,18.6879412 C26.39,19.3788235 26.4497059,20.0782353 26.5947059,20.7947059 C26.8198765,20.115258 27.0049984,19.4231871 27.1491176,18.7220588 C27.2708377,18.0189832 27.3562451,17.3101019 27.405,16.5982353 C27.4996239,15.1740933 27.4366935,13.743857 27.2173529,12.3335294 C26.989036,10.9074373 26.5850828,9.51508782 26.0147059,8.18823529 C25.4730667,6.84321662 24.656751,5.62600574 23.6179412,4.61441176 C24.0955882,5.96205882 24.4708824,7.28411765 24.7608824,8.60617647 C25.0508824,9.92823529 25.2897059,11.2417647 25.52,12.5723529 Z" id="Shape" fill="#E3D26F" fill-rule="nonzero"></path>
            <path d="M31.9767647,11.4805882 C32.4970588,12.4188235 32.9576471,13.3655882 33.4097059,14.3379412 C33.8617647,15.3102941 34.2626471,16.3252941 34.6891176,17.4085294 C34.9377601,16.2647292 34.9377601,15.080859 34.6891176,13.9370588 C34.4537151,12.7941624 34.0483289,11.6930071 33.4864706,10.6702941 C32.9319017,9.65497683 32.2496954,8.71479327 31.4564706,7.87264706 C30.6778156,7.01287721 29.7539193,6.29685765 28.7270588,5.75735294 C29.2814706,6.78088235 29.8444118,7.72764706 30.4329412,8.66588235 C31.0214706,9.60411765 31.465,10.5423529 31.9767647,11.4805882 Z" id="Shape" fill="#E3D26F" fill-rule="nonzero"></path>
            <path d="M61.1644118,27.3879412 C57.1470588,19.9417647 46.4341176,17.5194118 39.3547059,19.9929412 C37.5059808,20.5333203 35.9779239,21.8408649 35.1582353,23.5838235 C33.9811765,26.2535294 34.9620588,29.1961765 35.235,29.9211765 C35.3284384,32.0040123 35.9349316,34.0315161 37.0005882,35.8235294 C34.1813185,37.5017325 31.4900536,39.3861881 28.9488235,41.4614706 C29.1108824,35.0644118 27.6011765,26.8591176 26.2876471,23.6520588 C29.8247342,22.8518581 33.2755195,21.709214 36.5911765,20.2402941 C39.73,18.8755882 41.4614706,17.0417647 41.7088235,14.7985294 C42.2291176,10.4741176 36.9664706,6.43970588 36.7276471,6.26911765 C18.8244118,-6.73823529 4.84470588,7.67647059 4.26470588,8.29911765 C0.622647059,12.1544118 -1.64617647,17.8179412 1.50970588,21.7841176 C3.31794118,24.0614706 9.74911765,24.5305882 14.7473529,24.5305882 L16.0097059,24.5305882 C16.2144118,26.8335294 16.7432353,33.7764706 15.95,37.2820588 C15.6385136,38.5321063 15.1923758,39.744686 14.6194118,40.8985294 C13.6470588,42.9797059 12.7429412,44.95 14.5,47.5941176 C15.9590422,49.8475154 18.3560007,51.3232899 21.025,51.6114706 L21.5282353,51.6114706 C22.4050387,51.612501 23.2738237,51.4445359 24.0870588,51.1167647 C23.9164706,53.1211765 24.0870588,56.1320588 26.5435294,56.7461765 C27.7602624,57.0898699 29.015427,57.2790043 30.2794118,57.3091176 C33.2395917,57.3683146 35.9873883,55.777485 37.41,53.1808824 C39.2657784,50.2732925 41.7270785,47.8003551 44.6258824,45.9308824 C46.5031594,47.916581 48.8763972,49.3652572 51.5005882,50.1273529 C52.8836254,50.7268355 54.3692608,51.0540808 55.8761765,51.0911765 C57.9348712,51.1258473 59.9052269,50.2560225 61.2667647,48.7114706 C65.1476471,44.4211765 65.105,34.6464706 61.1644118,27.3879412 Z M37.0091176,28.1470588 C37.0874753,26.9192005 37.7138753,25.7916806 38.715,25.0764706 C39.8837874,24.4806423 41.2444863,24.3852086 42.485,24.8120588 C43.3755987,25.0579593 44.2343757,25.4071953 45.0438235,25.8526471 L44.6002941,25.7844118 L43.6023529,25.6735294 L43.645,26.5264706 C43.3244505,25.8637035 42.7631593,25.3481697 42.0755882,25.085 C41.5383325,24.9399079 40.964735,25.0298232 40.4976471,25.3323529 C39.8031224,25.6764152 39.2837236,26.2947472 39.0647059,27.0382353 C38.8002941,28.1385294 39.4229412,29.2558824 40.2076471,30.5011765 C41.1235168,32.3182323 40.7805278,34.5167921 39.3547059,35.9685294 L38.9026471,35.4482353 C37.3874187,33.3337584 36.7125149,30.7314265 37.0091176,28.1470588 Z M35.4908824,50.0420588 C34.9279412,50.895 34.4247059,51.5858824 34.0067647,52.1573529 C33.5683748,52.7107526 32.8958144,53.0265086 32.19,53.0102941 C31.7175631,53.0130242 31.2547832,52.8765635 30.8594118,52.6179412 C30.9301323,51.9201961 30.6826028,51.2277402 30.1855882,50.7329412 C29.4657607,49.9510593 28.3767859,49.6240399 27.3452941,49.88 C27.2339806,49.4835025 27.2049543,49.0684251 27.26,48.6602941 C27.8002578,47.8898854 28.1828866,47.0202746 28.3858824,46.1014706 L28.8379412,46.3914706 C29.9808824,44.5832353 34.3138235,41.6064706 37.1797059,39.6361765 C38.4420588,38.7832353 39.5338235,38.0155882 40.1735294,37.5038235 C42.4795196,35.5372208 43.0916923,32.223658 41.6405882,29.5629412 C41.1373529,28.7611765 40.6,27.8570588 40.7108824,27.4135294 C40.7620588,27.2088235 40.9752941,26.9955882 41.3505882,26.7738235 C41.4217517,26.7270302 41.5043115,26.7004931 41.5894118,26.6970588 C41.8794118,26.7823529 42.3058824,27.6097059 42.5361765,28.0532353 C42.7456536,28.5174629 43.0342671,28.9417247 43.3891176,29.3070588 C43.7047668,29.624092 44.1838,29.7124243 44.5917647,29.5288235 C44.8391176,29.4094118 45.3167647,29.1791176 45.385,27.6352941 C46.4455581,27.8811148 47.3780206,28.5098436 48.0035294,29.4008824 C49.88,32.0876471 48.8564706,36.5997059 48.8138235,36.6508824 L48.6176471,37.5294118 L49.4705882,37.7085294 C50.6334396,37.9292362 51.5659073,38.7986545 51.8673529,39.9432353 C47.3467647,38.4164706 44.4808824,40.2502941 41.7173529,42.5020588 C39.4570588,44.2591176 37.2564706,47.4661765 35.4908824,50.0420588 Z M36.0964706,38.3823529 C33.6474063,39.9852694 31.3053865,41.746058 29.0852941,43.6535294 C31.2432246,41.6700642 33.5916688,39.9044456 36.0964706,38.3823529 Z M2.83176471,20.735 C0.272941176,17.5705882 2.35411765,12.8026471 5.49294118,9.48470588 C5.87676471,9.07529412 12.1970588,2.55882353 21.5879412,2.55882353 C25.7758824,2.55882353 30.5779412,3.85529412 35.7382353,7.58264706 C37.0517647,8.57205882 40.3782353,11.7620588 40.0029412,14.5511765 C39.8067647,16.1547059 38.425,17.5279412 35.8747059,18.6282353 C26.4411765,22.7308824 20.9652941,22.6114706 20.8970588,22.6029412 L20.8032353,22.6029412 C14.7985294,23.0294118 4.60588235,22.9526471 2.83176471,20.7179412 L2.83176471,20.735 Z M21.1529412,49.9141176 C19.0087048,49.6698508 17.0883913,48.4731791 15.9244118,46.6558824 C14.6876471,44.805 15.2420588,43.6023529 16.1632353,41.6064706 C16.7872726,40.3470195 17.2706779,39.0226605 17.6047059,37.6573529 C18.4576471,33.93 17.9288235,26.9785294 17.7070588,24.4879412 C19.2679412,24.4367647 20.445,24.3514706 20.8885294,24.3258824 C22.1335946,24.3115409 23.3750471,24.1888226 24.5988235,23.9591176 C26.1597059,27.0211765 29.0085294,44.2932353 25.81,47.8414706 C24.6781579,49.2369987 22.9473439,50.0073061 21.1529412,49.9141176 Z M26.9529412,55.1170588 C25.6991176,54.8014706 25.6308824,52.4388235 25.8441176,50.7244118 C25.93765,50.9257693 26.0678026,51.107983 26.2279412,51.2617647 C26.6528251,51.6402713 27.2430578,51.7725093 27.7888235,51.6114706 C28.1863458,51.5027951 28.6116816,51.6131876 28.9061765,51.9014706 C29.0620532,52.0285964 29.1603839,52.2129665 29.1791176,52.4132353 C29,52.9591176 29.1791176,53.7438235 30.2794118,54.2982353 C30.8768759,54.6010099 31.5372559,54.7587998 32.2070588,54.7588235 C33.1406389,54.7729276 34.0483957,54.4521869 34.7658824,53.8547059 C32.4970588,56.0638235 29.6994118,55.7994118 26.9529412,55.1085294 L26.9529412,55.1170588 Z M45.4361765,44.3017647 L44.9755882,43.7473529 L44.3529412,44.1055882 C41.7897993,45.6576901 39.5108896,47.6365915 37.6147059,49.9567647 C39.1329412,47.7647059 41.0264706,45.2058824 42.7323529,43.8070588 C45.53,41.5723529 48.0291176,40.02 52.5070588,42.1011765 L53.6670588,42.63 L53.7352941,41.325 C53.8461613,39.1557377 52.5933916,37.1472211 50.5964706,36.2926471 C50.981729,34.157671 50.8203452,31.9599164 50.1273529,29.9041176 C51.634174,31.5327659 52.9268812,33.3471421 53.9741176,35.3032353 C57.2835294,41.4444118 57.0447059,45.7005882 55.825,47.4832353 C55.2039274,48.4165786 54.0881903,48.8923583 52.9847059,48.6944118 C48.7029412,48.1741176 45.4702941,44.3529412 45.4361765,44.3017647 Z M60.0044118,47.5770588 C59.0904407,48.6182844 57.8038177,49.2585325 56.4220588,49.3597059 C56.7454391,49.0945032 57.0322494,48.7876163 57.275,48.4470588 C58.0769565,47.1548957 58.4694266,45.6504267 58.4008824,44.1311765 C59.2450917,43.4410045 59.9735901,42.620364 60.5588235,41.7002941 C61.2280495,40.6678535 61.6699873,39.5048593 61.8552941,38.2885294 C61.6269788,38.8321448 61.3410305,39.3497112 61.0023529,39.8323529 C60.6787863,40.306936 60.3040903,40.7445581 59.885,41.1373529 C59.4779567,41.5274784 59.0353461,41.8787114 58.5629412,42.1864706 L58.2473529,42.3741176 C58.1378634,41.6026073 57.978311,40.8390349 57.7697059,40.0882353 C58.162947,39.644775 58.5248972,39.1745247 58.8529412,38.6808824 C59.2498291,38.0426897 59.5922176,37.3721789 59.8764706,36.6764706 C60.4629702,35.3071889 60.7897975,33.8408046 60.8402941,32.3520588 C60.6778357,33.0571446 60.4493773,33.7453755 60.1579412,34.4076471 C59.8751635,35.062217 59.5295235,35.6877967 59.1258824,36.2755882 C58.7354783,36.8578836 58.2960371,37.4057584 57.8123529,37.9132353 C57.6332353,38.1008824 57.4455882,38.28 57.2494118,38.4591176 C56.7495593,37.0925248 56.1450204,35.7665315 55.4411765,34.4929412 C51.7223529,27.5926471 46.5023529,24.1297059 42.8602941,23.1829412 C41.1627739,22.6186361 39.3064209,22.7918957 37.7426471,23.6605882 C37.2559753,23.9722583 36.8285488,24.3679167 36.4802941,24.8291176 C36.5334612,24.6374311 36.5989906,24.4493903 36.6764706,24.2661765 C37.3157666,22.9629198 38.4784464,21.9924698 39.875,21.5964706 C46.3061765,19.3447059 56.0041176,21.5026471 59.6291176,28.1897059 C63.2541176,34.8767647 63.3820588,43.8241176 60.0044118,47.5770588 Z" id="Shape" fill="#E3D26F" fill-rule="nonzero"></path>
            <path d="M48.0547059,21.2808824 C47.3259417,21.2616567 46.6007611,21.3892884 45.9223529,21.6561765 C45.2219885,21.9073629 44.6229367,22.3806139 44.2164706,23.0038235 C44.95,22.9611765 45.5811765,23.0038235 46.2038235,23.0038235 C46.8264706,23.0038235 47.4235294,23.0038235 48.0205882,23.0038235 L49.8544118,23.055 C50.5334013,23.0926046 51.2139516,23.0926046 51.8929412,23.055 C50.9290721,21.9380117 49.5300353,21.2913458 48.0547059,21.2808824 Z" id="Shape" fill="#E3D26F" fill-rule="nonzero"></path>
            <path d="M55.0402941,26.4411765 C55.5128668,26.2769475 55.9768839,26.0890633 56.4305882,25.8782353 C55.613579,25.0837097 54.4146547,24.8253779 53.3429412,25.2129412 C52.8173647,25.3806663 52.3403009,25.6733434 51.9526471,26.0658824 C51.5430443,26.4484061 51.2703559,26.9548275 51.1764706,27.5073529 C51.7564706,27.4135294 52.2085294,27.3026471 52.6435294,27.1917647 C53.0785294,27.0808824 53.4964706,26.9614706 53.8547059,26.8420588 L55.0402941,26.4411765 Z" id="Shape" fill="#E3D26F" fill-rule="nonzero"></path>
            <path d="M56.55,29.7164706 C55.5770992,30.0339608 54.6528356,30.4846111 53.8035294,31.0555882 C54.2966055,31.3623556 54.8609192,31.5357644 55.4411765,31.5588235 C56.0201291,31.5960743 56.6005946,31.5148091 57.1470588,31.32 C57.7057886,31.1233208 58.2110074,30.799163 58.6226471,30.3732353 C59.0560011,29.9309764 59.3006519,29.337698 59.305,28.7185294 C58.725,28.9658824 58.29,29.1279412 57.855,29.2814706 C57.42,29.435 56.9764706,29.5629412 56.55,29.7164706 Z" id="Shape" fill="#E3D26F" fill-rule="nonzero"></path>
        </g>
    </g>
</svg>