<?xml version="1.0" encoding="UTF-8"?>
<svg width="39px" height="58px" viewBox="0 0 39 58" version="1.1" xmlns="http://www.w3.org/2000/svg" xmlns:xlink="http://www.w3.org/1999/xlink">
    <!-- Generator: Sketch 49.2 (51160) - http://www.bohemiancoding.com/sketch -->
    <title>other</title>
    <desc>Created with Sketch.</desc>
    <defs></defs>
    <g id="Page-1" stroke="none" stroke-width="1" fill="none" fill-rule="evenodd">
        <g id="other" fill="#E3D26F" fill-rule="nonzero">
            <g id="Group">
                <path d="M34.2419111,20.1028 L27.9063778,15.9442 C27.1162889,15.4254222 26.6400444,14.5438222 26.6400444,13.5984222 L26.6400444,10.8382667 C28.2975556,10.1190667 29.4575556,8.46993333 29.4582,6.54755556 L29.4582,4.67673333 C29.4575556,2.0938 27.3644,0.000644444444 24.7814667,0 L13.5565333,0 C10.9729556,0.000644444444 8.8798,2.0938 8.87915556,4.67737778 L8.87915556,6.5482 C8.8798,8.5956 10.1964,10.3304444 12.0279111,10.9645778 L12.0279111,13.5990667 C12.0279111,14.5444667 11.5516667,15.4260667 10.7615778,15.9448444 L4.42604444,20.1034444 C2.05513333,21.6597778 0.627044444,24.3052222 0.627044444,27.1407778 L0.625755556,49.5803333 L0.625755556,49.5809778 C0.625755556,54.2312889 4.39382222,57.9993556 9.04413333,58 L29.6212444,58 C34.2709111,57.9993556 38.0389778,54.2312889 38.0402667,49.5816222 L38.0415556,27.1414222 L38.0415556,27.1407778 C38.0409111,24.3045778 36.6128222,21.6591333 34.2419111,20.1028 Z M10.7499778,6.5482 L10.7499778,4.67737778 C10.7506222,3.89953333 11.0625333,3.20417778 11.5716444,2.69313333 C12.0826889,2.18402222 12.7780444,1.87146667 13.5558889,1.87146667 L24.7808222,1.87146667 C25.5586667,1.87211111 26.2540222,2.18402222 26.7650667,2.69313333 C27.2741778,3.20417778 27.5867333,3.89953333 27.5867333,4.67737778 L27.5867333,6.5482 C27.5860889,7.32604444 27.2741778,8.0214 26.7650667,8.53244444 C26.2540222,9.04155556 25.5586667,9.35411111 24.7808222,9.35411111 L13.5565333,9.35411111 C12.7786889,9.35346667 12.0833333,9.04155556 11.5722889,8.53244444 C11.0625333,8.0214 10.7506222,7.32604444 10.7499778,6.5482 Z M36.1688,49.5816222 C36.1681556,51.3925111 35.4373556,53.0236 34.2509333,54.2113111 C33.0632222,55.3977333 31.4321333,56.1285333 29.6212444,56.1291778 L9.04413333,56.1291778 C7.23324444,56.1285333 5.60215556,55.3977333 4.4138,54.2113111 C3.22737778,53.0236 2.49657778,51.3925111 2.49593333,49.5816222 L2.49593333,49.5809778 L2.49722222,27.1414222 C2.49722222,24.9354889 3.60824444,22.8784222 5.452,21.6681556 L11.7875333,17.5095556 C13.1047778,16.6447111 13.8980889,15.1753778 13.8980889,13.5997111 L13.8980889,11.2262222 L24.7685778,11.2262222 L24.7685778,13.5997111 C24.7685778,15.1753778 25.5618889,16.6453556 26.8791333,17.5095556 L33.2146667,21.6681556 C35.0584222,22.8784222 36.1694444,24.9361333 36.1694444,27.1420667 L36.1694444,27.1427111 L36.1688,49.5816222 Z" id="Shape"></path>
                <path d="M14.8615333,32.6752667 L14.8615333,33.4821111 C14.8608889,34.7188 15.3629111,35.8472222 16.1729778,36.6553556 C16.9817556,37.4654222 18.1101778,37.9674444 19.3468667,37.9668 C21.8067111,37.9655111 23.8044889,35.9606444 23.8044889,33.4814667 L23.8044889,32.6746222 C25.0643778,31.4824 25.8802444,29.7952444 25.8796,27.8960667 C25.8776667,24.2916889 22.9506,21.3652667 19.3468667,21.3626889 C15.7199333,21.3626889 12.7870667,24.2904 12.7864222,27.8960667 C12.7857778,29.7958889 13.6022889,31.4824 14.8615333,32.6752667 Z M16.0273333,24.6029556 C16.878,23.7568 18.0444444,23.2348 19.3468667,23.2341556 C20.6331778,23.2348 21.7931778,23.7555111 22.6412667,24.6016667 C23.4874222,25.4497556 24.0087778,26.6097556 24.0087778,27.8960667 C24.0081333,29.3776444 23.3301778,30.6671778 22.2732889,31.5436222 C22.0593333,31.7202 21.9336667,31.9876444 21.9336667,32.2647556 L21.9336667,33.4814667 C21.9330222,34.2109778 21.6423778,34.8586444 21.1719333,35.3336 C20.6995556,35.8072667 20.0589778,36.0953333 19.3468667,36.0953333 C17.8955778,36.0940444 16.7342889,34.9327556 16.7323556,33.4814667 L16.7323556,32.2647556 C16.7323556,31.9876444 16.6066889,31.7202 16.3927333,31.5436222 C15.3358444,30.6671778 14.6578889,29.3776444 14.6572444,27.8960667 C14.6578889,26.6104 15.1786,25.4510444 16.0273333,24.6029556 Z" id="Shape"></path>
                <path d="M26.9371333,39.8904667 C26.7077111,39.4277556 26.1464,39.2382889 25.6836889,39.4677111 L19.3333333,42.6132444 L12.9829778,39.4670667 C12.5202667,39.2376444 11.9589556,39.4271111 11.7295333,39.8898222 C11.5001111,40.3525333 11.6895778,40.9138444 12.1522889,41.1432667 L17.226,43.6566 L12.1522889,46.1699333 C11.6895778,46.3993556 11.5001111,46.9606667 11.7295333,47.4233778 C11.9589556,47.8860889 12.5202667,48.0755556 12.9829778,47.8461333 L19.3333333,44.7012444 L25.6836889,47.8474222 C26.1464,48.0768444 26.7077111,47.8873778 26.9371333,47.4246667 C27.1665556,46.9619556 26.9770889,46.4006444 26.5143778,46.1712222 L21.4406667,43.6578889 L26.5143778,41.1445556 C26.9770889,40.9144889 27.1665556,40.3531778 26.9371333,39.8904667 Z" id="Shape"></path>
            </g>
        </g>
    </g>
</svg>