<?xml version="1.0" encoding="UTF-8"?>
<svg width="40px" height="60px" viewBox="0 0 40 60" version="1.1" xmlns="http://www.w3.org/2000/svg" xmlns:xlink="http://www.w3.org/1999/xlink">
    <!-- Generator: Sketch 49.2 (51160) - http://www.bohemiancoding.com/sketch -->
    <title>other</title>
    <desc>Created with Sketch.</desc>
    <defs></defs>
    <g id="Page-1" stroke="none" stroke-width="1" fill="none" fill-rule="evenodd">
        <g id="other" fill="#000000" fill-rule="nonzero">
            <g id="Group">
                <path d="M35.4226667,20.796 L28.8686667,16.494 C28.0513333,15.9573333 27.5586667,15.0453333 27.5586667,14.0673333 L27.5586667,11.212 C29.2733333,10.468 30.4733333,8.762 30.474,6.77333333 L30.474,4.838 C30.4733333,2.166 28.308,0.000666666667 25.636,0 L14.024,0 C11.3513333,0.000666666667 9.186,2.166 9.18533333,4.83866667 L9.18533333,6.774 C9.186,8.892 10.548,10.6866667 12.4426667,11.3426667 L12.4426667,14.068 C12.4426667,15.046 11.95,15.958 11.1326667,16.4946667 L4.57866667,20.7966667 C2.126,22.4066667 0.648666667,25.1433333 0.648666667,28.0766667 L0.647333333,51.29 L0.647333333,51.2906667 C0.647333333,56.1013333 4.54533333,59.9993333 9.356,60 L30.6426667,60 C35.4526667,59.9993333 39.3506667,56.1013333 39.352,51.2913333 L39.3533333,28.0773333 L39.3533333,28.0766667 C39.3526667,25.1426667 37.8753333,22.406 35.4226667,20.796 Z M11.1206667,6.774 L11.1206667,4.83866667 C11.1213333,4.034 11.444,3.31466667 11.9706667,2.786 C12.4993333,2.25933333 13.2186667,1.936 14.0233333,1.936 L25.6353333,1.936 C26.44,1.93666667 27.1593333,2.25933333 27.688,2.786 C28.2146667,3.31466667 28.538,4.034 28.538,4.83866667 L28.538,6.774 C28.5373333,7.57866667 28.2146667,8.298 27.688,8.82666667 C27.1593333,9.35333333 26.44,9.67666667 25.6353333,9.67666667 L14.024,9.67666667 C13.2193333,9.676 12.5,9.35333333 11.9713333,8.82666667 C11.444,8.298 11.1213333,7.57866667 11.1206667,6.774 Z M37.416,51.2913333 C37.4153333,53.1646667 36.6593333,54.852 35.432,56.0806667 C34.2033333,57.308 32.516,58.064 30.6426667,58.0646667 L9.356,58.0646667 C7.48266667,58.064 5.79533333,57.308 4.566,56.0806667 C3.33866667,54.852 2.58266667,53.1646667 2.582,51.2913333 L2.582,51.2906667 L2.58333333,28.0773333 C2.58333333,25.7953333 3.73266667,23.6673333 5.64,22.4153333 L12.194,18.1133333 C13.5566667,17.2186667 14.3773333,15.6986667 14.3773333,14.0686667 L14.3773333,11.6133333 L25.6226667,11.6133333 L25.6226667,14.0686667 C25.6226667,15.6986667 26.4433333,17.2193333 27.806,18.1133333 L34.36,22.4153333 C36.2673333,23.6673333 37.4166667,25.796 37.4166667,28.078 L37.4166667,28.0786667 L37.416,51.2913333 Z" id="Shape"></path>
                <path d="M15.374,33.802 L15.374,34.6366667 C15.3733333,35.916 15.8926667,37.0833333 16.7306667,37.9193333 C17.5673333,38.7573333 18.7346667,39.2766667 20.014,39.276 C22.5586667,39.2746667 24.6253333,37.2006667 24.6253333,34.636 L24.6253333,33.8013333 C25.9286667,32.568 26.7726667,30.8226667 26.772,28.858 C26.77,25.1293333 23.742,22.102 20.014,22.0993333 C16.262,22.0993333 13.228,25.128 13.2273333,28.858 C13.2266667,30.8233333 14.0713333,32.568 15.374,33.802 Z M16.58,25.4513333 C17.46,24.576 18.6666667,24.036 20.014,24.0353333 C21.3446667,24.036 22.5446667,24.5746667 23.422,25.45 C24.2973333,26.3273333 24.8366667,27.5273333 24.8366667,28.858 C24.836,30.3906667 24.1346667,31.7246667 23.0413333,32.6313333 C22.82,32.814 22.69,33.0906667 22.69,33.3773333 L22.69,34.636 C22.6893333,35.3906667 22.3886667,36.0606667 21.902,36.552 C21.4133333,37.042 20.7506667,37.34 20.014,37.34 C18.5126667,37.3386667 17.3113333,36.1373333 17.3093333,34.636 L17.3093333,33.3773333 C17.3093333,33.0906667 17.1793333,32.814 16.958,32.6313333 C15.8646667,31.7246667 15.1633333,30.3906667 15.1626667,28.858 C15.1633333,27.528 15.702,26.3286667 16.58,25.4513333 Z" id="Shape"></path>
                <path d="M27.866,41.266 C27.6286667,40.7873333 27.048,40.5913333 26.5693333,40.8286667 L20,44.0826667 L13.4306667,40.828 C12.952,40.5906667 12.3713333,40.7866667 12.134,41.2653333 C11.8966667,41.744 12.0926667,42.3246667 12.5713333,42.562 L17.82,45.162 L12.5713333,47.762 C12.0926667,47.9993333 11.8966667,48.58 12.134,49.0586667 C12.3713333,49.5373333 12.952,49.7333333 13.4306667,49.496 L20,46.2426667 L26.5693333,49.4973333 C27.048,49.7346667 27.6286667,49.5386667 27.866,49.06 C28.1033333,48.5813333 27.9073333,48.0006667 27.4286667,47.7633333 L22.18,45.1633333 L27.4286667,42.5633333 C27.9073333,42.3253333 28.1033333,41.7446667 27.866,41.266 Z" id="Shape"></path>
            </g>
        </g>
    </g>
</svg>