<?xml version="1.0" encoding="UTF-8"?>
<svg width="52px" height="72px" viewBox="0 0 52 72" version="1.1" xmlns="http://www.w3.org/2000/svg" xmlns:xlink="http://www.w3.org/1999/xlink">
    <!-- Generator: Sketch 49.2 (51160) - http://www.bohemiancoding.com/sketch -->
    <title>pungent</title>
    <desc>Created with Sketch.</desc>
    <defs></defs>
    <g id="Page-1" stroke="none" stroke-width="1" fill="none" fill-rule="evenodd">
        <g id="pungent" fill="#000000" fill-rule="nonzero">
            <g id="Group">
                <path d="M44.6732275,16.626 C46.1713228,12.6 48.0235132,9.309 50.329672,6.576 C51.7248677,4.923 51.5765714,2.64 49.990709,1.263 C48.4260317,-0.093 46.0956614,0.066 44.676254,1.623 C43.9499048,2.427 43.3143492,3.24 42.787746,4.044 C40.5965926,7.389 39.0773122,11.298 38.1360847,15.996 C34.4831534,17.631 31.8168466,20.454 30.2158519,24.393 C30.2097989,24.405 30.1886138,24.453 30.1795344,24.477 C29.1929101,26.358 29.1081693,29.004 29.165672,29.907 C30.2612487,45.363 12.3658201,59.085 2.75379894,64.176 C0.80778836,65.202 0.683703704,66.735 0.720021164,67.35 C0.81384127,68.859 2.02744974,69.996 3.12302646,70.413 C5.33233862,71.235 7.88969312,71.655 10.722455,71.655 C18.2008254,71.655 26.9624127,68.706 34.1653757,63.762 C44.4401905,56.7 51.2497143,43.743 50.8744339,32.1 C50.8774603,32.064 50.8925926,31.989 50.8925926,31.971 C51.2557672,22.365 46.6706878,18.042 44.6732275,16.626 Z M39.3315344,18.102 C39.9852487,17.826 40.3817143,17.145 40.4846138,16.602 C41.3592593,12.153 42.7756402,8.475 44.8215238,5.355 C45.2785185,4.656 45.8353862,3.942 46.4769947,3.234 C47.0187302,2.64 47.8207407,2.574 48.3957672,3.075 C48.9980317,3.597 49.0282963,4.386 48.474455,5.043 C45.8989418,8.094 43.8560847,11.763 42.2369312,16.251 C42.182455,16.392 42.1400847,16.542 42.0674497,16.83 C41.916127,17.376 42.1764021,17.955 42.6848466,18.216 C42.9088042,18.33 47.6058624,20.841 48.3806349,28.662 C47.8782434,27.906 47.3001905,27.051 46.6525291,26.103 C46.2954074,25.581 46.0290794,25.197 45.920127,25.02 C45.5902434,24.486 45.0666667,23.649 43.9559577,23.649 C43.7592381,23.649 43.5413333,23.676 43.2961905,23.742 C42.7635344,23.877 42.3337778,24.198 39.7098413,27.261 C39.5131217,26.142 39.3073228,25.002 39.1832381,24.6 C38.8019048,23.337 38.0634497,22.788 37.5096085,22.545 C36.9285291,22.29 35.957037,22.119 34.6375026,22.761 C34.2531429,22.944 33.8294392,23.16 33.3875767,23.382 C34.7888254,20.946 36.7469418,19.209 39.3315344,18.102 Z M32.7883386,61.788 C25.9818413,66.462 17.7347513,69.252 10.7285079,69.252 C8.18931217,69.252 5.91644444,68.889 3.98859259,68.172 C3.70107937,68.061 3.16842328,67.641 3.14118519,67.203 C3.11697354,66.792 3.53462434,66.483 3.89477249,66.294 C13.988,60.945 32.764127,46.425 31.5838095,29.745 C31.5474921,29.166 31.6140741,27.906 31.8985608,26.769 C32.5734603,26.49 33.4299471,26.055 34.3288042,25.602 C34.8100106,25.356 35.2821376,25.116 35.6997884,24.918 C36.1416508,24.702 36.4261376,24.69 36.5441693,24.738 C36.6622011,24.789 36.7832593,24.993 36.8710265,25.284 C36.9920847,25.686 37.1948571,26.904 37.3855238,28.005 C37.7426455,30.042 37.7850159,30.252 37.9363386,30.516 C38.0997672,30.804 38.3782011,31.014 38.7020317,31.092 C39.0198095,31.17 39.3648254,31.116 39.6493122,30.936 C39.8581376,30.804 39.9428783,30.708 40.971873,29.496 C41.6982222,28.641 43.2901376,26.772 43.8167407,26.199 C43.8348995,26.235 43.8591111,26.274 43.8863492,26.316 C43.9831958,26.469 44.2646561,26.883 44.6520423,27.447 C45.5176085,28.716 47.6240212,31.932 48.4048466,33.33 C48.2958942,43.896 42.0856085,55.398 32.7883386,61.788 Z" id="Shape"></path>
                <path d="M44.7882328,36.213 C44.1314921,36.069 43.4898836,36.483 43.3446138,37.128 C42.4518095,41.172 39.8308995,49.452 36.3050794,51.864 C35.7542646,52.239 35.6150476,52.986 35.996381,53.535 C36.229418,53.871 36.6077249,54.054 36.9920847,54.054 C37.2342011,54.054 37.473291,53.985 37.6851429,53.838 C42.7786667,50.355 45.4268148,38.934 45.7113016,37.641 C45.8565714,36.993 45.4419471,36.354 44.7882328,36.213 Z" id="Shape"></path>
            </g>
        </g>
    </g>
</svg>