<?xml version="1.0" encoding="UTF-8"?>
<svg width="42px" height="58px" viewBox="0 0 42 58" version="1.1" xmlns="http://www.w3.org/2000/svg" xmlns:xlink="http://www.w3.org/1999/xlink">
    <!-- Generator: Sketch 49.3 (51167) - http://www.bohemiancoding.com/sketch -->
    <title>pungent</title>
    <desc>Created with Sketch.</desc>
    <defs></defs>
    <g id="Page-1" stroke="none" stroke-width="1" fill="none" fill-rule="evenodd">
        <g id="pungent" fill-rule="nonzero">
            <path d="M35.9867666,13.3931667 C37.1935655,10.15 38.6856079,7.49891667 40.5433469,5.29733333 C41.6672546,3.96575 41.5477937,2.12666667 40.2702934,1.01741667 C39.0098589,-0.0749166667 37.1326161,0.0531666667 35.9892046,1.30741667 C35.4040899,1.95508333 34.8921146,2.61 34.4679065,3.25766667 C32.7028107,5.95225 31.4789459,9.10116667 30.7207349,12.8856667 C27.7780958,14.20275 25.6302375,16.4768333 24.3405473,19.6499167 C24.3356714,19.6595833 24.3186055,19.69825 24.3112916,19.7175833 C23.5165109,21.2328333 23.4482475,23.3643333 23.4945691,24.09175 C24.377117,36.5424167 9.96135509,47.59625 2.21833804,51.6973333 C0.650718401,52.5238333 0.550761317,53.75875 0.580017049,54.2541667 C0.655594356,55.46975 1.6332234,56.3856667 2.51577131,56.7215833 C4.295495,57.38375 6.35558613,57.7220833 8.63753322,57.7220833 C14.661776,57.7220833 21.7197213,55.3465 27.5221082,51.3638333 C35.7990423,45.675 41.2844921,35.2374167 40.9821828,25.8583333 C40.9846208,25.8293333 40.9968107,25.7689167 40.9968107,25.7544167 C41.289368,18.01625 37.5958319,14.5338333 35.9867666,13.3931667 Z M31.683736,14.5821667 C32.2103392,14.3598333 32.5297143,13.81125 32.6126055,13.3738333 C33.3171811,9.78991667 34.4581546,6.82708333 36.1062275,4.31375 C36.4743621,3.75066667 36.92295,3.1755 37.4398013,2.60516667 C37.8761993,2.12666667 38.5222634,2.0735 38.9854791,2.47708333 C39.4706367,2.89758333 39.4950165,3.53316667 39.0488665,4.06241667 C36.9741476,6.52016667 35.3285126,9.47575 34.0241946,13.0910833 C33.980311,13.2046667 33.9461793,13.3255 33.8876678,13.5575 C33.765769,13.9973333 33.975435,14.46375 34.3850153,14.674 C34.5654256,14.7658333 38.349167,16.7885833 38.9732892,23.0888333 C38.568585,22.4798333 38.1029312,21.7910833 37.581204,21.0274167 C37.2935226,20.6069167 37.0789806,20.2975833 36.9912134,20.155 C36.7254738,19.7248333 36.3037037,19.0505833 35.4089659,19.0505833 C35.2504974,19.0505833 35.074963,19.0723333 34.8774868,19.1255 C34.4484027,19.23425 34.1022099,19.4928333 31.9884832,21.96025 C31.8300147,21.0588333 31.6642322,20.1405 31.5642751,19.8166667 C31.2570899,18.79925 30.6622234,18.357 30.2160735,18.16125 C29.7479818,17.9558333 28.9653909,17.8180833 27.9024327,18.33525 C27.5928095,18.4826667 27.2514927,18.6566667 26.8955479,18.8355 C28.0243316,16.8731667 29.6017031,15.4739167 31.683736,14.5821667 Z M26.4128283,49.7736667 C20.9298166,53.5388333 14.2863275,55.7863333 8.64240917,55.7863333 C6.59694591,55.7863333 4.76602469,55.4939167 3.21303292,54.9163333 C2.98142504,54.8269167 2.55234098,54.4885833 2.53039918,54.13575 C2.51089536,53.8046667 2.84733627,53.55575 3.13745561,53.4035 C11.2681111,49.0945833 26.3933245,37.3979167 25.4425132,23.96125 C25.4132575,23.4948333 25.466893,22.4798333 25.6960629,21.5639167 C26.2397319,21.3391667 26.9296796,20.98875 27.653759,20.6238333 C28.0413974,20.4256667 28.4217219,20.2323333 28.7581628,20.0728333 C29.1141076,19.8988333 29.3432775,19.8891667 29.4383586,19.9278333 C29.5334397,19.9689167 29.6309588,20.13325 29.7016602,20.3676667 C29.7991793,20.6915 29.9625238,21.6726667 30.1161164,22.5595833 C30.4037978,24.2005 30.4379295,24.3696667 30.5598283,24.5823333 C30.6914791,24.8143333 30.9157731,24.9835 31.1766367,25.0463333 C31.4326243,25.1091667 31.7105538,25.0656667 31.9397237,24.9206667 C32.1079442,24.8143333 32.1762075,24.737 33.0051199,23.7606667 C33.5902346,23.0719167 34.8726108,21.5663333 35.2968189,21.10475 C35.3114468,21.13375 35.3309506,21.1651667 35.3528924,21.199 C35.4309077,21.32225 35.6576396,21.65575 35.9697008,22.1100833 C36.6669624,23.1323333 38.3637948,25.723 38.9927931,26.8491667 C38.9050259,35.3606667 33.9022957,44.6261667 26.4128283,49.7736667 Z" id="Shape" fill="#638A33"></path>
            <path d="M36.0794098,29.1715833 C35.5503686,29.0555833 35.0335173,29.3890833 34.9164944,29.9086667 C34.197291,33.1663333 32.0860024,39.8363333 29.2457584,41.7793333 C28.8020464,42.0814167 28.6898995,42.6831667 28.9970847,43.1254167 C29.1848089,43.3960833 29.4895561,43.5435 29.7991793,43.5435 C29.9942175,43.5435 30.1868178,43.4879167 30.3574762,43.3695 C34.4605926,40.56375 36.593823,31.3635 36.8229929,30.3219167 C36.9400159,29.7999167 36.6060129,29.2851667 36.0794098,29.1715833 Z" id="Shape" fill="#6E8A33"></path>
        </g>
    </g>
</svg>