<?xml version="1.0" encoding="UTF-8"?>
<svg width="90px" height="46px" viewBox="0 0 90 46" version="1.1" xmlns="http://www.w3.org/2000/svg" xmlns:xlink="http://www.w3.org/1999/xlink">
    <!-- Generator: Sketch 49.2 (51160) - http://www.bohemiancoding.com/sketch -->
    <title>rancid</title>
    <desc>Created with Sketch.</desc>
    <defs></defs>
    <g id="Page-1" stroke="none" stroke-width="1" fill="none" fill-rule="evenodd">
        <g id="rancid" fill="#E3D26F" fill-rule="nonzero">
            <path d="M38.81,5.376 C38.648,5.017 38.807,4.593 39.167,4.431 C41.855,3.215 44.872,2.473 46.928,2.063 C47.316,1.982 47.691,2.236 47.768,2.624 C47.845,3.011 47.594,3.387 47.207,3.464 C44.362,4.031 41.786,4.816 39.754,5.734 C39.659,5.776 39.559,5.797 39.46,5.797 C39.189,5.796 38.929,5.64 38.81,5.376 Z M50.841,11.45 C50.815,11.415 50.789,11.38 50.764,11.346 C50.694,11.255 50.628,11.162 50.558,11.072 C50.518,11.021 50.482,10.968 50.442,10.917 C50.439,10.914 50.436,10.913 50.434,10.909 C50.3,10.743 50.11,10.659 49.913,10.649 C49.749,10.641 49.58,10.681 49.44,10.79 C49.335,10.871 49.27,10.98 49.225,11.095 C49.168,11.239 49.149,11.395 49.191,11.546 C49.215,11.632 49.254,11.717 49.313,11.792 C51.759,14.947 53.943,18.203 55.805,21.469 C55.936,21.701 56.177,21.83 56.426,21.83 C56.546,21.83 56.666,21.8 56.779,21.736 C57.122,21.541 57.241,21.105 57.046,20.762 C55.319,17.731 53.31,14.716 51.087,11.777 C51.003,11.668 50.925,11.559 50.841,11.45 Z M48.415,11.109 C48.287,10.888 48.13,10.666 47.952,10.445 C47.228,9.549 46.237,8.72 46.088,8.598 C45.785,8.35 45.334,8.392 45.082,8.699 C44.832,9.004 44.877,9.454 45.182,9.704 C45.625,10.066 46.221,10.623 46.673,11.14 C46.957,11.465 47.186,11.775 47.281,12.011 C47.394,12.288 47.661,12.455 47.942,12.455 C48.033,12.455 48.124,12.438 48.212,12.402 C48.524,12.275 48.684,11.952 48.635,11.632 C48.626,11.578 48.625,11.523 48.604,11.47 C48.557,11.354 48.486,11.231 48.415,11.109 Z M43.687,10.521 C43.687,10.127 43.367,9.807 42.973,9.807 C42.578,9.807 42.259,10.127 42.259,10.521 C42.259,10.711 42.305,10.952 42.376,11.217 C42.982,13.49 45.927,18.151 46.882,19.071 C47.021,19.205 47.198,19.271 47.377,19.271 C47.565,19.271 47.751,19.197 47.892,19.052 C48.165,18.768 48.157,18.316 47.873,18.043 C46.89,17.096 44.477,13.012 43.845,11.191 C43.746,10.907 43.687,10.673 43.687,10.521 Z M71.984,16.305 C70.877,15.745 69.937,15.353 69.029,14.974 C68.042,14.562 67.108,14.173 65.957,13.578 C65.569,13.377 65.202,13.194 64.848,13.018 C63.498,12.346 62.432,11.816 61.23,10.807 C60.928,10.554 60.477,10.593 60.223,10.894 C59.969,11.196 60.008,11.647 60.311,11.9 C61.643,13.019 62.833,13.611 64.212,14.296 C64.56,14.469 64.921,14.649 65.301,14.845 C66.505,15.468 67.509,15.886 68.48,16.291 C69.365,16.66 70.279,17.041 71.341,17.578 C71.444,17.63 71.554,17.655 71.661,17.655 C71.923,17.655 72.174,17.512 72.3,17.263 C72.478,16.912 72.337,16.483 71.984,16.305 Z M68.739,11.167 L67.71,10.633 C67.357,10.449 66.93,10.584 66.744,10.932 C66.561,11.281 66.695,11.713 67.044,11.896 L68.084,12.436 C69.861,13.354 72.839,14.891 73.822,15.595 C73.947,15.685 74.093,15.729 74.236,15.729 C74.46,15.729 74.678,15.625 74.818,15.43 C75.047,15.11 74.974,14.663 74.653,14.433 C73.586,13.669 70.669,12.163 68.739,11.167 Z M76.027,11.964 C75.54,11.722 75.052,11.405 74.537,11.07 C74.133,10.806 73.726,10.544 73.318,10.314 C71.58,9.339 69.868,8.814 67.811,8.227 C67.425,8.12 67.036,8.34 66.927,8.718 C66.819,9.097 67.039,9.492 67.418,9.6 C69.45,10.18 71.013,10.66 72.618,11.56 C73,11.774 73.378,12.021 73.757,12.268 C74.284,12.611 74.829,12.966 75.392,13.244 C75.495,13.295 75.602,13.319 75.708,13.319 C75.971,13.319 76.225,13.173 76.349,12.922 C76.524,12.567 76.381,12.139 76.027,11.964 Z M80.565,27.861 C78.302,28.107 71.681,28.378 69.224,26.019 C69.258,26.258 69.283,26.501 69.286,26.753 C69.293,27.351 69.208,27.935 69.081,28.506 C70.881,29.128 72.6,29.937 74.185,30.937 C75.336,31.66 75.559,32.121 75.376,33.402 C75.212,34.548 74.728,35.978 74.127,37.214 C76.305,37.224 78.264,38.13 77.929,40.267 C77.489,43.068 72.784,44.47 70.563,44.871 C67.836,45.363 64.988,45.6 62.206,45.326 C61.833,45.388 61.443,45.441 61.033,45.484 C60.821,45.505 60.588,45.537 60.342,45.57 C59.71,45.654 58.993,45.75 58.282,45.75 C57.197,45.75 56.374,45.52 55.766,45.047 C55.463,44.813 55.265,44.516 55.09,44.256 C54.975,44.08 54.865,43.918 54.751,43.813 C54.44,43.53 53.959,43.307 53.493,43.09 C53.269,42.988 53.051,42.887 52.844,42.778 C52.722,42.714 52.594,42.651 52.462,42.585 C51.63,42.171 50.596,41.657 50.254,40.64 C50.139,40.294 50.203,40.001 50.243,39.826 C50.25,39.795 50.26,39.764 50.262,39.73 C50.235,39.621 50.19,39.558 50.082,39.406 C50,39.291 49.916,39.17 49.834,39.013 C49.562,38.509 49.387,38.003 49.257,37.49 C49.061,38.25 48.646,38.933 47.913,39.396 C45.937,40.646 42.799,40.943 40.495,40.953 C38.857,40.961 37.039,40.844 35.396,40.353 C35.199,40.316 35.015,40.279 34.86,40.236 C33.475,39.853 32.071,39.052 30.833,38.343 L30.136,37.948 C28.356,36.954 19.563,31.725 21.307,26.421 C21.365,26.246 21.444,26.088 21.514,25.922 C21.514,25.921 21.514,25.92 21.514,25.918 C18.101,26.523 8.168,28.265 5.053,25.148 C4.03,24.885 3.141,24.496 2.407,23.985 C2.316,23.923 2.23,23.856 2.144,23.79 C1.109,22.988 0.41,21.932 0.114,20.644 C-0.004,20.129 -0.031,19.584 0.034,19.025 C0.747,12.911 7.874,9.115 14.305,7.6 C16.076,7.183 18.434,6.628 20.686,6.628 C23.421,6.628 25.436,7.463 26.678,9.111 C27.699,10.467 27.223,11.962 26.414,13.256 C28.077,12.755 29.872,12.516 31.9,12.723 C32.128,12.746 32.333,12.802 32.525,12.871 C33.775,12.351 35.091,11.901 36.482,11.642 C36.537,11.523 36.597,11.414 36.656,11.303 C35.724,10.589 35.026,9.343 34.627,7.632 C34.38,6.57 34.553,5.577 35.142,4.679 C36.661,2.364 40.512,1.439 42.098,1.149 C48.859,-0.088 54.978,-0.049 60.286,1.265 L60.529,1.325 C61.517,1.569 62.637,1.846 63.622,2.29 C63.838,2.388 64.114,2.483 64.402,2.584 C65.143,2.844 65.91,3.113 66.332,3.554 C66.466,3.693 66.537,3.882 66.529,4.075 C66.522,4.268 66.436,4.451 66.292,4.58 C65.756,5.061 65.361,5.629 64.944,6.231 C64.875,6.332 64.797,6.428 64.725,6.528 C67.977,6.414 70.345,6.877 70.345,6.877 C73.977,7.492 77.11,9.317 80.202,12.453 C81.121,13.385 81.587,14.615 81.998,15.618 C85.009,15.98 87.739,16.992 89.223,19.37 C92.579,24.753 84.182,27.47 80.565,27.861 Z M62.059,9.16 C62.757,9.5 63.476,9.848 64.189,10.147 C64.668,10.349 65.683,10.744 65.755,10.818 C66.482,11.563 65.711,12.312 65.19,12.129 C64.797,11.991 64.11,11.664 63.635,11.464 C62.853,11.135 62.08,10.759 61.333,10.396 L60.481,9.985 L60.462,9.976 C60.297,9.898 60.183,9.762 60.118,9.606 C59.706,9.785 59.354,9.961 59.087,10.121 C59.124,10.244 59.17,10.365 59.219,10.484 C59.698,11.663 60.696,12.688 61.669,13.681 C61.954,13.972 62.235,14.259 62.499,14.545 C63.353,15.471 64.349,16.493 65.253,17.057 C65.588,17.266 65.691,17.706 65.482,18.041 C65.357,18.241 65.147,18.347 64.927,18.363 C64.817,18.35 64.705,18.339 64.595,18.321 C64.6,18.321 64.605,18.318 64.61,18.318 C64.572,18.303 64.533,18.291 64.498,18.268 C63.452,17.616 62.415,16.558 61.449,15.513 C61.194,15.237 60.924,14.961 60.648,14.68 C59.932,13.949 59.572,13.666 59.195,13.138 C59.694,14.8 60.471,16.146 62.075,18.062 C62.156,17.998 62.368,17.909 62.628,18.255 C62.867,18.574 63.179,18.805 63.494,19.032 C63.495,19.033 63.496,19.034 63.497,19.035 C63.499,19.036 63.502,19.038 63.504,19.039 C63.522,19.052 63.538,19.065 63.556,19.078 C63.559,19.077 63.563,19.078 63.566,19.078 C65.169,20.219 67.062,20.856 69.02,21.273 C68.278,20.974 67.56,20.65 67,20.346 C66.636,20.148 66.501,19.693 66.698,19.329 C66.894,18.965 67.349,18.83 67.715,19.028 C69.083,19.771 71.587,20.689 72.678,20.919 C72.823,20.95 72.979,20.965 73.13,20.987 C72.747,20.904 72.379,20.816 72.062,20.722 C71.665,20.605 71.437,20.189 71.553,19.791 C71.588,19.671 71.657,19.574 71.738,19.489 C70.327,19.129 68.777,18.664 67.635,17.899 C67.307,17.68 67.22,17.236 67.44,16.908 C67.659,16.58 68.101,16.492 68.431,16.712 C69.618,17.507 71.493,17.963 73,18.33 L73.457,18.442 C74.403,18.676 75.422,18.842 76.473,18.95 C77.084,18.985 77.225,18.506 76.705,18.182 C76.019,17.953 75.253,17.718 74.53,17.516 C74.151,17.411 73.927,17.016 74.034,16.637 C74.138,16.257 74.53,16.034 74.914,16.14 C75.667,16.35 76.607,16.637 77.456,16.927 C77.218,16.769 76.974,16.635 76.716,16.566 C76.335,16.464 76.109,16.073 76.21,15.691 C76.312,15.311 76.702,15.081 77.084,15.185 C77.347,15.255 77.591,15.357 77.823,15.477 C77.513,15.105 77.201,14.73 76.912,14.324 C76.684,14.002 76.761,13.556 77.083,13.328 C77.406,13.1 77.851,13.177 78.079,13.498 C78.368,13.906 78.683,14.282 78.994,14.655 C79.109,14.793 79.224,14.934 79.34,15.075 C79.38,14.975 79.437,14.88 79.524,14.804 C79.706,14.644 79.945,14.605 80.166,14.659 C79.865,14.221 79.526,13.786 79.108,13.363 C75.861,10.071 72.669,8.422 68.756,8.016 C68.405,7.979 68.041,7.963 67.668,7.963 C66.862,7.963 66.034,8.039 65.217,8.164 C65.375,8.208 65.516,8.238 65.682,8.289 C66.058,8.404 66.27,8.804 66.155,9.181 C66.061,9.489 65.779,9.686 65.472,9.686 C65.404,9.686 65.332,9.676 65.263,9.655 C63.307,9.058 62.414,9.09 62.059,9.16 Z M57.69,12.993 C57.635,13.072 57.579,13.151 57.544,13.229 C57.14,13.286 56.734,13.335 56.329,13.386 C57.324,14.568 58.282,15.868 59.171,17.283 C59.671,18.08 60.092,18.869 60.443,19.647 C60.915,19.707 61.386,19.786 61.854,19.889 C60.393,18.301 58.331,15.687 57.69,12.993 Z M55.791,5.765 C54.712,5.939 53.685,6.222 52.596,6.521 C51.959,6.696 51.322,6.872 50.674,7.024 C50.451,7.077 50.254,7.107 50.046,7.146 C50.142,7.205 50.215,7.295 50.259,7.396 C51.721,7.087 53.184,6.768 54.679,6.67 C55.058,6.646 55.2,6.998 55.111,7.281 C56.801,6.989 58.54,6.647 60.229,6.197 C60.613,6.094 61.002,6.322 61.103,6.703 C61.205,7.084 60.979,7.476 60.597,7.578 C60.324,7.651 60.046,7.713 59.771,7.78 C59.812,7.868 59.837,7.962 59.828,8.053 C60.514,7.9 61.181,7.663 61.82,7.291 C61.958,7.21 62.091,7.208 62.206,7.252 C62.508,6.991 62.795,6.716 63.046,6.411 C63.307,6.092 63.538,5.755 63.772,5.419 C63.894,5.243 64.018,5.066 64.146,4.889 C61.864,4.935 58.375,5.35 55.791,5.765 Z M58.746,3.207 C56.332,3.207 53.731,3.539 51.015,4.193 C49.116,4.651 47.275,5.241 45.398,5.858 C44.667,6.098 43.858,6.372 43.053,6.681 C43.641,6.496 44.261,6.386 44.927,6.386 C45.255,6.386 45.589,6.415 45.927,6.46 C46.744,6.173 47.516,6.072 48.314,5.972 C48.944,5.893 49.595,5.812 50.346,5.635 C50.976,5.487 51.596,5.315 52.216,5.145 C53.293,4.848 54.407,4.542 55.564,4.356 C57.239,4.085 60.296,3.671 62.821,3.517 C62.003,3.176 61.087,2.935 60.188,2.714 L59.943,2.653 C59.781,2.613 59.612,2.585 59.449,2.548 C59.419,2.915 59.121,3.207 58.746,3.207 Z M37.271,5.994 C37.398,5.913 37.533,5.827 37.673,5.726 C37.994,5.496 38.441,5.568 38.67,5.888 C38.901,6.208 38.828,6.654 38.508,6.885 C38.343,7.003 38.187,7.103 38.039,7.198 C37.614,7.469 37.42,7.593 37.289,7.97 C37.183,8.272 37.168,8.621 37.245,9.034 C37.291,9.277 37.198,9.505 37.033,9.666 C37.164,9.833 37.307,9.983 37.467,10.111 C37.5,10.072 37.533,10.03 37.567,9.992 C37.356,9.61 37.307,9.12 37.449,8.622 C37.619,8.022 38.014,7.527 38.504,7.299 C38.862,7.132 39.286,7.287 39.453,7.645 C39.62,8.002 39.465,8.427 39.107,8.594 C39.045,8.623 38.971,8.718 38.908,8.835 C39.777,8.252 40.587,7.961 40.951,7.853 C41.357,7.494 41.807,7.222 42.276,6.994 C42.174,7.037 42.071,7.077 41.971,7.12 C41.893,7.154 41.808,7.188 41.72,7.223 C41.571,7.283 41.294,7.392 41.227,7.464 C41.119,7.739 40.866,7.895 40.593,7.895 C40.5,7.895 40.406,7.878 40.314,7.841 C39.948,7.695 39.782,7.256 39.927,6.889 C40.157,6.307 40.756,6.07 41.193,5.896 L41.397,5.813 C42.592,5.287 43.86,4.859 44.953,4.5 C46.858,3.874 48.729,3.273 50.68,2.804 C52.479,2.37 54.224,2.089 55.913,1.93 C51.799,1.45 47.258,1.657 42.357,2.555 C40.099,2.969 37.331,3.95 36.337,5.464 C35.966,6.029 35.863,6.632 36.019,7.309 C36.021,7.314 36.023,7.32 36.024,7.325 C36.328,6.62 36.803,6.293 37.271,5.994 Z M37.373,25.742 C37.428,25.761 37.472,25.796 37.519,25.825 C37.829,25.41 38.17,24.984 38.695,24.579 C38.618,24.557 38.544,24.534 38.465,24.513 C38.3,24.468 38.127,24.427 37.957,24.385 C36.547,24.039 34.957,23.786 33.304,23.671 C32.836,23.638 32.366,23.613 31.892,23.604 C30.991,23.586 30.084,23.619 29.19,23.698 C29.057,23.71 28.924,23.719 28.791,23.734 C28.197,23.797 27.612,23.888 27.04,24.002 C26.947,24.02 26.854,24.038 26.762,24.058 C25.92,24.24 25.112,24.481 24.351,24.787 C25.215,24.623 26.09,24.516 26.963,24.464 C27.44,24.436 27.914,24.419 28.384,24.418 C32.314,24.399 35.917,25.252 37.373,25.742 Z M35.186,26.628 C33.257,26.188 30.332,25.735 27.337,25.875 C26.652,25.906 25.965,25.97 25.286,26.07 C27.538,26.551 30.166,27.028 32.404,27.378 C33.56,27.559 34.612,27.705 35.449,27.8 C35.455,27.801 35.459,27.804 35.462,27.805 C35.517,27.762 35.57,27.72 35.626,27.677 L35.887,27.477 C35.896,27.47 35.904,27.464 35.912,27.457 C36.131,27.291 36.335,27.134 36.523,26.972 C36.165,26.866 35.709,26.748 35.186,26.628 Z M39.162,23.227 C39.345,23.279 39.532,23.331 39.708,23.386 C39.863,23.435 39.981,23.539 40.068,23.663 C40.153,23.612 40.238,23.557 40.324,23.508 C40.356,23.489 40.387,23.471 40.419,23.454 C40.593,23.356 40.771,23.266 40.947,23.179 C41.016,23.145 41.083,23.107 41.153,23.075 C41.536,22.896 41.936,22.754 42.348,22.635 C41.706,22.353 41.079,22.089 40.429,21.885 C40.253,21.83 40.074,21.783 39.894,21.739 C39.747,21.702 39.604,21.66 39.453,21.631 C39.283,21.598 39.109,21.588 38.938,21.561 C38.823,21.543 38.708,21.529 38.592,21.515 C38.383,21.488 38.176,21.451 37.967,21.43 C36.489,21.291 35.014,21.329 33.643,21.406 C33.406,21.42 33.159,21.43 32.929,21.445 C31.962,21.509 29.927,21.727 27.9,22.416 C29.174,22.239 30.488,22.164 31.79,22.183 C31.971,22.186 32.149,22.194 32.328,22.2 C32.651,22.21 32.971,22.225 33.29,22.246 C33.913,22.286 34.529,22.343 35.129,22.419 C36.146,22.546 37.122,22.721 38.031,22.933 C38.423,23.024 38.798,23.124 39.162,23.227 Z M38.806,13.14 C38.806,13.012 38.848,12.898 38.908,12.793 C38.865,12.733 38.834,12.669 38.811,12.597 C38.23,14.044 39.006,16.011 39.409,16.864 C39.478,17.01 39.545,17.145 39.613,17.287 C39.077,15.956 38.806,14.569 38.806,13.14 Z M38.118,17.474 C37.803,16.806 37.44,15.877 37.269,14.877 C37.268,15.35 37.294,15.847 37.383,16.399 C37.547,17.41 38.069,18.701 38.875,20.112 C39.08,20.14 39.285,20.16 39.489,20.196 C38.992,19.269 38.57,18.431 38.118,17.474 Z M40.401,10.304 C40.499,10.363 40.572,10.444 40.63,10.534 C40.638,10.514 40.642,10.496 40.651,10.475 C40.674,10.422 40.712,10.383 40.746,10.339 C40.681,10.285 40.611,10.237 40.566,10.159 C40.451,9.955 40.457,9.723 40.545,9.523 C40.3,9.636 40.024,9.785 39.736,9.974 C39.458,10.158 39.173,10.383 38.896,10.654 C38.818,10.731 38.741,10.812 38.665,10.896 C38.786,10.912 38.904,10.948 39.006,11.028 C39.041,11.055 39.061,11.093 39.089,11.125 C39.121,11.064 39.152,11.008 39.186,10.951 C39.2,10.927 39.214,10.903 39.228,10.879 C39.262,10.823 39.295,10.763 39.327,10.71 L39.422,10.553 C39.625,10.213 40.063,10.102 40.401,10.304 Z M3.051,21.618 C2.714,21.463 2.405,21.279 2.153,21.065 C1.967,20.907 1.896,20.675 1.919,20.45 C1.894,20.453 1.87,20.461 1.844,20.461 C1.763,20.461 1.681,20.448 1.601,20.419 C1.573,20.409 1.55,20.391 1.523,20.379 C1.658,20.933 1.89,21.403 2.187,21.807 C2.345,21.613 2.593,21.5 2.857,21.543 C2.929,21.555 2.99,21.587 3.051,21.618 Z M4.18,22.018 C3.818,21.921 3.46,21.799 3.127,21.651 C3.346,21.795 3.471,22.053 3.44,22.326 C3.551,22.283 3.67,22.25 3.813,22.25 C3.869,22.25 3.908,22.272 3.959,22.279 C4.014,22.176 4.084,22.083 4.18,22.018 Z M22.054,15.556 C22.282,15.375 22.585,15.359 22.827,15.485 C22.847,15.461 22.868,15.436 22.888,15.412 L23.806,14.316 C24.301,13.737 24.779,13.15 25.146,12.584 C25.137,12.586 25.13,12.592 25.121,12.594 C24,12.791 22.798,13.029 21.599,13.426 C19.543,14.107 17.989,14.649 16.561,15.184 C16.254,15.3 15.883,15.505 15.491,15.721 C14.733,16.14 13.949,16.574 13.161,16.649 C13.138,16.651 13.115,16.652 13.092,16.652 C12.728,16.652 12.417,16.375 12.382,16.006 C12.344,15.613 12.632,15.264 13.025,15.227 C13.517,15.18 14.199,14.803 14.8,14.471 C15.239,14.228 15.655,13.998 16.06,13.846 C17.506,13.304 19.076,12.756 21.15,12.069 C22.437,11.643 23.699,11.393 24.874,11.186 C25.207,11.128 25.517,11.319 25.644,11.62 C25.816,11.166 25.866,10.739 25.732,10.353 C25.641,10.364 25.55,10.375 25.461,10.39 C25.237,10.424 24.986,10.463 24.708,10.463 C24.679,10.463 24.649,10.463 24.619,10.462 C24.224,10.45 23.915,10.121 23.927,9.727 C23.938,9.367 24.227,9.077 24.568,9.049 C24.103,8.726 23.563,8.479 22.936,8.316 C22.85,8.608 22.592,8.827 22.272,8.832 C20.892,8.854 19.704,9.295 18.328,9.806 L17.566,10.086 C16.974,10.298 16.361,10.509 15.739,10.724 C12.899,11.703 9.962,12.715 7.667,14.301 C7.543,14.386 7.402,14.427 7.261,14.427 C7.035,14.427 6.812,14.32 6.673,14.119 C6.449,13.794 6.53,13.349 6.855,13.125 C9.311,11.428 12.479,10.336 15.274,9.374 C15.89,9.162 16.497,8.953 17.084,8.742 L17.832,8.468 C18.058,8.384 18.28,8.305 18.503,8.224 C17.116,8.412 15.769,8.726 14.685,8.981 C12.734,9.438 3.79,11.84 1.801,17.68 C1.866,17.796 1.91,17.924 1.901,18.066 C1.869,18.566 1.995,19.006 2.093,19.078 C2.228,19.126 2.328,19.219 2.408,19.325 C2.869,17.647 3.966,16.569 5.243,15.457 C5.541,15.198 5.991,15.23 6.251,15.527 C6.51,15.825 6.478,16.276 6.181,16.535 C4.883,17.665 3.943,18.586 3.679,20.161 C3.67,20.213 3.647,20.258 3.628,20.305 C4.235,20.589 5.061,20.781 5.77,20.849 C5.752,20.835 5.73,20.829 5.714,20.814 C5.55,20.668 5.478,20.462 5.485,20.259 C5.443,20.267 5.402,20.281 5.357,20.281 C5.312,20.281 5.265,20.277 5.219,20.268 C4.832,20.192 4.579,19.816 4.656,19.429 C5.3,16.146 9.725,14.225 12.654,12.955 L13.394,12.631 C15.289,11.791 18.825,10.316 21.22,9.876 C21.606,9.803 21.98,10.062 22.051,10.45 C22.122,10.838 21.865,11.21 21.477,11.282 C19.228,11.695 15.81,13.123 13.974,13.937 L13.223,14.265 C10.753,15.338 7.11,16.92 6.215,19.188 C6.732,18.631 7.364,18.025 8.221,17.521 L8.437,17.394 C9.096,17.005 9.717,16.638 10.404,16.305 C10.758,16.135 11.186,16.282 11.358,16.637 C11.529,16.992 11.381,17.419 11.026,17.592 C10.393,17.898 9.796,18.251 9.163,18.624 L8.946,18.752 C8.022,19.297 7.392,20.005 6.837,20.63 L6.724,20.756 C6.668,20.818 6.599,20.86 6.53,20.898 C6.757,20.943 6.943,21.109 7.028,21.334 C7.049,21.302 7.06,21.264 7.087,21.234 L7.2,21.107 C7.794,20.439 8.533,19.607 9.65,18.949 L9.866,18.822 C10.524,18.433 11.146,18.066 11.833,17.733 C12.175,17.569 12.577,17.704 12.761,18.03 C13.95,17.236 15.139,16.497 16.751,15.707 C18.328,14.934 19.493,14.545 21.089,14.04 C21.465,13.92 21.866,14.129 21.985,14.506 C22.104,14.881 21.896,15.283 21.52,15.402 C19.939,15.902 18.871,16.259 17.38,16.99 C15.379,17.972 14.04,18.883 12.49,19.938 C11.811,20.4 11.094,20.888 10.269,21.419 C10.149,21.496 10.016,21.532 9.883,21.532 C9.648,21.532 9.418,21.417 9.282,21.204 C9.252,21.157 9.242,21.105 9.224,21.055 C8.866,21.389 8.556,21.733 8.268,22.056 L8.153,22.185 C8.09,22.256 8.013,22.306 7.933,22.346 C8.232,22.389 8.548,22.402 8.87,22.4 C10.613,22.111 12.235,21.334 13.812,20.448 C14.366,20.136 14.889,20.399 15.146,20.819 C15.568,20.609 15.986,20.395 16.393,20.181 C16.749,19.994 17.667,19.299 18.586,18.66 C18.555,18.616 18.524,18.571 18.503,18.519 C18.358,18.152 18.538,17.737 18.905,17.592 C19.922,17.191 21.122,16.293 22.054,15.556 Z M22.143,23.187 C22.51,23.29 22.897,23.362 23.29,23.416 C24.063,22.705 24.962,22.134 25.91,21.688 C25.819,21.726 25.725,21.75 25.632,21.75 C25.365,21.75 25.108,21.599 24.986,21.341 C24.818,20.984 24.969,20.558 25.326,20.39 C25.594,20.263 25.883,20.161 26.173,20.06 C26.538,19.933 26.883,19.811 27.151,19.641 C27.482,19.426 27.923,19.525 28.137,19.856 C28.289,20.092 28.277,20.381 28.142,20.606 C28.523,20.478 28.905,20.349 29.286,20.218 C30.379,19.842 31.51,19.453 32.645,19.117 C33.067,18.992 33.497,18.884 33.925,18.776 C34.523,18.626 35.088,18.484 35.637,18.296 C36.011,18.167 36.416,18.367 36.544,18.741 C36.672,19.115 36.472,19.521 36.1,19.648 C35.805,19.749 35.506,19.837 35.209,19.919 C35.844,19.905 36.488,19.917 37.144,19.948 C36.58,18.822 36.194,17.767 36.016,16.843 C35.684,16.961 35.352,17.1 35.008,17.257 C34.748,17.375 34.489,17.493 34.227,17.599 C32.682,18.224 31.243,18.946 29.72,19.71 L29.285,19.928 C29.182,19.979 29.073,20.004 28.966,20.004 C28.704,20.004 28.451,19.859 28.327,19.609 C28.15,19.256 28.293,18.827 28.645,18.651 L29.08,18.433 C30.56,17.69 32.093,16.921 33.691,16.274 C33.935,16.175 34.174,16.066 34.414,15.956 C34.865,15.75 35.339,15.552 35.841,15.398 C35.829,15.179 35.836,14.976 35.838,14.77 C35.338,14.846 34.724,15.143 34.177,15.409 C33.976,15.507 33.781,15.602 33.596,15.685 L33.124,15.896 C31.454,16.643 29.875,17.348 28.331,18.241 C28.219,18.306 28.096,18.337 27.974,18.337 C27.728,18.337 27.488,18.209 27.355,17.981 C27.158,17.64 27.274,17.203 27.616,17.005 C29.225,16.074 30.91,15.321 32.541,14.593 L33.013,14.382 C33.184,14.305 33.365,14.217 33.553,14.126 C34.212,13.805 34.961,13.439 35.7,13.344 C35.787,13.331 35.872,13.341 35.953,13.36 C35.961,13.312 35.976,13.269 35.986,13.221 C34.321,13.627 32.736,14.297 31.261,14.994 C29.609,15.774 27.854,16.642 26.223,17.696 C25.381,18.239 24.43,19.025 23.582,19.818 C23.784,19.737 23.977,19.654 24.188,19.574 C24.555,19.434 24.969,19.62 25.109,19.989 C25.249,20.358 25.063,20.77 24.694,20.91 C24.083,21.142 23.531,21.377 23.009,21.624 C23.094,21.607 23.185,21.596 23.267,21.575 C23.647,21.475 24.039,21.702 24.14,22.084 C24.241,22.465 24.013,22.855 23.632,22.957 C23.146,23.084 22.659,23.134 22.188,23.181 C22.172,23.183 22.158,23.185 22.143,23.187 Z M32.95,33.227 C32.835,32.776 32.778,32.36 32.778,31.975 C30.212,31.887 25.316,30.219 22.695,28.945 C22.795,29.268 22.944,29.592 23.117,29.917 C24.102,30.605 26.236,31.659 27.522,32.214 C27.717,31.919 28.057,31.735 28.503,31.864 C29.993,32.295 31.468,32.771 32.95,33.227 Z M34.042,29.062 C30.776,28.618 25.796,27.717 22.65,26.931 C22.611,27.057 22.592,27.186 22.571,27.314 C22.632,27.329 22.694,27.337 22.752,27.37 C25.075,28.634 30.565,30.555 32.985,30.555 C32.996,30.555 33.006,30.553 33.018,30.555 C33.027,30.555 33.036,30.559 33.046,30.561 C33.269,30.008 33.613,29.518 34.042,29.062 Z M48.92,29.127 C48.895,28.697 48.757,28.312 48.599,27.864 C48.482,27.534 48.36,27.192 48.276,26.804 C48.273,26.792 48.273,26.781 48.271,26.768 C48.242,26.624 48.224,26.478 48.211,26.336 C48.201,26.229 48.187,26.065 48.162,26.025 C48.078,25.888 47.763,25.713 47.509,25.573 C47.228,25.417 46.939,25.253 46.7,25.03 C46.69,25.021 46.678,25.014 46.668,25.005 C46.483,24.826 46.335,24.633 46.191,24.443 C45.906,24.065 45.775,23.909 45.39,23.852 C45.19,23.822 45.005,23.809 44.819,23.792 C44.482,23.765 44.159,23.754 43.855,23.774 C43.686,23.785 43.523,23.811 43.361,23.837 C42.876,23.916 42.41,24.058 41.933,24.272 C41.912,24.281 41.891,24.289 41.869,24.298 C41.77,24.344 41.666,24.402 41.565,24.454 C41.455,24.511 41.347,24.561 41.234,24.625 C41.021,24.744 40.799,24.879 40.572,25.022 C40.297,25.197 40.011,25.385 39.705,25.596 C39.556,25.7 39.431,25.806 39.314,25.915 C39.126,26.092 38.965,26.28 38.807,26.487 C38.741,26.572 38.676,26.659 38.607,26.752 C38.465,26.943 38.317,27.143 38.146,27.353 C38.107,27.4 38.067,27.44 38.028,27.484 C37.87,27.664 37.705,27.829 37.534,27.981 C37.284,28.202 37.023,28.403 36.754,28.609 L36.5,28.807 C36.376,28.903 36.271,28.991 36.158,29.082 C34.478,30.43 33.863,31.363 34.395,33.109 C34.543,33.595 34.641,34.091 34.735,34.57 C34.834,35.076 34.926,35.552 35.072,35.99 C35.237,36.486 35.866,37.187 36.757,37.863 C37.566,38.476 38.373,38.789 39.156,38.793 C39.336,38.793 39.509,38.758 39.683,38.729 C39.912,38.688 40.174,38.643 40.448,38.643 C40.46,38.643 40.554,38.645 40.566,38.645 C40.855,38.661 41.061,38.721 41.227,38.77 C41.369,38.811 41.441,38.831 41.544,38.831 L41.601,38.829 C41.659,38.827 41.731,38.809 41.8,38.794 C42.587,38.63 44.047,37.81 45.119,37.028 C45.826,36.514 46.698,35.653 47.34,34.835 C47.987,34.007 48.381,33.013 48.419,32.108 C48.425,31.975 48.45,31.856 48.466,31.729 C48.473,31.67 48.48,31.612 48.487,31.555 C48.519,31.348 48.55,31.151 48.595,30.961 C48.631,30.811 48.665,30.654 48.701,30.516 C48.725,30.424 48.741,30.342 48.763,30.254 C48.79,30.147 48.817,30.039 48.838,29.936 C48.881,29.733 48.899,29.53 48.903,29.332 C48.907,29.264 48.925,29.195 48.92,29.127 Z M50.063,24.941 C50.973,26.005 52.006,26.981 53.063,27.918 C53.077,27.915 53.086,27.904 53.1,27.9 C53.32,27.842 53.54,27.797 53.762,27.745 C51.52,24.776 48.924,21.465 47.96,20.566 C47.672,20.297 47.656,19.845 47.926,19.557 C48.195,19.268 48.648,19.253 48.935,19.523 C50.054,20.566 52.967,24.31 55.309,27.429 C55.536,27.39 55.763,27.348 55.991,27.314 C54.506,24.653 52.738,22.084 51.015,19.596 C49.89,17.974 48.728,16.296 47.647,14.594 C47.435,14.261 47.534,13.82 47.867,13.608 C48.2,13.396 48.641,13.495 48.853,13.828 C49.918,15.505 51.073,17.171 52.189,18.782 C54.041,21.454 55.956,24.217 57.528,27.126 C57.529,27.128 57.529,27.13 57.53,27.132 C57.736,27.113 57.94,27.097 58.146,27.083 C57.561,25.659 56.927,24.442 56.566,23.748 C56.383,23.398 56.519,22.967 56.869,22.785 C57.219,22.602 57.65,22.739 57.833,23.088 C58.31,24.005 58.808,25.015 59.264,26.067 C59.261,26.056 59.258,26.046 59.255,26.034 C58.684,23.816 58.035,21.304 56.891,19.471 C56.682,19.137 56.783,18.696 57.118,18.487 C57.454,18.278 57.894,18.381 58.102,18.715 C59.216,20.498 59.873,22.752 60.424,24.85 C60.161,22.756 59.461,20.429 57.963,18.044 C56.92,16.386 55.775,14.882 54.58,13.561 C53.976,12.891 53.359,12.271 52.736,11.705 C52.479,11.472 52.223,11.249 51.965,11.035 C51.951,11.023 51.937,11.011 51.922,10.999 C51.789,10.89 51.657,10.775 51.525,10.67 C51.383,10.558 51.241,10.456 51.1,10.35 C50.905,10.204 50.709,10.059 50.514,9.925 C50.336,9.803 50.159,9.688 49.982,9.575 C49.256,9.114 48.539,8.74 47.836,8.455 C47.234,8.211 46.646,8.037 46.075,7.934 C45.683,7.863 45.297,7.815 44.926,7.815 C44.588,7.815 44.266,7.853 43.955,7.915 C44.13,8.032 44.26,8.214 44.279,8.439 C44.282,8.488 44.268,8.533 44.262,8.581 C44.221,8.91 43.969,9.182 43.625,9.21 C43.217,9.243 42.798,9.551 42.354,9.878 C42.174,10.01 41.993,10.137 41.809,10.257 C42.01,10.459 42.08,10.767 41.96,11.044 C41.935,11.101 41.913,11.163 41.89,11.227 C41.795,11.49 41.732,11.792 41.832,12.005 C41.999,12.362 41.845,12.787 41.488,12.955 C41.389,13.001 41.287,13.022 41.185,13.022 C40.917,13.022 40.659,12.87 40.538,12.61 C40.417,12.352 40.367,12.067 40.365,11.765 C40.254,11.967 40.177,12.155 40.191,12.332 C40.203,12.479 40.157,12.613 40.09,12.733 C40.173,12.85 40.233,12.985 40.233,13.141 C40.233,15.135 40.841,17.042 42.041,18.811 C42.697,19.776 43.382,20.746 44.078,21.691 C44.128,21.76 44.174,21.82 44.223,21.887 C44.549,22.02 44.874,22.145 45.211,22.255 C45.321,22.29 45.41,22.354 45.486,22.429 C45.525,22.435 45.56,22.434 45.599,22.439 C45.831,22.474 46.028,22.536 46.203,22.61 C44.654,20.711 43.508,19.005 42.132,15.995 C41.968,15.637 42.126,15.213 42.485,15.049 C42.844,14.884 43.268,15.044 43.432,15.402 C45.221,19.317 46.62,20.941 49.159,23.889 L50.063,24.941 Z M50.301,28.659 C50.317,28.672 50.331,28.686 50.347,28.699 L50.618,28.928 C50.921,29.182 51.226,29.436 51.535,29.688 C51.588,29.645 51.64,29.606 51.691,29.563 C51.868,29.418 52.056,29.264 52.257,29.114 C51.383,28.344 50.527,27.538 49.719,26.676 C49.781,26.912 49.859,27.145 49.945,27.388 C50.085,27.783 50.227,28.193 50.301,28.659 Z M66.309,38.104 C65.889,37.004 65.545,36.315 64.994,35.467 C64.689,35.002 64.508,34.539 64.331,34.094 C64.318,34.063 64.306,34.033 64.294,34.002 C64.076,33.457 63.874,32.979 63.452,32.549 C63.19,32.285 62.873,32.117 62.537,31.94 C62.197,31.76 61.847,31.575 61.529,31.282 C61.508,31.264 61.498,31.245 61.479,31.227 C61.333,31.081 61.232,30.932 61.161,30.819 C61.135,30.778 61.118,30.758 61.099,30.729 C61.024,30.686 60.96,30.631 60.906,30.565 C60.903,30.563 60.898,30.563 60.895,30.563 C60.893,30.561 60.889,30.561 60.886,30.561 C60.835,30.538 60.767,30.528 60.704,30.514 C60.546,30.479 60.368,30.455 60.169,30.442 C60.144,30.44 60.122,30.438 60.098,30.436 C59.821,30.416 59.535,30.399 59.246,30.331 C59.231,30.327 59.222,30.323 59.206,30.319 C59.011,30.272 58.831,30.221 58.665,30.178 C58.133,30.03 57.774,29.942 57.213,29.994 C57.18,29.996 57.153,29.996 57.12,30 C56.48,30.08 55.925,29.953 55.452,29.844 C55.403,29.832 55.356,29.824 55.308,29.813 L55.226,29.795 C55.024,29.752 54.826,29.713 54.625,29.699 L54.509,29.695 C54.39,29.695 54.28,29.722 54.168,29.744 C53.897,29.799 53.638,29.918 53.375,30.086 C53.161,30.225 52.937,30.391 52.696,30.59 C52.662,30.615 52.633,30.637 52.598,30.666 C52.467,30.773 52.334,30.877 52.201,30.978 C51.968,31.156 51.759,31.333 51.57,31.525 C51.529,31.566 51.487,31.609 51.449,31.654 C51.412,31.697 51.364,31.734 51.332,31.781 C51.197,31.967 51.177,32.082 51.158,32.289 C51.156,32.316 51.154,32.34 51.151,32.371 C51.137,32.549 51.114,32.771 51.047,33.029 C51.04,33.056 51.038,33.08 51.029,33.109 C50.888,33.588 50.717,33.925 50.58,34.197 C50.359,34.631 50.249,34.849 50.339,35.486 C50.497,36.593 50.624,37.47 51.092,38.338 C51.144,38.438 51.196,38.508 51.245,38.578 C51.391,38.783 51.572,39.039 51.666,39.5 C51.717,39.771 51.667,39.992 51.635,40.137 C51.627,40.172 51.617,40.203 51.615,40.239 C51.76,40.641 52.501,41.009 53.095,41.305 C53.24,41.377 53.379,41.446 53.508,41.516 C53.691,41.61 53.889,41.702 54.088,41.795 C54.628,42.043 55.239,42.324 55.714,42.76 C55.955,42.983 56.125,43.237 56.275,43.459 C56.401,43.648 56.52,43.826 56.641,43.92 C56.988,44.19 57.523,44.32 58.279,44.32 C58.294,44.32 58.309,44.318 58.324,44.318 C58.928,44.314 59.576,44.23 60.15,44.154 C60.41,44.119 60.657,44.086 60.881,44.062 C61.874,43.958 62.741,43.794 63.485,43.572 C63.758,43.492 64.015,43.402 64.255,43.304 C64.347,43.267 64.426,43.224 64.511,43.185 C64.749,43.076 64.969,42.958 65.168,42.831 C65.588,42.565 65.935,42.267 66.186,41.925 C67.123,40.643 66.583,38.826 66.309,38.104 Z M73.188,35.824 C71.578,37.111 69.316,38.402 68.031,38.976 C68.074,39.208 68.103,39.437 68.12,39.664 C68.31,39.598 68.514,39.547 68.74,39.547 C68.748,39.547 68.757,39.551 68.765,39.551 C68.873,39.498 68.982,39.44 69.09,39.379 C69.927,38.92 70.77,38.258 71.516,37.629 C71.728,37.449 71.934,37.274 72.127,37.108 C72.41,36.864 72.671,36.641 72.916,36.44 C73.012,36.238 73.102,36.033 73.188,35.824 Z M73.315,33.785 C72.234,34.377 69.189,35.939 67.002,36.103 C67.221,36.544 67.424,37.019 67.64,37.585 C69.301,36.816 72.252,34.994 73.315,33.785 Z M71.777,32.51 C69.493,32.811 67.44,33.067 65.999,33.139 C65.818,33.149 65.65,33.153 65.489,33.157 C65.524,33.237 65.555,33.315 65.587,33.395 C65.609,33.452 65.636,33.512 65.658,33.567 C65.808,33.95 65.956,34.309 66.166,34.643 C66.179,34.645 66.191,34.641 66.205,34.645 C67.435,35.008 70.885,33.555 72.941,32.358 C72.601,32.402 72.21,32.453 71.777,32.51 Z M68.65,29.865 C66.511,29.121 64.248,28.666 61.945,28.506 C61.767,28.494 61.591,28.479 61.413,28.47 C61.346,28.466 61.277,28.462 61.21,28.459 C61.177,28.458 61.144,28.459 61.11,28.457 C60.901,28.449 60.692,28.447 60.483,28.444 C60.377,28.443 60.271,28.439 60.164,28.438 C60.081,28.438 60,28.435 59.917,28.436 C59.502,28.439 59.086,28.451 58.672,28.473 C58.337,28.491 58.002,28.521 57.667,28.551 C58.075,28.565 58.421,28.636 58.758,28.724 C58.853,28.749 58.948,28.774 59.044,28.799 C59.208,28.845 59.383,28.893 59.579,28.94 C59.744,28.979 59.925,28.989 60.105,29 C60.134,29.002 60.161,29.008 60.19,29.01 C60.242,29.014 60.296,29.018 60.35,29.022 C60.371,29.024 60.392,29.026 60.412,29.028 C60.622,29.044 60.841,29.071 61.06,29.124 C61.083,29.128 61.108,29.132 61.132,29.14 C61.167,29.148 61.201,29.161 61.237,29.173 C61.324,29.2 61.411,29.228 61.497,29.267 C61.579,29.304 61.641,29.345 61.707,29.386 C61.752,29.382 61.797,29.382 61.841,29.378 C63.315,29.273 64.808,29.364 66.509,29.69 C66.897,29.762 67.151,30.137 67.076,30.524 C67.011,30.866 66.712,31.104 66.376,31.104 C66.331,31.104 66.287,31.1 66.241,31.092 C65.2,30.893 64.27,30.793 63.372,30.768 C63.726,30.959 64.107,31.184 64.466,31.547 C64.513,31.594 64.546,31.645 64.589,31.693 C64.606,31.695 64.62,31.689 64.636,31.693 C65.098,31.789 66.301,31.709 67.653,31.57 C69.002,31.433 70.498,31.236 71.554,31.097 C70.62,30.627 69.649,30.213 68.65,29.865 Z" id="Shape"></path>
        </g>
    </g>
</svg>