<?xml version="1.0" encoding="UTF-8"?>
<svg width="34px" height="59px" viewBox="0 0 34 59" version="1.1" xmlns="http://www.w3.org/2000/svg" xmlns:xlink="http://www.w3.org/1999/xlink">
    <!-- Generator: Sketch 49.2 (51160) - http://www.bohemiancoding.com/sketch -->
    <title>rancid</title>
    <desc>Created with Sketch.</desc>
    <defs></defs>
    <g id="Page-1" stroke="none" stroke-width="1" fill="none" fill-rule="evenodd">
        <g id="rancid" fill="#000000" fill-rule="nonzero">
            <g id="Group">
                <g id="Shape">
                    <g>
                        <path d="M17,51.012 C13.6255442,51.012 10.1539523,50.4629436 6.78604289,49.5470457 C5.60562213,49.226032 4.52354349,48.8823004 3.56444954,48.5391882 C3.23042821,48.4196933 2.93622776,48.3090751 2.68490972,48.2102597 C2.5369699,48.1520915 2.43796398,48.1115572 2.39094471,48.0915858 C1.53499733,47.7280233 0.689682526,48.627433 1.10557281,49.4592136 C1.26661376,49.7812955 1.57759196,50.314401 2.04581753,50.9886458 C2.8178346,52.1003504 3.76111184,53.2100883 4.8842199,54.2468034 C8.10544976,57.2202464 12.1368954,59.012 17,59.012 C21.8631046,59.012 25.8945502,57.2202464 29.1157801,54.2468034 C30.2388882,53.2100883 31.1821654,52.1003504 31.9541825,50.9886458 C32.422408,50.314401 32.7333862,49.7812955 32.8944272,49.4592136 C33.3103175,48.627433 32.4650027,47.7280233 31.6090553,48.0915858 C31.562036,48.1115572 31.4630301,48.1520915 31.3150903,48.2102597 C31.0637722,48.3090751 30.7695718,48.4196933 30.4355505,48.5391882 C29.4764565,48.8823004 28.3943779,49.226032 27.2139571,49.5470457 C23.8460477,50.4629436 20.3744558,51.012 17,51.012 Z M27.7592199,52.7771966 C24.8866998,55.4287536 21.3243954,57.012 17,57.012 C12.6756046,57.012 9.11330024,55.4287536 6.2407801,52.7771966 C5.61204294,52.1968238 5.04535049,51.5902384 4.53994266,50.9742377 C5.08799655,51.1457089 5.66265606,51.3141793 6.26120711,51.4769543 C9.78798519,52.4360564 13.4295808,53.012 17,53.012 C20.5704192,53.012 24.2120148,52.4360564 27.7387929,51.4769543 C28.3373439,51.3141793 28.9120035,51.1457089 29.4600573,50.9742377 C28.9546495,51.5902384 28.3879571,52.1968238 27.7592199,52.7771966 Z"></path>
                        <path d="M21.0355808,24.0218899 C22.5760745,24.155348 24.4421061,23.7002969 26.2130557,22.1777558 C26.3810147,22.0333561 26.5458273,21.8804862 26.7073068,21.7190068 C26.739382,21.6962997 26.9274976,21.5473282 27.1961053,21.3516236 C27.649676,21.0211573 28.1550621,20.6900114 28.6966028,20.3817326 C29.2752794,20.0523136 29.8605951,19.7693369 30.4418093,19.5467713 C33.0786127,18.536245 34.4010498,15.5476755 33.3936181,12.9047218 C31.9962203,9.2408129 28.6384944,7.0119 23.0002,7.0119 L20.1192,7.0119 C15.0157699,7.0119 10.1010764,8.15809038 5.80071053,10.4198466 C2.60229886,12.1025602 0.559510485,13.9560586 0.0954481747,16.119135 C-0.0351149141,16.7254265 0.0383278427,17.3567217 0.292492593,17.9320168 C1.81218711,21.3601668 4.60636072,24.0119 9.0002,24.0119 C9.13245727,24.0119 9.2634008,23.9856645 9.38544946,23.9347125 C9.52444039,23.8766875 9.78775004,23.7717832 10.1501557,23.635686 C10.7573988,23.4076431 11.4139635,23.1794181 12.0941506,22.966714 C12.9712603,22.6924295 13.8216936,22.4649284 14.6175482,22.3000533 C15.1218752,22.1955732 15.5962904,22.1180337 16.0351195,22.0699506 C16.3398391,22.036442 16.6315363,22.1298867 16.8312708,22.3197287 C17.8875952,23.3250231 19.260925,23.9939243 20.9324297,24.0115433 C20.9628043,24.0150618 20.9972309,24.0185675 21.0355808,24.0218899 Z M2.12139978,17.1226362 C2.03462298,16.9262173 2.01107777,16.7238287 2.05078944,16.5394205 C2.35372225,15.1273986 4.01717845,13.6180825 6.73180322,12.1898936 C10.7366893,10.0835436 15.3317371,9.0119 20.1192,9.0119 L23.0002,9.0119 C27.8222145,9.0119 30.4281498,10.7417621 31.52485,13.6172567 C32.1404733,15.2323178 31.3296606,17.0646695 29.7263407,17.6791245 C29.044816,17.9401022 28.3694241,18.2666272 27.7071643,18.6436269 C27.096497,18.9912569 26.5293501,19.3628705 26.0183714,19.7351637 C25.7082495,19.9611149 25.4822366,20.1400978 25.3538206,20.2488839 C25.1670754,20.430811 25.0390762,20.5495351 24.9092112,20.6611841 C24.1541299,21.3103512 23.3581694,21.7060419 22.5540093,21.9021447 C22.0178664,22.0328887 21.5540055,22.0593115 21.2082009,22.0293533 C21.1737712,22.0263705 21.0002,22.0119 21.0002,22.0119 C19.8681481,22.0119 18.9371357,21.5629082 18.209593,20.8705125 C17.5741386,20.2665307 16.6959997,19.9852204 15.8168933,20.0818919 C15.3115182,20.1372665 14.7752448,20.2249162 14.2118284,20.3416377 C13.3457407,20.5210628 12.4332115,20.7651754 11.4972284,21.0578705 C10.7789226,21.2824948 10.0875017,21.5228359 9.44702559,21.7633591 C9.1860808,21.8613538 8.97109762,21.9450689 8.80964321,22.0097082 C5.49196023,21.9330434 3.33210592,19.853764 2.12139978,17.1226362 Z"></path>
                        <path d="M12.6574022,1.95148216 C12.7983072,2.00286554 13.0793548,2.12814584 13.4529716,2.33508801 C14.0882467,2.68695983 14.725274,3.13623399 15.3180727,3.68892001 C16.9997775,5.25682936 18,7.32495618 18,10.012 C18,10.5642847 18.4477153,11.012 19,11.012 C19.5522847,11.012 20,10.5642847 20,10.012 C20,6.73854382 18.7502225,4.15442064 16.6819273,2.22607999 C15.4459305,1.07371903 14.208307,0.388213113 13.3425978,0.0725178402 C12.8237362,-0.116693715 12.2497294,0.150540503 12.0605178,0.669402172 C11.8713063,1.18826384 12.1385405,1.7622706 12.6574022,1.95148216 Z"></path>
                        <path d="M15.3259532,13.7492886 C17.1816227,15.4425707 21.0008138,15.5035417 22.7227619,13.7026971 C23.1044443,13.3035267 23.0902675,12.6705205 22.6910971,12.2888381 C22.2919267,11.9071557 21.6589205,11.9213325 21.2772381,12.3205029 C20.3384571,13.3022972 17.7581034,13.2611034 16.6740468,12.2719114 C16.2660804,11.8996456 15.6335772,11.9285867 15.2613114,12.3365532 C14.8890456,12.7445196 14.9179867,13.3770228 15.3259532,13.7492886 Z"></path>
                        <path d="M8.72923312,21.9971388 C7.94389292,21.9669334 7.4322442,22.8128002 7.82359634,23.4943536 C9.10785477,25.7309346 9.9998,29.4523921 9.9998,35.0124 C10.007959,35.150021 10.0153892,35.2593432 10.0230587,35.4201021 C10.114523,37.3372667 9.95941794,39.6061772 9.36440839,41.7443019 C8.25593703,45.7275152 5.95407879,48.0124 1.9998,48.0124 C0.910549946,48.0124 0.606294111,49.5069776 1.60885529,49.9328142 C1.6721954,49.9597178 1.78786428,50.0070741 1.95287075,50.0719528 C2.22312986,50.1782155 2.53669015,50.296113 2.89056921,50.4227118 C3.89690495,50.7827246 5.02828724,51.142118 6.26100711,51.4773543 C9.78778519,52.4364564 13.4293808,53.0124 16.9998,53.0124 C20.5706563,53.0124 24.2123521,52.4364557 27.738979,51.4773513 C28.9716505,51.1421129 30.102957,50.782717 31.1092011,50.4227012 C31.463049,50.2961009 31.7765786,50.178202 32.0468088,50.0719376 C32.2117991,50.0070574 32.3274566,49.9596995 32.3907916,49.9327942 C33.393305,49.5069177 33.0890217,48.0124 31.9998,48.0124 C28.7028558,48.0124 26.5695477,46.4289758 25.2852449,43.5652005 C25.1048109,43.1628636 24.6821469,42.926194 24.2448287,42.9826221 C24.1387952,42.9971347 24.1387952,42.9971347 24.1243076,42.9991529 C24.0512498,43.0092895 24.0189434,43.0124 23.9998,43.0124 C22.8954816,43.0124 21.9998,42.1165122 21.9998,41.0124 C21.9998,40.4632662 22.2245989,39.9515645 22.6191734,39.5729393 C23.3862436,38.8368756 22.626989,37.5708057 21.6163982,37.9007945 C21.3858169,37.9760864 21.1875382,38.0124 20.9998,38.0124 C19.8954816,38.0124 18.9998,37.1165122 18.9998,36.0124 C18.9998,34.9646544 19.8151226,34.1020139 20.864229,34.030056 C21.7004135,33.9727023 22.0992826,32.9738576 21.5326104,32.3563006 C21.1901598,31.9830993 20.9998,31.512382 20.9998,31.0124 C20.9998,29.9076847 21.8950847,29.0124 22.9998,29.0124 C23.1012957,29.0124 23.2136298,29.024283 23.357401,29.0498974 C23.9078264,29.1479617 24.4317287,28.77569 24.5202004,28.2236416 C24.9137001,25.7682708 25.4906989,23.694392 26.1431318,22.0651528 C26.5204297,21.1229737 25.4164472,20.2829414 24.6089789,20.8977991 C23.9013253,21.4366516 23.1660564,21.7651312 22.4314943,21.9267657 C21.93967,22.0349877 21.5170834,22.0556764 21.2024837,22.0290176 C21.1692334,22.0262 20.9998,22.0124 20.9998,22.0124 C19.8692379,22.0124 18.9391024,21.5635346 18.2095801,20.8704297 C17.7461339,20.4294079 17.1475579,20.1593235 16.5066141,20.0858979 C16.4320952,20.0773612 16.3568523,20.0772355 16.2823053,20.0855233 L14.5553053,20.2775233 C14.387117,20.3068243 14.2982677,20.3246753 14.2087762,20.3432506 C13.3448202,20.5225774 12.4345643,20.7661076 11.500852,21.0578827 C10.7817878,21.2825826 10.0895179,21.5230043 9.44817016,21.7636066 C9.19700259,21.8578324 8.98835119,21.938858 8.82895571,22.0024216 C8.79218674,22.0000117 8.76289231,21.9984334 8.72923312,21.9971388 Z M28.1557328,49.2807045 C27.8494834,49.3709889 27.5354472,49.4600606 27.214121,49.5474487 C23.8463729,50.4633443 20.3746937,51.0124 16.9998,51.0124 C13.6253442,51.0124 10.1537523,50.4633436 6.78584289,49.5474457 C6.46870292,49.4611999 6.15866147,49.3733144 5.85619644,49.2842415 C8.57906377,48.129049 10.3516495,45.6566762 11.2911916,42.2804981 C11.9529392,39.9025551 12.1215275,37.4364073 12.0207865,35.3247944 C12.0118641,35.137772 12.0027023,35.0029731 11.996098,34.9264337 C11.9992898,29.9190365 11.2756759,26.2079378 10.1354723,23.6418751 C10.7588568,23.4080081 11.4163517,23.1796636 12.0973834,22.9668484 C12.9725615,22.6933646 13.8210841,22.4663506 14.6152421,22.3015114 C14.6963229,22.2846819 14.7766812,22.2685369 14.8562927,22.2530886 L16.3720232,22.0876083 C16.5516642,22.1240547 16.7100782,22.2043295 16.8314366,22.3198157 C17.8907315,23.3262316 19.2628055,23.9948166 20.9335157,24.0120584 C20.9630231,24.0153991 20.9964288,24.0187246 21.0336112,24.0218754 C21.7742333,24.0846349 22.6015896,24.0089894 23.4643525,23.7354057 C23.1746359,24.7393384 22.9150978,25.8377224 22.6972368,27.0236692 C20.6293103,27.1782945 18.9998,28.9049029 18.9998,31.0124 C18.9998,31.5021995 19.0901111,31.9778718 19.2600639,32.4218021 C17.9184362,33.0678429 16.9998,34.4347725 16.9998,36.0124 C16.9998,37.9300267 18.3500064,39.5331667 20.1516822,39.9222733 C20.0520352,40.2719224 19.9998,40.638014 19.9998,41.0124 C19.9998,43.1403145 21.6623717,44.8809871 23.7595021,45.005298 C24.7869233,46.9973713 26.2450325,48.4661452 28.1557328,49.2807045 Z"></path>
                    </g>
                </g>
            </g>
        </g>
    </g>
</svg>