<?xml version="1.0" encoding="UTF-8"?>
<svg width="60px" height="47px" viewBox="0 0 60 47" version="1.1" xmlns="http://www.w3.org/2000/svg" xmlns:xlink="http://www.w3.org/1999/xlink">
    <!-- Generator: Sketch 49.3 (51167) - http://www.bohemiancoding.com/sketch -->
    <title>noun_193504_cc</title>
    <desc>Created with Sketch.</desc>
    <defs></defs>
    <g id="Page-1" stroke="none" stroke-width="1" fill="none" fill-rule="evenodd">
        <g id="noun_193504_cc" fill="#000000" fill-rule="nonzero">
            <path d="M59.5038105,13.1315483 C59.1178853,12.6391153 49.9659449,2.18859139 38.8843785,0.0547147846 C38.6638498,0 38.388189,0 38.1676603,0 C36.4034308,0 34.528937,1.20372526 32.7095753,2.29802095 C31.8274606,2.8451688 30.5042885,3.72060536 30.0632311,3.72060536 C29.5670416,3.66589057 28.078473,2.79045402 27.1963582,2.29802095 C25.3769966,1.20372526 23.3922384,0.109429569 21.628009,0.109429569 C21.2972159,0.109429569 21.0766872,0.109429569 20.7458942,0.164144354 C9.66432784,2.51688009 0.788048304,13.459837 0.457255278,13.9522701 C-0.259462946,14.8277066 -0.0940664327,16.0861467 0.677783962,16.7974389 C1.00857699,17.016298 5.52941501,20.7916182 12.9171259,23.8009313 L12.9171259,30.0384168 C12.9171259,39.3946449 20.5253655,47 30.008099,47 C39.4908324,47 47.099072,39.4493597 47.099072,30.0384168 L47.099072,24.1839348 C54.8727081,20.9010477 59.2281496,16.1408615 59.5038105,15.9220023 C60.1653965,15.1012806 60.1653965,13.9522701 59.5038105,13.1315483 Z M42.7987626,29.9289872 C42.7987626,37.0419092 37.0650168,42.7869616 29.8978346,42.7869616 C22.7306524,42.7869616 16.9417744,37.0419092 16.9417744,29.9289872 L16.9417744,20.9010477 C16.9417744,17.7275902 19.6432508,16.3050058 22.1793307,16.3050058 C24.3846175,16.3050058 26.6450365,17.3445867 28.4643982,19.1501746 L28.4643982,27.9592549 C28.4643982,28.7252619 29.1811164,29.3818393 29.9529668,29.3818393 C30.7248172,29.3818393 31.4415354,28.7252619 31.4415354,27.9592549 L31.4415354,19.1501746 C33.260897,17.3445867 35.4661839,16.3050058 37.7266029,16.3050058 C40.2626828,16.3050058 42.7987626,17.7275902 42.7987626,20.9010477 L42.7987626,29.9289872 Z M46.9336755,19.6973225 C46.3823538,15.3748545 42.578234,12.201397 37.7266029,12.201397 C35.0251265,12.201397 32.3236501,13.1315483 30.008099,14.9371362 C27.6925478,13.1315483 24.9910714,12.201397 22.289595,12.201397 C17.5482283,12.201397 13.7992407,15.2107101 13.0825224,19.3690338 C9.44379916,17.782305 6.74232278,16.0861467 5.08835764,14.9371362 C7.8449662,11.9278231 14.2954302,5.79976717 21.628009,4.21303842 C22.289595,4.21303842 23.9986923,5.25261932 25.1013357,5.85448196 C26.9206974,6.94877765 28.5195303,7.8242142 30.008099,7.8242142 C31.4966676,7.8242142 33.0955005,6.89406286 34.85973,5.79976717 C35.7969769,5.25261932 37.5612064,4.15832363 38.0573959,4.15832363 C45.500239,5.58090803 52.2814961,11.6542491 55.0381046,14.3899884 C53.4944038,15.757858 50.7929274,17.8917346 46.9336755,19.6973225 Z" id="Shape"></path>
            <path d="M37,37 C34.76,37 33,35.1355932 33,33.0048426 C33,31.1404358 35.4533333,27.464891 36.1466667,26.3995157 C36.52,25.8668281 37.4266667,25.8668281 37.8533333,26.3995157 C38.6,27.464891 41,31.1404358 41,33.0048426 C41,35.1355932 39.24,37 37,37 Z M37,28.8498789 C35.9333333,30.5544794 35.08,32.3123487 35.08,32.8983051 C35.08,33.9636804 35.9333333,34.8159806 37,34.8159806 C38.0666667,34.8159806 38.92,33.9636804 38.92,32.8983051 C38.92,32.3123487 38.0133333,30.5544794 37,28.8498789 Z" id="Shape"></path>
        </g>
    </g>
</svg>