<?xml version="1.0" encoding="UTF-8"?>
<svg width="24px" height="87px" viewBox="0 0 24 87" version="1.1" xmlns="http://www.w3.org/2000/svg" xmlns:xlink="http://www.w3.org/1999/xlink">
    <!-- Generator: Sketch 49.2 (51160) - http://www.bohemiancoding.com/sketch -->
    <title>wine</title>
    <desc>Created with Sketch.</desc>
    <defs></defs>
    <g id="Page-1" stroke="none" stroke-width="1" fill="none" fill-rule="evenodd">
        <g id="wine" fill="#000000" fill-rule="nonzero">
            <path d="M17.444276,25.0502 L17.444276,2.3171 L16.9321101,2.3171 L16.9321101,0 L7.06788991,0 L7.06788991,2.3171 L6.55572397,2.3171 L6.55572397,3.28376667 C6.55572397,3.28376667 6.55572397,21.5566667 6.55572397,25.0502 C2.49668927,27.3866333 0,31.7047333 0,36.4578333 L0,43.6914 L0,67.1514333 L0,87 L24,87 L24,67.1514333 L24,43.6914 L24,36.4578333 C24,31.7047333 21.5033107,27.3876 17.444276,25.0502 Z M8.98252892,1.93333333 L15.0174711,1.93333333 L15.0174711,2.3171 L8.98252892,2.3171 L8.98252892,1.93333333 Z M22.085361,85.0666667 L1.91463901,85.0666667 L1.91463901,67.1514333 L22.085361,67.1514333 L22.085361,85.0666667 Z M22.085361,65.2181 L1.91463901,65.2181 L1.91463901,45.6247333 L22.085361,45.6247333 L22.085361,65.2181 Z M22.085361,43.6914 L1.91463901,43.6914 L1.91463901,36.4578333 C1.91463901,32.2915 4.16433985,28.5176333 7.79832469,26.5669 C8.47036298,26.4257667 8.47036298,25.7346 8.47036298,24.6664333 L8.47036298,4.25043333 L15.529637,4.25043333 L15.529637,26.2169667 L16.0504188,26.4866667 C19.7734344,28.4132333 22.085361,32.2335 22.085361,36.4578333 L22.085361,43.6914 Z M8.16114878,61.2344667 C8.76426007,61.2344667 9.29748704,60.9464 9.64978061,60.5046333 C9.92931791,60.6583333 10.2394894,60.7501667 10.5611488,60.7501667 C11.2408456,60.7501667 11.8362984,60.3886333 12.1771041,59.8482667 C12.4212206,59.9594333 12.6854408,60.0232333 12.9601915,60.0232333 C13.7183885,60.0232333 14.3684085,59.5727667 14.6795373,58.9270333 C14.8949342,59.0092 15.1246909,59.0536667 15.3582768,59.0536667 C16.4151576,59.0536667 17.2757878,58.1846333 17.2757878,57.1174333 C17.2757878,56.7839333 17.1838851,56.4736333 17.0364579,56.1991 C17.4796968,55.8366 17.7563622,55.2875333 17.7563622,54.694 C17.7563622,53.7012333 17.009653,52.8892333 16.0552054,52.78 C16.0226566,52.49 15.9307539,52.2193333 15.784284,51.9825 C16.3462306,51.6103333 16.731073,50.9124 16.731073,50.1033 C16.731073,49.8365 16.5166334,49.6199667 16.2524132,49.6199667 C15.9881931,49.6199667 15.7737535,49.8365 15.7737535,50.1033 C15.7737535,50.7055333 15.4358197,51.1840333 15.0059832,51.2700667 C14.8729158,51.2033667 14.7341045,51.1492333 14.5866773,51.1144333 C14.3913841,50.2541 13.6303151,49.6083667 12.7208616,49.6083667 C12.2201835,49.6083667 11.7625848,49.8200667 11.4122058,50.1555 C11.0675708,49.8181333 10.5984842,49.6083667 10.0815317,49.6083667 C9.02465098,49.6083667 8.16402074,50.4774 8.16402074,51.5455667 C8.16402074,51.8587667 8.24347826,52.1565 8.37941763,52.4252333 C7.68919027,52.7191 7.20382928,53.4083333 7.20382928,54.2106667 C7.20382928,54.6882 7.38284803,55.1203 7.66717192,55.4586333 C7.10522537,55.7969667 6.72421221,56.4098333 6.72421221,57.1174333 C6.72421221,57.3784333 6.79122457,57.6249333 6.88887116,57.8598333 C6.49637016,58.2146 6.24363781,58.725 6.24363781,59.2972667 C6.24363781,60.3654333 7.10426805,61.2344667 8.16114878,61.2344667 Z M10.5611488,59.7835 C10.3773434,59.7835 10.202154,59.7313 10.0499402,59.6346333 C10.0700439,59.5234667 10.0796171,59.4113333 10.0796171,59.2982333 C10.0796171,59.1281 10.0508975,58.9657 10.0097327,58.8091 C9.99920223,58.7685 9.98675708,58.7298333 9.97335461,58.6902 C9.92740327,58.5529333 9.8699641,58.4224333 9.7962505,58.3006333 C9.78859194,58.2880667 9.78571998,58.2726 9.77806143,58.2600333 C9.82784204,58.1894667 9.88432389,58.1237333 9.95133626,58.0686333 C9.9580375,58.0628333 9.96665337,58.0589667 9.97335461,58.0531667 C10.0394097,58.0019333 10.1121659,57.9594 10.1906661,57.9255667 C10.2586358,57.8965667 10.3285201,57.8753 10.4012764,57.8637 C10.4816913,57.8501667 10.5649781,57.8540333 10.6482649,57.8627333 C10.708576,57.8685333 10.7650578,57.8820667 10.8205824,57.8975333 C10.8808935,57.9149333 10.9402473,57.9352333 10.9976865,57.9642333 C11.0809733,58.0087 11.1623454,58.0560667 11.2284005,58.1218 C11.3088153,58.2010667 11.3672118,58.2948333 11.4150778,58.3934333 C11.4227363,58.4089 11.4370961,58.4195333 11.4437974,58.4359667 C11.493578,58.5548667 11.5203829,58.6815 11.5203829,58.8139333 C11.5213402,59.3485 11.0905465,59.7835 10.5611488,59.7835 Z M11.9444755,56.4456 C11.703231,56.5983333 11.493578,56.7994 11.3394495,57.0459 C11.3375349,57.0449333 11.3346629,57.0449333 11.3327483,57.0439667 C11.2312724,56.9985333 11.1240527,56.9647 11.0139609,56.9376333 C10.9948145,56.9328 10.9766254,56.9241 10.9584364,56.9202333 C10.8301556,56.8931667 10.6970882,56.8777 10.5601915,56.8777 C10.5544475,56.8777 10.5487036,56.8777 10.543917,56.8777 C10.5420024,56.8593333 10.5324292,56.8429 10.5295572,56.8245333 C10.5046669,56.6602 10.4644595,56.5016667 10.4012764,56.3528 C10.4003191,56.3499 10.3984045,56.347 10.3964898,56.3441 C10.3323494,56.1962 10.2452333,56.0618333 10.1475868,55.9352 C10.1360989,55.9197333 10.1293977,55.9004 10.1169525,55.8849333 C10.1188672,55.8772 10.1207818,55.8685 10.1236538,55.8607667 C10.1322696,55.8559333 10.1389709,55.8472333 10.1466294,55.8414333 C10.3830874,55.6896667 10.5850818,55.4857 10.7353809,55.2469333 C10.7372956,55.2440333 10.7401675,55.2411333 10.7420822,55.2382333 C10.819625,55.2121333 10.8981252,55.1879667 10.9785401,55.1831333 C10.984284,55.1831333 10.9900279,55.1841 10.9967292,55.1841 C11.077144,55.1812 11.1566015,55.1908667 11.2331871,55.2082667 C11.2810531,55.2189 11.3260471,55.2353333 11.3719984,55.2527333 C11.3988034,55.2633667 11.424651,55.2749667 11.4504986,55.2885 C11.6142002,55.3706667 11.7530116,55.4982667 11.8516155,55.6548667 C11.8736338,55.6906333 11.8937375,55.7273667 11.9119266,55.767 C11.928201,55.8056667 11.9454328,55.8414333 11.9559633,55.8820333 C11.9818109,55.9671 12,56.0560333 12,56.1498 C12.0009573,56.2464667 11.978939,56.3460333 11.9444755,56.4456 Z M12.9592341,59.0565667 C12.7869166,59.0565667 12.620343,59.0101667 12.4748305,58.9241333 C12.4767451,58.8864333 12.4777024,58.8497 12.4777024,58.8129667 C12.4777024,58.6225333 12.4413243,58.4427333 12.3915437,58.2687333 C12.3800558,58.2291 12.3695253,58.1904333 12.3551655,58.1517667 C12.2948544,57.9845333 12.2144396,57.8279333 12.1129637,57.6858333 C12.1081771,57.6781 12.1062625,57.6694 12.1005185,57.6616667 L12.1014759,57.6607 C12.1924212,57.4741333 12.3436777,57.3223667 12.5265257,57.2276333 C12.5667331,57.2073333 12.6059832,57.1870333 12.6490626,57.1725333 C12.6998006,57.1551333 12.7514958,57.1474 12.8031911,57.1387 C12.8414838,57.1329 12.877862,57.1242 12.9171121,57.1222667 C12.9515756,57.1203333 12.9860391,57.1261333 13.0195453,57.1290333 C13.1066613,57.1348333 13.1889908,57.1522333 13.2684483,57.1793 C13.2990826,57.1899333 13.3306741,57.1986333 13.360351,57.2121667 C13.4541683,57.2566333 13.5403271,57.3136667 13.614998,57.3852 C13.8035899,57.565 13.9069805,57.8076333 13.9098524,58.1324333 C13.8859194,58.6447667 13.4733147,59.0565667 12.9592341,59.0565667 Z M14.3913841,55.7351 C14.3856402,55.8134 14.3703231,55.8897667 14.3463901,55.9622667 C14.3416035,55.9787 14.3349023,55.9941667 14.328201,56.0096333 C14.3061827,56.0695667 14.2774631,56.1256333 14.2439569,56.1788 C14.2305544,56.2000667 14.2161947,56.2213333 14.2008775,56.2416333 C14.169286,56.2841667 14.1329079,56.3238 14.0946151,56.3615 C14.0716394,56.3827667 14.0496211,56.405 14.0247308,56.4243333 C14.0122856,56.434 13.9969685,56.4417333 13.983566,56.4504333 C13.9711209,56.4427 13.9567611,56.4398 13.9452732,56.4320667 C13.8256083,56.3586 13.6973275,56.3015667 13.5623454,56.2551667 C13.522138,56.2416333 13.4838452,56.2290667 13.4436378,56.2174667 C13.2875947,56.1759 13.1267651,56.1469 12.9592341,56.1469 C12.9582768,56.1469 12.9582768,56.1469 12.9582768,56.1459333 C12.9582768,56.0125333 12.9448744,55.883 12.9190267,55.7573333 C12.9142401,55.7322 12.901795,55.7080333 12.8960511,55.6829 C12.8730754,55.5852667 12.8472278,55.4895667 12.808935,55.3977333 C12.8108496,55.3958 12.8127643,55.3929 12.8156362,55.3909667 C12.8491424,55.3600333 12.8740327,55.3213667 12.9046669,55.2885 C12.9812525,55.2073 13.0530515,55.1232 13.1143199,55.0284667 C13.15357,54.9695 13.1832469,54.9066667 13.2148385,54.8438333 C13.2387714,54.7964667 13.270363,54.7539333 13.2904667,54.7046333 C13.3469485,54.694 13.4024731,54.694 13.4579976,54.694 C13.6351017,54.6969 13.8064619,54.7491 13.9567611,54.8467333 C14.0007978,54.8757333 14.0438771,54.9066667 14.0831272,54.9434 C14.286079,55.1299667 14.3990427,55.3842 14.3923414,55.7225333 C14.3923414,55.7283333 14.3923414,55.7322 14.3913841,55.7351 Z M15.3582768,58.087 C15.1859593,58.087 15.0193857,58.0406 14.8729158,57.9526333 C14.8700439,57.9149333 14.8575987,57.8782 14.8528121,57.8405 C14.8432389,57.7622 14.8307938,57.6848667 14.8126047,57.6094667 C14.8001596,57.5601667 14.7838851,57.5118333 14.7676107,57.4644667 C14.7408057,57.3842333 14.7092142,57.3069 14.6728361,57.2324667 C14.6623055,57.2112 14.6575189,57.188 14.6460311,57.1667333 C14.6919824,57.1280667 14.7216594,57.0749 14.7647387,57.0333333 C14.8604707,56.9386 14.9562026,56.8458 15.0299162,56.7336667 C15.0653371,56.6795333 15.0854408,56.6167 15.1151177,56.5587 C15.1783008,56.4378667 15.2395692,56.3170333 15.2769047,56.1836333 C15.2788193,56.1749333 15.2855205,56.1672 15.2874352,56.1585 C15.298923,56.1565667 15.3104108,56.1546333 15.3190267,56.1536667 C15.4252892,56.1498 15.5267651,56.1691333 15.6234543,56.1981333 C15.6454727,56.2049 15.670363,56.2029667 15.6923813,56.2116667 C15.7948145,56.2513 15.8886318,56.3122 15.9738333,56.3856667 C16.1806143,56.5625667 16.3184683,56.8226 16.3184683,57.1174333 C16.3194256,57.652 15.8886318,58.087 15.3582768,58.087 Z M15.5851615,54.2870333 C15.5918628,54.2793 15.5976067,54.2696333 15.6052653,54.2619 C15.7412046,54.1033667 15.8570403,53.9264667 15.9364978,53.7292667 C16.4209015,53.7785667 16.8,54.1923 16.8,54.694 C16.8,55.0120333 16.6429996,55.3068667 16.3921819,55.4857 C16.3778221,55.4760333 16.3605903,55.4731333 16.3452732,55.4644333 C16.2256083,55.3909667 16.0973275,55.3339333 15.9623454,55.2875333 C15.922138,55.274 15.8838452,55.2614333 15.8436378,55.2498333 C15.6875947,55.2082667 15.5267651,55.1792667 15.3592341,55.1792667 C15.3582768,55.1792667 15.3353012,55.1802333 15.2979657,55.1831333 C15.2730754,55.0855 15.2232948,54.9965667 15.1840447,54.9037667 C15.1620263,54.8554333 15.1486239,54.8022667 15.1237335,54.7558667 C15.1122457,54.7336333 15.1084164,54.7085 15.0959713,54.6862667 C15.1084164,54.6795 15.116075,54.6669333 15.1294775,54.6592 C15.2979657,54.5586667 15.4540088,54.4349333 15.5851615,54.2870333 Z M14.1587555,52.0289 C14.2879936,52.0289 14.4105305,52.0559667 14.5225369,52.1033333 C14.6010371,52.1362 14.6651775,52.1903333 14.7321899,52.2415667 C14.9619465,52.4184667 15.1199043,52.6852667 15.1199043,52.9994333 C15.1199043,53.0922333 15.0978859,53.1782667 15.0729956,53.2623667 C15.0605505,53.3068333 15.047148,53.3503333 15.0280016,53.3919 C15.0040686,53.4450667 14.9743917,53.4943667 14.9418428,53.5427 C14.9159952,53.5804 14.8920622,53.6181 14.8623853,53.6509667 C14.8202633,53.6973667 14.7704826,53.7350667 14.7197447,53.7727667 C14.6891105,53.7959667 14.6603909,53.8230333 14.6268847,53.8423667 C14.5368967,53.8926333 14.4402074,53.9332333 14.3349023,53.9525667 C14.1405664,53.8491333 13.9289988,53.7911333 13.7116873,53.7592333 C13.6954128,53.7573 13.6791384,53.7534333 13.6619067,53.7515 C13.6169126,53.7457 13.5728759,53.7312 13.5269246,53.7302333 C13.4417232,53.6548333 13.381412,53.5591333 13.3278022,53.4615 C13.291424,53.3948 13.2713203,53.3213333 13.2512166,53.2488333 C13.2291982,53.1676333 13.1976067,53.0874 13.1976067,53.0013667 C13.198564,52.4639 13.6293578,52.0289 14.1587555,52.0289 Z M12.7199043,50.5750333 C13.1095333,50.5750333 13.4455525,50.8099333 13.5958516,51.1473 C13.5680893,51.156 13.5441564,51.1714667 13.5173514,51.1821 C13.4417232,51.2091667 13.3689669,51.2420333 13.2971679,51.2787667 C13.249302,51.3029333 13.2023933,51.3271 13.1573993,51.3551333 C13.0884723,51.3986333 13.0243319,51.4479333 12.9611488,51.4991667 C12.9209414,51.5310667 12.8807339,51.5610333 12.8443558,51.5968 C12.7811727,51.6577 12.7246909,51.7253667 12.6691663,51.7949667 C12.6414041,51.8297667 12.6107698,51.8607 12.5858795,51.8964667 C12.5140806,52.0008667 12.4508975,52.1120333 12.4001596,52.2299667 C12.3982449,52.2348 12.3944156,52.2386667 12.392501,52.2435 C12.3676107,52.2299667 12.3379338,52.2261 12.3120862,52.2145 C12.2134822,52.1690667 12.1120064,52.1323333 12.0057439,52.1033333 C11.9779817,52.0956 11.9530913,52.0801333 11.9253291,52.0743333 C11.9301157,52.0579 11.928201,52.0405 11.9320303,52.0240667 C11.9712804,51.8703667 11.9980854,51.7118333 11.9980854,51.5455667 C11.9980854,51.3764 11.9693658,51.2149667 11.9291584,51.0583667 C11.9243718,51.0409667 11.9272437,51.0226 11.9214998,51.0052 C12.0995612,50.7393667 12.3963303,50.5750333 12.7199043,50.5750333 Z M11.3241324,53.0197333 C11.4236937,52.9975 11.5232549,52.9955667 11.6189868,53.0042667 C11.7233347,53.0149 11.8238532,53.0468 11.9176705,53.0912667 C11.9406462,53.1019 11.9617072,53.1154333 11.9837256,53.128 C12.0574392,53.1695667 12.1254089,53.2227333 12.1876346,53.2846 C12.2173115,53.3145667 12.251775,53.3397 12.27858,53.3745 C12.2804946,53.3880333 12.2891105,53.3986667 12.2919824,53.4122 C12.3312325,53.5939333 12.3905864,53.7698667 12.4786598,53.9313 C12.4786598,53.9322667 12.4786598,53.9332333 12.4796171,53.9342 C12.4796171,53.9458 12.4805744,53.9574 12.4805744,53.969 C12.4805744,54.0647 12.4556841,54.1536333 12.4288791,54.2425667 C12.4020742,54.3344 12.3589948,54.4156 12.3072996,54.4948667 C12.2871959,54.5258 12.2728361,54.5596333 12.2498604,54.5876667 C12.2393299,54.6002333 12.2240128,54.6060333 12.2125249,54.6176333 C12.1943359,54.6031333 12.1732748,54.5925 12.1550858,54.5789667 C12.1215796,54.5548 12.0880734,54.5325667 12.0536099,54.5103333 C11.9865975,54.4678 11.9176705,54.4301 11.8468289,54.3972333 C11.8123654,54.3808 11.7779019,54.3643667 11.7415237,54.3498667 C11.6630235,54.3189333 11.5826087,54.2947667 11.5012365,54.2744667 C11.466773,54.2657667 11.4342242,54.2551333 11.3997607,54.2483667 C11.2820104,54.2261333 11.1623454,54.2116333 11.0407659,54.2116333 C11.0388512,54.2116333 11.0398085,54.2116333 11.0398085,54.2116333 C11.0398085,54.0637333 11.0197048,53.9216333 10.9890706,53.7834 C10.9804547,53.7466667 10.9670523,53.7128333 10.9565217,53.6770667 C10.9268448,53.5755667 10.8923813,53.476 10.8473873,53.3822333 C10.8397288,53.3658 10.8368568,53.3474333 10.8282409,53.331 C10.9900279,53.2614 11.1355405,53.1637667 11.2705225,53.0545333 C11.286797,53.0390667 11.307858,53.0332667 11.3241324,53.0197333 Z M10.0805744,50.5750333 C10.4759473,50.5750333 10.8148385,50.8176667 10.9622657,51.1618 C11.0149182,51.2836 11.0417232,51.4131333 11.0417232,51.5455667 C11.0417232,51.8268667 10.9163143,52.0782 10.7238931,52.2551 C10.6281611,52.3430667 10.5180694,52.4107333 10.3993618,52.4532667 C10.2883127,52.4938667 10.1696051,52.519 10.0470682,52.5141667 C10.0298365,52.5045 10.0097327,52.5035333 9.99345832,52.4938667 C9.83645792,52.4126667 9.67179896,52.3459667 9.49373753,52.3102 C9.25919426,52.1275 9.12134025,51.8471667 9.12134025,51.5446 C9.12038293,51.011 9.55117671,50.5750333 10.0805744,50.5750333 Z M9.12134025,53.2401333 C9.20079777,53.2401333 9.27259673,53.2672 9.34726765,53.2865333 C9.42576785,53.3058667 9.50139609,53.3300333 9.57223773,53.3687 C9.73306741,53.4576333 9.86230554,53.5881333 9.95133626,53.7495667 C9.97143997,53.7863 9.99728759,53.8191667 10.0126047,53.8588 C10.0556841,53.9699667 10.082489,54.0869333 10.082489,54.2097 C10.082489,54.3489 10.0470682,54.4852 9.98675708,54.6166667 C9.94750698,54.7007667 9.89389709,54.7771333 9.83358596,54.8457667 C9.80869565,54.8738 9.78380535,54.9008667 9.75604308,54.926 C9.58659753,55.0797 9.36737136,55.1802333 9.12134025,55.1802333 C8.59194256,55.1802333 8.16114878,54.7452333 8.16114878,54.2106667 C8.16114878,53.6761 8.59098524,53.2401333 9.12134025,53.2401333 Z M8.64172318,56.1469 C8.89637016,56.1469 9.12421221,56.2513 9.2955724,56.4146667 C9.48416434,56.5935 9.58755485,56.8342 9.59138412,57.1493333 C9.57702433,57.1580333 9.56745114,57.1725333 9.55309134,57.1812333 C9.40087754,57.2779 9.26685281,57.3958333 9.14623055,57.5311667 C9.12516953,57.5543667 9.0945353,57.5688667 9.07443159,57.5930333 C9.05145592,57.5804667 9.0256083,57.5756333 9.00167531,57.5640333 C8.91455923,57.5215 8.8245712,57.4867 8.73075389,57.4567333 C8.68575987,57.4422333 8.64268049,57.4248333 8.59577184,57.4142 C8.45600319,57.3813333 8.31144795,57.3600667 8.1621061,57.3600667 C8.0194655,57.3600667 7.88065417,57.3784333 7.74662944,57.4084 C7.7399282,57.4093667 7.73322696,57.4093667 7.72652573,57.4103333 C7.69684882,57.3165667 7.68153171,57.217 7.68153171,57.1164667 C7.68057439,56.5819 8.11136817,56.1469 8.64172318,56.1469 Z M7.75715995,58.4243667 C7.79832469,58.4040667 7.84331871,58.3963333 7.8873554,58.3837667 C7.95436777,58.3634667 8.02329477,58.3460667 8.09509374,58.3412333 C8.14678899,58.3383333 8.19752692,58.3402667 8.24922218,58.3451 C8.3143199,58.3509 8.37654567,58.3644333 8.4368568,58.3837667 C8.48759473,58.3992333 8.53737535,58.4147 8.58524132,58.4379 C8.64459513,58.4678667 8.69629039,58.5075 8.74702832,58.5481 C8.78436378,58.5771 8.82552852,58.6022333 8.85807738,58.638 C8.89637016,58.6786 8.92030315,58.7298333 8.95093738,58.7772 C8.98444356,58.8294 9.02656562,58.8767667 9.04954128,58.9338 C9.09644994,59.0488333 9.12229757,59.1716 9.12229757,59.2982333 C9.12229757,59.8328 8.69150379,60.2678 8.16114878,60.2678 C7.6317511,60.2678 7.20095732,59.8328 7.20095732,59.2982333 C7.20095732,58.9096333 7.430714,58.58 7.75715995,58.4243667 Z" id="Shape"></path>
        </g>
    </g>
</svg>