<?xml version="1.0" encoding="UTF-8"?>
<svg width="16px" height="58px" viewBox="0 0 16 58" version="1.1" xmlns="http://www.w3.org/2000/svg" xmlns:xlink="http://www.w3.org/1999/xlink">
    <!-- Generator: Sketch 49.2 (51160) - http://www.bohemiancoding.com/sketch -->
    <title>wine</title>
    <desc>Created with Sketch.</desc>
    <defs></defs>
    <g id="Page-1" stroke="none" stroke-width="1" fill="none" fill-rule="evenodd">
        <g id="wine" fill="#E3D26F" fill-rule="nonzero">
            <path d="M11.6295174,16.7001333 L11.6295174,1.54473333 L11.2880734,1.54473333 L11.2880734,0 L4.71192661,0 L4.71192661,1.54473333 L4.37048265,1.54473333 L4.37048265,2.18917778 C4.37048265,2.18917778 4.37048265,14.3711111 4.37048265,16.7001333 C1.66445951,18.2577556 0,21.1364889 0,24.3052222 L0,29.1276 L0,44.7676222 L0,58 L16,58 L16,44.7676222 L16,29.1276 L16,24.3052222 C16,21.1364889 14.3355405,18.2584 11.6295174,16.7001333 Z M5.98835261,1.28888889 L10.0116474,1.28888889 L10.0116474,1.54473333 L5.98835261,1.54473333 L5.98835261,1.28888889 Z M14.723574,56.7111111 L1.27642601,56.7111111 L1.27642601,44.7676222 L14.723574,44.7676222 L14.723574,56.7111111 Z M14.723574,43.4787333 L1.27642601,43.4787333 L1.27642601,30.4164889 L14.723574,30.4164889 L14.723574,43.4787333 Z M14.723574,29.1276 L1.27642601,29.1276 L1.27642601,24.3052222 C1.27642601,21.5276667 2.77622657,19.0117556 5.19888313,17.7112667 C5.64690866,17.6171778 5.64690866,17.1564 5.64690866,16.4442889 L5.64690866,2.83362222 L10.3530913,2.83362222 L10.3530913,17.4779778 L10.7002792,17.6577778 C13.1822896,18.9421556 14.723574,21.489 14.723574,24.3052222 L14.723574,29.1276 Z M5.44076586,40.8229778 C5.84284005,40.8229778 6.19832469,40.6309333 6.43318708,40.3364222 C6.61954527,40.4388889 6.82632629,40.5001111 7.04076586,40.5001111 C7.49389709,40.5001111 7.89086558,40.2590889 8.11806941,39.8988444 C8.28081372,39.9729556 8.45696051,40.0154889 8.64012764,40.0154889 C9.14559234,40.0154889 9.57893897,39.7151778 9.7863582,39.2846889 C9.92995612,39.3394667 10.0831272,39.3691111 10.2388512,39.3691111 C10.9434384,39.3691111 11.5171919,38.7897556 11.5171919,38.0782889 C11.5171919,37.8559556 11.4559234,37.6490889 11.3576386,37.4660667 C11.6531312,37.2244 11.8375748,36.8583556 11.8375748,36.4626667 C11.8375748,35.8008222 11.3397686,35.2594889 10.7034703,35.1866667 C10.681771,34.9933333 10.6205026,34.8128889 10.522856,34.655 C10.897487,34.4068889 11.1540487,33.9416 11.1540487,33.4022 C11.1540487,33.2243333 11.011089,33.0799778 10.8349422,33.0799778 C10.6587954,33.0799778 10.5158357,33.2243333 10.5158357,33.4022 C10.5158357,33.8036889 10.2905465,34.1226889 10.0039888,34.1800444 C9.91527722,34.1355778 9.82273634,34.0994889 9.72445154,34.0762889 C9.59425608,33.5027333 9.08687675,33.0722444 8.48057439,33.0722444 C8.14678899,33.0722444 7.84172318,33.2133778 7.60813722,33.437 C7.37838053,33.2120889 7.06565616,33.0722444 6.72102114,33.0722444 C6.01643398,33.0722444 5.44268049,33.6516 5.44268049,34.3637111 C5.44268049,34.5725111 5.49565217,34.771 5.58627842,34.9501556 C5.12612684,35.1460667 4.80255285,35.6055556 4.80255285,36.1404444 C4.80255285,36.4588 4.92189868,36.7468667 5.11144795,36.9724222 C4.73681691,37.1979778 4.48280814,37.6065556 4.48280814,38.0782889 C4.48280814,38.2522889 4.52748305,38.4166222 4.59258077,38.5732222 C4.33091344,38.8097333 4.16242521,39.15 4.16242521,39.5315111 C4.16242521,40.2436222 4.7361787,40.8229778 5.44076586,40.8229778 Z M7.04076586,39.8556667 C6.91822896,39.8556667 6.80143598,39.8208667 6.69996011,39.7564222 C6.71336258,39.6823111 6.71974471,39.6075556 6.71974471,39.5321556 C6.71974471,39.4187333 6.70059832,39.3104667 6.67315517,39.2060667 C6.66613482,39.179 6.65783805,39.1532222 6.64890307,39.1268 C6.61826885,39.0352889 6.57997607,38.9482889 6.53083367,38.8670889 C6.52572796,38.8587111 6.52381332,38.8484 6.51870762,38.8400222 C6.55189469,38.7929778 6.58954926,38.7491556 6.63422417,38.7124222 C6.63869166,38.7085556 6.64443558,38.7059778 6.64890307,38.7021111 C6.69293977,38.6679556 6.74144396,38.6396 6.79377742,38.6170444 C6.83909055,38.5977111 6.8856801,38.5835333 6.93418428,38.5758 C6.98779418,38.5667778 7.04331871,38.5693556 7.09884324,38.5751556 C7.13905066,38.5790222 7.17670523,38.5880444 7.21372158,38.5983556 C7.253929,38.6099556 7.29349821,38.6234889 7.33179099,38.6428222 C7.38731552,38.6724667 7.44156362,38.7040444 7.48560032,38.7478667 C7.53921021,38.8007111 7.5781412,38.8632222 7.61005185,38.9289556 C7.61515756,38.9392667 7.62473075,38.9463556 7.62919824,38.9573111 C7.66238532,39.0365778 7.68025529,39.121 7.68025529,39.2092889 C7.6808935,39.5656667 7.39369765,39.8556667 7.04076586,39.8556667 Z M7.96298365,37.6304 C7.80215397,37.7322222 7.66238532,37.8662667 7.55963303,38.0306 C7.5583566,38.0299556 7.55644196,38.0299556 7.55516554,38.0293111 C7.48751496,37.9990222 7.4160351,37.9764667 7.34264061,37.9584222 C7.32987635,37.9552 7.3177503,37.9494 7.30562425,37.9468222 C7.22010371,37.9287778 7.1313921,37.9184667 7.04012764,37.9184667 C7.03629836,37.9184667 7.03246909,37.9184667 7.02927802,37.9184667 C7.0280016,37.9062222 7.02161947,37.8952667 7.01970483,37.8830222 C7.00311129,37.7734667 6.97630634,37.6677778 6.93418428,37.5685333 C6.93354607,37.5666 6.93226964,37.5646667 6.93099322,37.5627333 C6.88823295,37.4641333 6.83015556,37.3745556 6.76505784,37.2901333 C6.75739928,37.2798222 6.75293179,37.2669333 6.74463502,37.2566222 C6.74591145,37.2514667 6.74718787,37.2456667 6.74910251,37.2405111 C6.75484643,37.2372889 6.75931392,37.2314889 6.76441963,37.2276222 C6.92205824,37.1264444 7.05672118,36.9904667 7.15692062,36.8312889 C7.15819705,36.8293556 7.16011169,36.8274222 7.16138811,36.8254889 C7.21308337,36.8080889 7.26541683,36.7919778 7.31902673,36.7887556 C7.322856,36.7887556 7.32668528,36.7894 7.33115277,36.7894 C7.38476266,36.7874667 7.43773434,36.7939111 7.48879138,36.8055111 C7.52070203,36.8126 7.55069805,36.8235556 7.58133227,36.8351556 C7.59920223,36.8422444 7.61643398,36.8499778 7.63366574,36.859 C7.74280016,36.9137778 7.83534105,36.9988444 7.90107698,37.1032444 C7.91575588,37.1270889 7.92915836,37.1515778 7.9412844,37.178 C7.95213402,37.2037778 7.96362186,37.2276222 7.9706422,37.2546889 C7.98787395,37.3114 8,37.3706889 8,37.4332 C8.00063821,37.4976444 7.98595931,37.5640222 7.96298365,37.6304 Z M8.63948943,39.3710444 C8.52461109,39.3710444 8.41356203,39.3401111 8.31655365,39.2827556 C8.31783008,39.2576222 8.31846829,39.2331333 8.31846829,39.2086444 C8.31846829,39.0816889 8.29421619,38.9618222 8.26102912,38.8458222 C8.25337056,38.8194 8.24635022,38.7936222 8.23677702,38.7678444 C8.19656961,38.6563556 8.14295971,38.5519556 8.07530913,38.4572222 C8.07211807,38.4520667 8.07084164,38.4462667 8.06701237,38.4411111 L8.06765058,38.4404667 C8.12828081,38.3160889 8.22911847,38.2149111 8.35101715,38.1517556 C8.3778221,38.1382222 8.40398883,38.1246889 8.43270842,38.1150222 C8.46653371,38.1034222 8.50099721,38.0982667 8.53546071,38.0924667 C8.56098923,38.0886 8.58524132,38.0828 8.61140806,38.0815111 C8.63438373,38.0802222 8.65735939,38.0840889 8.67969685,38.0860222 C8.73777423,38.0898889 8.79266055,38.1014889 8.84563223,38.1195333 C8.86605505,38.1266222 8.88711607,38.1324222 8.90690068,38.1414444 C8.96944555,38.1710889 9.02688472,38.2091111 9.07666534,38.2568 C9.2023933,38.3766667 9.2713203,38.5384222 9.27323494,38.7549556 C9.25727962,39.0965111 8.98220981,39.3710444 8.63948943,39.3710444 Z M9.59425608,37.1567333 C9.5904268,37.2089333 9.5802154,37.2598444 9.56426007,37.3081778 C9.56106901,37.3191333 9.55660152,37.3294444 9.55213402,37.3397556 C9.53745513,37.3797111 9.51830874,37.4170889 9.49597128,37.4525333 C9.4870363,37.4667111 9.4774631,37.4808889 9.4672517,37.4944222 C9.44619067,37.5227778 9.42193857,37.5492 9.39641005,37.5743333 C9.38109294,37.5885111 9.36641404,37.6033333 9.3498205,37.6162222 C9.34152373,37.6226667 9.33131233,37.6278222 9.32237734,37.6336222 C9.31408057,37.6284667 9.30450738,37.6265333 9.29684882,37.6213778 C9.2170722,37.5724 9.13155166,37.5343778 9.04156362,37.5034444 C9.01475868,37.4944222 8.98923016,37.4860444 8.96242521,37.4783111 C8.85839649,37.4506 8.75117671,37.4312667 8.63948943,37.4312667 C8.63885122,37.4312667 8.63885122,37.4312667 8.63885122,37.4306222 C8.63885122,37.3416889 8.62991623,37.2553333 8.61268448,37.1715556 C8.60949342,37.1548 8.60119665,37.1386889 8.59736737,37.1219333 C8.58205026,37.0568444 8.56481851,36.9930444 8.53928999,36.9318222 C8.54056641,36.9305333 8.54184284,36.9286 8.54375748,36.9273111 C8.56609493,36.9066889 8.58268847,36.8809111 8.60311129,36.859 C8.65416833,36.8048667 8.7020343,36.7488 8.74287994,36.6856444 C8.76904667,36.6463333 8.78883127,36.6044444 8.8098923,36.5625556 C8.82584763,36.5309778 8.84690866,36.5026222 8.86031113,36.4697556 C8.8979657,36.4626667 8.93498205,36.4626667 8.9719984,36.4626667 C9.09006781,36.4646 9.20430794,36.4994 9.30450738,36.5644889 C9.33386518,36.5838222 9.36258476,36.6044444 9.3887515,36.6289333 C9.52405265,36.7533111 9.59936179,36.9228 9.5948943,37.1483556 C9.5948943,37.1522222 9.5948943,37.1548 9.59425608,37.1567333 Z M10.2388512,38.7246667 C10.1239729,38.7246667 10.0129238,38.6937333 9.91527722,38.6350889 C9.91336258,38.6099556 9.90506582,38.5854667 9.90187475,38.5603333 C9.89549262,38.5081333 9.88719585,38.4565778 9.8750698,38.4063111 C9.86677304,38.3734444 9.85592341,38.3412222 9.84507379,38.3096444 C9.82720383,38.2561556 9.8061428,38.2046 9.78189071,38.1549778 C9.77487036,38.1408 9.7716793,38.1253333 9.76402074,38.1111556 C9.79465497,38.0853778 9.81443957,38.0499333 9.84315915,38.0222222 C9.90698045,37.9590667 9.97080176,37.8972 10.0199442,37.8224444 C10.043558,37.7863556 10.0569605,37.7444667 10.0767451,37.7058 C10.1188672,37.6252444 10.1597128,37.5446889 10.1846031,37.4557556 C10.1858795,37.4499556 10.190347,37.4448 10.1916235,37.439 C10.199282,37.4377111 10.2069406,37.4364222 10.2126845,37.4357778 C10.2835261,37.4332 10.3511767,37.4460889 10.4156362,37.4654222 C10.4303151,37.4699333 10.4469087,37.4686444 10.4615876,37.4744444 C10.5298763,37.5008667 10.5924212,37.5414667 10.6492222,37.5904444 C10.7870762,37.7083778 10.8789789,37.8817333 10.8789789,38.0782889 C10.8796171,38.4346667 10.5924212,38.7246667 10.2388512,38.7246667 Z M10.3901077,36.1913556 C10.3945752,36.1862 10.3984045,36.1797556 10.4035102,36.1746 C10.4941364,36.0689111 10.5713602,35.9509778 10.6243319,35.8195111 C10.9472677,35.8523778 11.2,36.1282 11.2,36.4626667 C11.2,36.6746889 11.0953331,36.8712444 10.9281213,36.9904667 C10.9185481,36.9840222 10.9070602,36.9820889 10.8968488,36.9762889 C10.8170722,36.9273111 10.7315517,36.8892889 10.6415636,36.8583556 C10.6147587,36.8493333 10.5892302,36.8409556 10.5624252,36.8332222 C10.4583965,36.8055111 10.3511767,36.7861778 10.2394894,36.7861778 C10.2388512,36.7861778 10.2235341,36.7868222 10.1986438,36.7887556 C10.1820503,36.7236667 10.1488632,36.6643778 10.1226964,36.6025111 C10.1080176,36.5702889 10.0990826,36.5348444 10.082489,36.5039111 C10.0748305,36.4890889 10.0722776,36.4723333 10.0639809,36.4575111 C10.0722776,36.453 10.0773833,36.4446222 10.0863183,36.4394667 C10.1986438,36.3724444 10.3026725,36.2899556 10.3901077,36.1913556 Z M9.43917032,34.6859333 C9.52532908,34.6859333 9.60702034,34.7039778 9.68169126,34.7355556 C9.73402473,34.7574667 9.776785,34.7935556 9.82145991,34.8277111 C9.97463103,34.9456444 10.0799362,35.1235111 10.0799362,35.3329556 C10.0799362,35.3948222 10.0652573,35.4521778 10.0486637,35.5082444 C10.040367,35.5378889 10.031432,35.5668889 10.0186677,35.5946 C10.0027124,35.6300444 9.9829278,35.6629111 9.96122856,35.6951333 C9.94399681,35.7202667 9.92804148,35.7454 9.90825688,35.7673111 C9.88017551,35.7982444 9.84698843,35.8233778 9.81316314,35.8485111 C9.79274033,35.8639778 9.77359394,35.8820222 9.75125648,35.8949111 C9.69126446,35.9284222 9.62680495,35.9554889 9.55660152,35.9683778 C9.42704428,35.8994222 9.2859992,35.8607556 9.14112485,35.8394889 C9.13027523,35.8382 9.11942561,35.8356222 9.10793777,35.8343333 C9.07794176,35.8304667 9.04858396,35.8208 9.01794974,35.8201556 C8.96114878,35.7698889 8.92094136,35.7060889 8.88520144,35.641 C8.86094934,35.5965333 8.84754687,35.5475556 8.8341444,35.4992222 C8.8194655,35.4450889 8.79840447,35.3916 8.79840447,35.3342444 C8.79904268,34.9759333 9.08623853,34.6859333 9.43917032,34.6859333 Z M8.47993618,33.7166889 C8.73968887,33.7166889 8.96370164,33.8732889 9.06390108,34.0982 C9.0453929,34.104 9.02943757,34.1143111 9.01156761,34.1214 C8.96114878,34.1394444 8.9126446,34.1613556 8.86477862,34.1858444 C8.83286797,34.2019556 8.80159553,34.2180667 8.77159952,34.2367556 C8.72564819,34.2657556 8.68288791,34.2986222 8.64076586,34.3327778 C8.61396091,34.3540444 8.58715596,34.3740222 8.56290387,34.3978667 C8.52078181,34.4384667 8.48312724,34.4835778 8.44611089,34.5299778 C8.42760271,34.5531778 8.4071799,34.5738 8.39058636,34.5976444 C8.34272038,34.6672444 8.30059832,34.7413556 8.26677304,34.8199778 C8.26549661,34.8232 8.26294376,34.8257778 8.26166733,34.829 C8.24507379,34.8199778 8.22528919,34.8174 8.20805744,34.8096667 C8.1423215,34.7793778 8.07467092,34.7548889 8.00382928,34.7355556 C7.9853211,34.7304 7.96872756,34.7200889 7.95021939,34.7162222 C7.95341045,34.7052667 7.95213402,34.6936667 7.95468688,34.6827111 C7.98085361,34.5802444 7.99872357,34.4745556 7.99872357,34.3637111 C7.99872357,34.2509333 7.97957718,34.1433111 7.95277224,34.0389111 C7.94958117,34.0273111 7.95149581,34.0150667 7.94766653,34.0034667 C8.06637415,33.8262444 8.26422018,33.7166889 8.47993618,33.7166889 Z M7.54942162,35.3464889 C7.61579577,35.3316667 7.68216992,35.3303778 7.74599122,35.3361778 C7.81555644,35.3432667 7.88256881,35.3645333 7.94511368,35.3941778 C7.96043079,35.4012667 7.97447148,35.4102889 7.98915038,35.4186667 C8.03829278,35.4463778 8.0836059,35.4818222 8.12508975,35.5230667 C8.14487435,35.5430444 8.16785002,35.5598 8.18571998,35.583 C8.18699641,35.5920222 8.19274033,35.5991111 8.19465497,35.6081333 C8.2208217,35.7292889 8.26039091,35.8465778 8.3191065,35.9542 C8.3191065,35.9548444 8.3191065,35.9554889 8.31974471,35.9561333 C8.31974471,35.9638667 8.32038293,35.9716 8.32038293,35.9793333 C8.32038293,36.0431333 8.30378939,36.1024222 8.28591943,36.1617111 C8.26804946,36.2229333 8.23932988,36.2770667 8.20486637,36.3299111 C8.1914639,36.3505333 8.18189071,36.3730889 8.16657359,36.3917778 C8.15955325,36.4001556 8.14934184,36.4040222 8.14168329,36.4117556 C8.12955724,36.4020889 8.11551655,36.395 8.10339051,36.3859778 C8.08105305,36.3698667 8.0587156,36.3550444 8.03573993,36.3402222 C7.99106502,36.3118667 7.94511368,36.2867333 7.89788592,36.2648222 C7.87491025,36.2538667 7.85193458,36.2429111 7.82768249,36.2332444 C7.77534902,36.2126222 7.72173913,36.1965111 7.66749103,36.1829778 C7.64451536,36.1771778 7.62281611,36.1700889 7.59984045,36.1655778 C7.52134025,36.1507556 7.44156362,36.1410889 7.36051057,36.1410889 C7.35923414,36.1410889 7.35987236,36.1410889 7.35987236,36.1410889 C7.35987236,36.0424889 7.34646988,35.9477556 7.32604707,35.8556 C7.32030315,35.8311111 7.31136817,35.8085556 7.30434783,35.7847111 C7.28456322,35.7170444 7.26158755,35.6506667 7.23159154,35.5881556 C7.22648584,35.5772 7.2245712,35.5649556 7.21882728,35.554 C7.32668528,35.5076 7.42369366,35.4425111 7.51368169,35.3696889 C7.52453131,35.3593778 7.538572,35.3555111 7.54942162,35.3464889 Z M6.72038293,33.7166889 C6.9839649,33.7166889 7.2098923,33.8784444 7.3081771,34.1078667 C7.34327882,34.1890667 7.36114878,34.2754222 7.36114878,34.3637111 C7.36114878,34.5512444 7.27754288,34.7188 7.14926207,34.8367333 C7.08544077,34.8953778 7.01204627,34.9404889 6.93290786,34.9688444 C6.85887515,34.9959111 6.77973674,35.0126667 6.69804547,35.0094444 C6.68655764,35.003 6.67315517,35.0023556 6.66230554,34.9959111 C6.55763861,34.9417778 6.44786598,34.8973111 6.32915836,34.8734667 C6.17279617,34.7516667 6.0808935,34.5647778 6.0808935,34.3630667 C6.08025529,34.0073333 6.36745114,33.7166889 6.72038293,33.7166889 Z M6.0808935,35.4934222 C6.13386518,35.4934222 6.18173115,35.5114667 6.23151177,35.5243556 C6.28384523,35.5372444 6.33426406,35.5533556 6.38149182,35.5791333 C6.48871161,35.6384222 6.57487036,35.7254222 6.63422417,35.8330444 C6.64762665,35.8575333 6.6648584,35.8794444 6.6750698,35.9058667 C6.70378939,35.9799778 6.72165935,36.0579556 6.72165935,36.1398 C6.72165935,36.2326 6.69804547,36.3234667 6.65783805,36.4111111 C6.63167132,36.4671778 6.59593139,36.5180889 6.55572397,36.5638444 C6.53913043,36.5825333 6.5225369,36.6005778 6.50402872,36.6173333 C6.39106502,36.7198 6.24491424,36.7868222 6.0808935,36.7868222 C5.72796171,36.7868222 5.44076586,36.4968222 5.44076586,36.1404444 C5.44076586,35.7840667 5.72732349,35.4934222 6.0808935,35.4934222 Z M5.76114878,37.4312667 C5.93091344,37.4312667 6.08280814,37.5008667 6.19704826,37.6097778 C6.32277623,37.729 6.39170323,37.8894667 6.39425608,38.0995556 C6.38468289,38.1053556 6.37830076,38.1150222 6.36872756,38.1208222 C6.2672517,38.1852667 6.17790187,38.2638889 6.09748704,38.3541111 C6.08344635,38.3695778 6.06302353,38.3792444 6.04962106,38.3953556 C6.03430395,38.3869778 6.0170722,38.3837556 6.00111687,38.3760222 C5.94303949,38.3476667 5.88304747,38.3244667 5.82050259,38.3044889 C5.79050658,38.2948222 5.761787,38.2832222 5.73051456,38.2761333 C5.63733546,38.2542222 5.5409653,38.2400444 5.44140407,38.2400444 C5.34631033,38.2400444 5.25376945,38.2522889 5.16441963,38.2722667 C5.15995213,38.2729111 5.15548464,38.2729111 5.15101715,38.2735556 C5.13123255,38.2110444 5.12102114,38.1446667 5.12102114,38.0776444 C5.12038293,37.7212667 5.40757878,37.4312667 5.76114878,37.4312667 Z M5.17143997,38.9495778 C5.19888313,38.9360444 5.22887914,38.9308889 5.25823694,38.9225111 C5.30291185,38.9089778 5.34886318,38.8973778 5.39672916,38.8941556 C5.43119266,38.8922222 5.46501795,38.8935111 5.49948145,38.8967333 C5.54287994,38.9006 5.58436378,38.9096222 5.6245712,38.9225111 C5.65839649,38.9328222 5.69158357,38.9431333 5.72349422,38.9586 C5.76306342,38.9785778 5.79752692,39.005 5.83135221,39.0320667 C5.85624252,39.0514 5.88368568,39.0681556 5.90538492,39.092 C5.93091344,39.1190667 5.94686877,39.1532222 5.96729158,39.1848 C5.98962904,39.2196 6.01771041,39.2511778 6.03302752,39.2892 C6.06429996,39.3658889 6.08153171,39.4477333 6.08153171,39.5321556 C6.08153171,39.8885333 5.79433586,40.1785333 5.44076586,40.1785333 C5.08783406,40.1785333 4.80063821,39.8885333 4.80063821,39.5321556 C4.80063821,39.2730889 4.95380933,39.0533333 5.17143997,38.9495778 Z" id="Shape"></path>
        </g>
    </g>
</svg>